<?xml version="1.0" encoding="utf-8"?>
<!-- Generator: Adobe Illustrator 16.0.0, SVG Export Plug-In . SVG Version: 6.00 Build 0)  -->
<!DOCTYPE svg PUBLIC "-//W3C//DTD SVG 1.1//EN" "http://www.w3.org/Graphics/SVG/1.1/DTD/svg11.dtd">
<svg version="1.1" id="Layer_1" xmlns="http://www.w3.org/2000/svg" xmlns:xlink="http://www.w3.org/1999/xlink" x="0px" y="0px"
	 width="46.5px" height="48px" viewBox="0 0 46.5 48" enable-background="new 0 0 46.5 48" xml:space="preserve">
<g>
	
		<circle fill="none" stroke="#262626" stroke-width="3" stroke-linecap="round" stroke-linejoin="round" cx="23.607" cy="24.578" r="4.758"/>
	<path fill="none" stroke="#262626" stroke-width="3" stroke-linecap="round" stroke-linejoin="round" d="M39.61,28.959
		l-2.094-1.211c0.232-1.019,0.365-2.079,0.365-3.17s-0.133-2.148-0.365-3.169L39.61,20.2c1.886-1.089,2.531-3.498,1.443-5.386
		l-0.085-0.146c-1.088-1.883-3.5-2.53-5.386-1.441l-2,1.153C32.027,12.858,30.122,11.688,28,11V8.849
		c0-2.177-1.766-3.941-3.941-3.941h-0.168c-2.179,0-3.942,1.765-3.942,3.941v1.948c-2.288,0.607-4.348,1.762-6.033,3.324
		l-1.55-0.894c-1.887-1.089-4.297-0.441-5.386,1.441l-0.084,0.146c-1.09,1.888-0.442,4.297,1.442,5.386l1.457,0.841
		c-0.29,1.134-0.461,2.314-0.461,3.537c0,1.224,0.171,2.405,0.461,3.538l-1.457,0.841c-1.885,1.09-2.53,3.5-1.441,5.384l0.083,0.147
		c1.089,1.885,3.5,2.531,5.386,1.444l1.55-0.896c1.686,1.562,3.745,2.718,6.033,3.325v1.947c0,2.178,1.764,3.942,3.942,3.942h0.168
		c2.176,0,3.941-1.765,3.941-3.942v-2.153c2.122-0.686,4.027-1.854,5.585-3.378l1.998,1.154c1.886,1.087,4.298,0.44,5.386-1.444
		l0.083-0.146C42.141,32.457,41.495,30.047,39.61,28.959z"/>
</g>
</svg>
