<?xml version="1.0" encoding="utf-8"?>
<!-- Generator: Adobe Illustrator 16.0.0, SVG Export Plug-In . SVG Version: 6.00 Build 0)  -->
<!DOCTYPE svg PUBLIC "-//W3C//DTD SVG 1.1//EN" "http://www.w3.org/Graphics/SVG/1.1/DTD/svg11.dtd">
<svg version="1.1" id="Layer_1" xmlns="http://www.w3.org/2000/svg" xmlns:xlink="http://www.w3.org/1999/xlink" x="0px" y="0px"
	 width="30px" height="44px" viewBox="0 0 30 44" enable-background="new 0 0 30 44" xml:space="preserve">
<path fill="none" stroke="#262626" stroke-width="3" stroke-linecap="round" stroke-linejoin="round" d="M7.965,18.964v-7.586
	c0-4.014,3.254-7.267,7.268-7.267l0,0c4.015,0,7.268,3.253,7.268,7.267v7.586"/>
<path fill="none" stroke="#F29231" stroke-width="3" stroke-linecap="round" stroke-linejoin="round" d="M19.302,20.132H22.6
	c1.013,0,1.929,0.411,2.593,1.074c0.663,0.664,1.073,1.579,1.073,2.591v6.269v6.27c0,1.011-0.41,1.928-1.073,2.592
	C24.529,39.59,23.613,40,22.6,40h-7.367H7.865c-1.012,0-1.929-0.41-2.592-1.073c-0.664-0.664-1.074-1.581-1.074-2.592v-6.27v-6.269
	c0-1.012,0.41-1.928,1.074-2.591s1.58-1.074,2.592-1.074h7.368H19.302z"/>
</svg>
