<?xml version="1.0" encoding="utf-8"?>
<!-- Generator: Adobe Illustrator 16.0.0, SVG Export Plug-In . SVG Version: 6.00 Build 0)  -->
<!DOCTYPE svg PUBLIC "-//W3C//DTD SVG 1.1//EN" "http://www.w3.org/Graphics/SVG/1.1/DTD/svg11.dtd">
<svg version="1.1" id="Layer_1" xmlns="http://www.w3.org/2000/svg" xmlns:xlink="http://www.w3.org/1999/xlink" x="0px" y="0px"
	 width="612px" height="507px" viewBox="0 0 612 507" enable-background="new 0 0 612 507" xml:space="preserve">
<g>
	<g>
		<defs>
			<path id="SVGID_1_" d="M19.423,284.534c-17.587-33.877-9.496-82.206,23.967-100.569c27.42-15.047,63.599-7.536,89.81-24.602
				c22.665-14.758,31.09-43.152,41.613-68.067c10.521-24.916,29.561-51.317,56.606-51.355c31.533-0.044,51.412,35.097,81.188,45.475
				c19.198,6.691,40.438,2.307,59.725-4.123c19.288-6.429,38.258-14.924,58.529-16.485c20.271-1.562,42.906,5.666,52.666,23.5
				c7.969,14.556,5.754,32.621,11.43,48.213c12.245,33.636,54.421,43.96,79.94,69.062c19.356,19.042,28.633,47.804,24.048,74.567
				c-4.587,26.765-22.907,50.797-47.501,62.309c-25.447,11.912-55.764,10.73-80.509,24.041
				c-26.931,14.485-42.353,43.191-58.584,69.106c-16.232,25.916-37.832,52.445-68.059,57.084
				c-53.851,8.265-94.732-56.081-149.158-58.532c-17.42-0.784-34.075,12.27-51.258,9.297c-49.68-8.594-26.08-61.914-57.537-102.678
				C67.092,315.833,35.115,314.761,19.423,284.534z"/>
		</defs>
		<use xlink:href="#SVGID_1_"  overflow="visible" fill="#C8E7F2"/>
		<clipPath id="SVGID_2_">
			<use xlink:href="#SVGID_1_"  overflow="visible"/>
		</clipPath>
		<g clip-path="url(#SVGID_2_)">
			<g opacity="0.4">
				<path fill="#FFFFFF" d="M555.54,132.62c3.832,7.631-4.163,16.952-12.445,20.273c-21.369,8.568-45.241,0.21-67.701-4.85
					c-41.721-9.399-86.057-6.878-126.442,7.188c-4.749,1.654-9.743,3.492-14.683,2.548c-14.207-2.714-14.961-23.173-24.807-33.769
					c-16.019-17.237-46.498-1.46-67.704-11.66c-2.619-1.26-5.072-2.916-7.859-3.736c-3.81-1.122-7.932-0.579-11.733,0.574
					c-15.983,4.847-26.754,19.261-39.234,30.361c-10.247,9.114-22.203,16.302-35.059,21.077c-7.508,2.789-15.586,4.776-23.496,3.521
					c-7.91-1.253-15.602-6.348-18.033-13.979c-2.519-7.908,0.814-17.083-2.834-24.537c-4.01-8.189-14.358-10.552-23.364-11.972
					c-9.993-1.575-19.983-3.149-29.976-4.725c-3.269-0.515-6.708-1.105-9.262-3.21c-5.679-4.684-3.949-13.79-0.737-20.413
					c2.216-4.568,4.905-8.904,7.997-12.931c17.866-7.348,37.246-11.011,56.562-10.645c12.025,0.229,26.623,4.194,29.403,15.896
					c2.443,10.279-5.882,19.619-12.932,27.489c-7.05,7.87-13.7,19.373-8.062,28.308c3.532,5.598,10.709,7.703,17.32,8.022
					c26.711,1.291,49.206-18.455,68.991-36.446c19.784-17.993,43.823-36.661,70.257-32.612c1.96,0.3,4.061,0.819,5.309,2.362
					c2.365,2.924,0.277,7.145-0.393,10.845c-1.535,8.462,5.582,16.55,13.764,19.198c8.182,2.647,17.056,1.248,25.538-0.175
					c13.105-2.199,26.213-4.396,39.318-6.595c8.482-1.423,17.814-2.699,25.166,1.768c4.744,2.882,7.877,7.728,11.662,11.79
					c18.728,20.101,50.57,19.047,77.602,14.14s56.374-11.85,80.798,0.731c2.493,1.284,4.971,2.834,6.504,5.183
					C555.185,131.96,555.374,132.288,555.54,132.62z"/>
			</g>
			<g opacity="0.4">
				<path fill="#FFFFFF" d="M326.002,355.556c8.492,9.688,21.219,14.521,33.751,17.504c42.417,10.097,86.726,2.929,130.147-1.051
					c7.612-0.699,15.544-1.254,22.662,1.531c7.119,2.786,13.131,9.934,12.039,17.5c-1.334,9.251-11.657,14.041-20.735,16.258
					c-16.218,3.96-33.147,4.983-49.724,3.006c-24.275-2.896-47.727-12.144-72.174-12.366c-31.553-0.287-62.368,14.512-93.696,10.753
					c-8.949-1.074-18.231-3.996-24.056-10.873c-4.121-4.865-6.111-11.241-10.168-16.158c-8.826-10.698-25.476-11.734-38.298-6.449
					c-12.823,5.284-22.86,15.469-33.008,24.922c-10.147,9.454-21.403,18.741-35.005,21.447c-23.555,4.688-50.103-6.839-74.018-7.602
					c-22.226-0.708-48.894,7.744-61.262-16.188c-13.739-26.585-8.744-61.274,9.983-83.849
					c38.643-46.583,134.17-55.176,179.223-13.386c19.931,18.489,30.959,32.963,60.638,33.388c11.73,0.167,23.871-2.755,35.531-0.561
					C312.275,336.103,316.975,345.255,326.002,355.556z"/>
			</g>
			<g opacity="0.4">
				<path fill="#FFFFFF" d="M328.773,243.061c-11.462-2.745-23.958-5.084-34.43-1.949c-8.067,2.416-13.731,7.765-21.351,10.816
					c-16.574,6.638-38.183,1.276-57.03-4.393C149.801,227.636,84.91,204.528,21.851,178.41c3.795-4.209,12.284-3.745,19.293-2.539
					c31.774,5.466,61.529,17.848,92.025,27.664c30.495,9.816,63.858,17.227,94.204,11.956c10.36-1.799,20.035-5.032,30.382-6.862
					c49.699-8.792,103.37,15.517,155.834,18.664c8.73,0.524,17.635,0.429,25.49-1.833c18.897-5.44,30.145-16.958,51.685-19.106
					c19.843-1.979,40.894,1.746,60.601,6.357c29.231,6.84,65.331,14.547,91.525,27.472c-35.082-1.065-72-11.741-107.541-14.545
					c-20.965-1.655-52.952-6.751-45.848,15.527c2.823,8.849,13.272,17.224,5.127,25.576c-8.213,8.419-31.509,5.666-43.882,4.557
					C408.987,267.555,369.219,252.747,328.773,243.061z"/>
			</g>
		</g>
	</g>
	<g>
		<g>
			<g>
				<g>
					<g>
						<g>
							<g>
								<g>
									<g>
										
											<rect x="335.121" y="263.351" transform="matrix(-0.339 0.9408 -0.9408 -0.339 724.194 18.7726)" fill="#F3C150" width="40.763" height="0.869"/>
									</g>
								</g>
								<g>
									<g>
										
											<rect x="400.565" y="246.67" transform="matrix(-0.9998 0.0219 -0.0219 -0.9998 807.8132 530.2885)" fill="#F3C150" width="0.868" height="45.807"/>
									</g>
								</g>
								<g>
									<g>
										
											<rect x="362.193" y="247.525" transform="matrix(-0.9997 0.0247 -0.0247 -0.9997 731.749 525.511)" fill="#F3C150" width="0.869" height="39.503"/>
									</g>
								</g>
								<g>
									<g>
										
											<rect x="390.216" y="251.32" transform="matrix(-0.9997 0.0242 -0.0242 -0.9997 787.7343 532.6301)" fill="#F3C150" width="0.869" height="39.503"/>
									</g>
								</g>
								<g>
									<g>
										
											<rect x="375.126" y="271.938" transform="matrix(-0.2474 0.9689 -0.9689 -0.2474 758.5383 -44.4239)" fill="#F3C150" width="42.79" height="0.869"/>
									</g>
								</g>
								<g>
									<g>
										
											<rect x="345.792" y="268.095" transform="matrix(-0.2474 0.9689 -0.9689 -0.2474 718.2148 -20.8029)" fill="#F3C150" width="42.79" height="0.868"/>
									</g>
								</g>
							</g>
						</g>
						<g>
							<path fill="#F3C150" d="M346.651,282.311l-0.118,2.25l-0.055,0.76l-0.456,9.347l-0.025,0.15l-0.916,18.271
								c-0.305,5.564,2.478,10.853,7.269,13.641c2.025,1.195,4.352,2.211,6.814,3.098c1.743,0.608,3.609,1.161,5.459,1.594
								c1.07,0.261,2.11,0.479,3.194,0.665c0.971,0.167,1.948,0.298,2.933,0.391c0.262,0.045,0.486,0.084,0.754,0.092
								c0.904,0.116,1.782,0.153,2.66,0.189c1.185,0.05,2.337,0.056,3.466-0.019c0.854-0.045,1.709-0.091,2.539-0.217
								c6.057-0.765,10.968-5.15,12.918-10.894c0,0,0.373-1.051,0.932-2.725l0.634-1.892c1.464-4.48,3.733-11.4,5.509-16.788
								l0.792-2.364l0.976-2.987c0.521-1.68,0.894-2.732,0.894-2.732l0.064-0.143c0.012-0.075,0.025-0.149-0.036-0.237
								c0,0,0.005-0.038-0.032-0.044c-0.018-0.118-0.072-0.243-0.135-0.331c-0.142-0.294-0.446-0.538-0.857-0.609l-53.768-9.263
								C347.349,281.392,346.748,281.75,346.651,282.311z"/>
							<path opacity="0.3" fill="#F3C150" d="M364.623,331.421c12.091,2.948,24.441,2.049,28.464-9.793
								c0.128-0.36,9.819-29.491,9.764-29.867c0,0,0.005-0.038-0.032-0.044c-0.063-0.401-0.429-0.844-0.992-0.94l-37.066-6.385
								c-0.484-0.084-0.999,0.444-1.114,1.116C363.646,285.508,349.038,325.722,364.623,331.421z"/>
							<path opacity="0.3" fill="#E98BAB" d="M346.624,282.296l-0.117,2.252l-0.015,0.364l55.57,9.573l0.828-2.496
								c0.095-0.55-0.385-1.095-1.074-1.214l-53.773-9.263C347.354,281.394,346.719,281.746,346.624,282.296z"/>
						</g>
					</g>
					<g>
						<g>
							<path fill="#FBDDB0" d="M301.878,121.944c-0.007,0.038-0.007,0.038-0.013,0.075c3.03,21.435,10.65,42.7,44.928,105.694
								c1.168,1.928,2.259,3.858,0.752,1.438c2.324,4.289,9.35,16.922,12.478,20.924c38.14,6.57,24.83,4.277,41.065,7.074
								c5.571-3.939,12.409-9.889,17.8-14.669c-0.094,0.098-0.143,0.167-0.194,0.235c6.918-5.951,42.005-39.371,44.079-41.692
								c0,0,23.048-20.985,34.175-41.82c0.002-0.012,0.306-0.607,0.358-0.746c0.449-0.926,0.638-1.055,1.091-2.081
								c0.044-0.032,0.05-0.069,0.101-0.137c0,0,0.525-1.047,0.529-1.063l0.058-0.106c0.005-0.037,0.005-0.037,0.012-0.075
								c13.701-27.407,12.949-43.899,13.593-47.635l-0.025,0.149c0.68-19.231-4.019-35.858-6.215-38.968
								c-0.004-0.029-1.098-2.243-1.109-2.269c-0.087-0.168-0.148-0.255-0.173-0.337c-0.024-0.081-0.024-0.081-0.024-0.081
								c-8.679-16.846-21.548-27.681-27.223-31.814c-0.137-0.101-0.272-0.201-0.379-0.258c-0.03-0.044-0.099-0.094-0.174-0.107
								c-0.104-0.067-0.831-0.59-0.925-0.659c-0.031-0.044-0.1-0.094-0.174-0.107c-3.169-2.333-11.149-7.047-18.482-10.417
								c-0.098-0.093-0.241-0.157-0.354-0.176c-16.09-8.949-56.331-19.309-93.216-8.748c0.206-0.08,0.449-0.154,0.655-0.234
								c-2.079,0.628-3.112,0.922-3.121,0.925c0.119-0.018,0.201-0.043,0.318-0.061c-13.849,4.172-26.463,11.002-36.443,21.039
								C297.943,61.842,298.448,110.476,301.878,121.944z"/>
							<path fill="#EF8664" d="M477.819,33.947c0.039,0.006,0.068,0.05,0.063,0.088c0.04,0.006,0.071,0.012,0.112,0.019
								C477.963,34.01,477.888,33.997,477.819,33.947z"/>
							<path fill="#EF8664" d="M476.342,32.923c0,0-0.037-0.007-0.074-0.013c-0.063-0.087-0.131-0.138-0.199-0.188
								C476.175,32.778,476.236,32.866,476.342,32.923z"/>
						</g>
						<g>
							<path fill="#FDEDF3" d="M372.577,252.239l15.544,2.677c-0.066-0.28-0.128-0.599-0.188-0.917
								c-0.566-2.751-0.788-5.253-1.627-9.321c-0.454-2.271-1.137-5.006-2.185-8.533c-0.22-0.73-0.441-1.461-0.691-2.235
								c-0.504,0.683-0.97,1.372-1.434,2.062c-5.591,8.116-6.82,11.675-8.828,15.292
								C372.962,251.574,372.785,251.928,372.577,252.239z"/>
							<path fill="#F3C150" d="M320.636,176.538c0.223,0.5,0.481,1.007,0.702,1.506c1.147,2.275,2.281,4.626,3.373,6.776
								c6.641,13.494,14.806,29.521,22.082,42.893c0.476,0.813,0.945,1.663,1.438,2.595c-0.204-0.381-0.444-0.77-0.687-1.156
								c0.759,1.4,1.587,2.851,2.611,4.719c2.179,3.877,7.155,12.737,9.866,16.205c0,0,0.038,0.006,1.645,0.283l10.91,1.88
								c0.208-0.311,0.385-0.665,0.592-0.976c2.95-5.07,5.598-10.385,8.828-15.292c0.464-0.69,0.93-1.379,1.434-2.062
								c0.226,0.692,0.446,1.424,0.691,2.235c0.58,2.216,1.126,4.849,1.698,7.563c0.078,0.437,0.163,0.836,0.241,1.273
								c0.602,2.989,1.188,6.053,1.773,8.693c0.019,0.118,0.043,0.2,0.099,0.325c0.06,0.318,0.121,0.637,0.188,0.917l11.098,1.912
								c1.196,0.206,1.869,0.322,1.869,0.322c0.438-0.31,0.875-0.618,1.356-0.958c5.063-3.707,12.447-10.167,16.443-13.71
								c-0.094,0.098-0.143,0.167-0.194,0.235c2.123-1.827,22.848-20.957,41.108-38.741l0.783-0.75l0.558-0.559
								c0.044-0.03,0.193-0.235,0.193-0.235l0.277-0.261l0.369-0.359l0.563-0.596c-1.045,0.936-2.135,1.902-3.188,2.875
								c-1.904,1.673-3.846,3.339-5.837,5.073c-0.945,0.799-1.891,1.599-2.843,2.434c-1.572,1.307-3.188,2.645-4.847,4.014
								c-1.842,1.529-3.676,3.021-5.51,4.514c-3.263,2.631-6.563,5.255-9.848,7.806c-2.549,2.062-5.121,4.043-7.601,5.924
								c-1.646,1.294-3.241,2.519-4.831,3.707c-0.32,0.292-0.671,0.54-1.021,0.786c-1.203,0.948-2.392,1.82-3.536,2.661
								c-7.568,5.738-13.25,9.914-14.966,11.158c-0.306,0.217-0.519,0.334-0.525,0.371c1.612-4.224,2.771-8.487,3.511-12.785
								c0.875-5.082,1.14-10.191,0.763-15.372c0.003-0.462-0.038-0.892-0.073-1.36c-0.805-10.065-3.885-20.33-9.302-30.65
								c-0.462-0.887-0.956-1.819-1.456-2.713c-0.24-0.388-0.438-0.806-0.679-1.194c-0.088,0.062-0.138,0.129-0.227,0.191
								c-7.229,6.68-28.249,26.413-26.409,58.163l-0.557-0.789c-0.277-0.394-0.619-0.875-1.082-1.534
								c-0.402-0.568-0.822-1.257-1.316-1.958c-2.14-3.215-5.387-8.045-9.17-13.775c-0.551-0.826-1.1-1.652-1.644-2.515
								c-1.095-1.689-2.22-3.421-3.37-5.235c-4.642-7.225-9.659-15.169-14.285-22.93c-1.082-1.763-2.119-3.558-3.132-5.271
								c-2.322-3.939-4.471-7.772-6.359-11.33C322.271,179.782,321.4,178.132,320.636,176.538z"/>
							<path fill="#FDEDF3" d="M301.878,121.944c-0.007,0.038-0.007,0.038-0.013,0.075l0.156,1.104
								c0.548,3.519,1.191,6.938,2.184,10.996c3.76,15.921,9.316,27.882,17.133,43.925c-0.221-0.499-0.479-1.006-0.702-1.506
								c0.765,1.594,1.635,3.244,2.572,4.944c1.889,3.558,4.037,7.39,6.359,11.33c1.013,1.714,2.05,3.508,3.132,5.271
								c4.626,7.761,9.644,15.705,14.285,22.93c1.15,1.814,2.275,3.546,3.37,5.235c0.544,0.862,1.093,1.689,1.644,2.515
								c3.616,5.586,6.824,10.409,9.17,13.775c0.494,0.701,0.914,1.39,1.316,1.958c0.463,0.658,0.805,1.14,1.082,1.534l0.557,0.789
								c-0.052-23.593,10.347-42.193,26.409-58.163c0.089-0.063,0.139-0.129,0.227-0.191c0.241,0.388,0.438,0.806,0.679,1.194
								c0.5,0.894,0.994,1.826,1.456,2.713c5.482,10.833,8.189,20.802,8.503,31.707c-0.002,0.46,0.034,0.929,0.025,1.426
								c0.093,8.173-1.109,16.93-3.427,27.035l0.525-0.371c1.716-1.244,7.397-5.42,14.966-11.158
								c1.145-0.841,2.303-1.758,3.536-2.661c0.35-0.247,0.7-0.495,1.021-0.786c1.551-1.194,3.153-2.457,4.831-3.707
								c2.448-1.925,5.021-3.906,7.601-5.924c3.249-2.557,6.585-5.175,9.848-7.806c1.834-1.494,3.668-2.985,5.51-4.514
								c1.658-1.369,3.274-2.707,4.847-4.014c0.952-0.835,1.897-1.635,2.843-2.434c2.11-1.752,4.058-3.456,5.837-5.073
								c1.053-0.973,2.143-1.94,3.188-2.875l-0.563,0.596c0.275-0.26,0.551-0.521,0.79-0.788c0.007-0.037,0.05-0.067,0.094-0.098
								c11.193-10.923,23.59-23.253,33.91-41.405c0.058-0.105,0.113-0.211,0.171-0.317c0.007-0.038,0.013-0.075,0.063-0.143
								c0.112-0.211,0.226-0.422,0.295-0.603c0.102-0.136,0.165-0.279,0.22-0.384c0.058-0.107,0.114-0.211,0.178-0.354
								c0.271-0.454,0.503-0.914,0.693-1.342c0.044-0.032,0.05-0.069,0.101-0.137c0.013-0.075,0.063-0.143,0.112-0.211
								c0.113-0.211,0.227-0.423,0.304-0.641c0.057-0.105,0.106-0.173,0.113-0.21c-12.544,18.769-15.73,18.95-69.961,60.393
								c-0.803,0.632-1.635,1.219-2.436,1.851c-0.663,0.501-1.365,0.997-2.034,1.535c1.806-7.806,1.546-16.123-0.074-24.367
								c-0.06-0.317-0.12-0.636-0.182-0.954c-4.531-22.827-18.741-45.089-24.58-54.52c-0.241-0.388-0.482-0.775-0.722-1.164
								c-1.078,0.892-2.161,1.821-3.32,2.737c-0.719,0.607-1.446,1.251-2.216,1.927c-19.289,16.375-41.596,37.771-43.547,61.828
								c-0.027,0.611-0.094,1.215-0.115,1.789c-41.189-61.959-43.942-62.279-47.683-82.776
								C302.047,122.974,301.981,122.462,301.878,121.944z"/>
							<path fill="#F3C150" d="M301.782,121.389l0.036,0.237c0.018,0.119,0.036,0.237,0.06,0.318
								c0.104,0.518,0.169,1.029,0.279,1.511c3.477,20.912,9.276,28.337,47.683,82.776c0.021-0.573,0.088-1.178,0.115-1.789
								c2.316-20.146,26.146-46.357,43.547-61.828c0.77-0.675,1.497-1.32,2.216-1.927c1.135-0.997,2.218-1.926,3.289-2.781
								c0.271,0.432,0.512,0.819,0.753,1.208c9.662,16.053,20.005,36.418,23.928,55.407c0.061,0.318,0.121,0.637,0.181,0.956
								c1.695,8.255,2.094,16.211,0.689,23.471c0.707-0.532,1.371-1.034,2.072-1.528c0.801-0.631,1.633-1.219,2.436-1.851
								c45.131-33.508,54.276-33.894,69.848-60.183c0.057-0.105,0.106-0.173,0.113-0.21c0.05-0.068,0.05-0.068,0.058-0.106
								c0.005-0.037,0.005-0.037,0.012-0.075c6.742-13.458,10.109-24.959,11.849-33.277c0.335-1.714,0.611-3.32,0.818-4.746
								c0.412-2.392,0.604-4.398,0.749-5.912c0,0,0.007-0.037,0.014-0.074c0.013-0.075-0.006-0.193,0.007-0.268
								c0.075-1.103,0.143-1.939,0.126-2.518c0.013-0.075-0.004-0.194,0.009-0.269c0.008-0.268,0.002-0.461,0.021-0.573
								l-0.025,0.149c-0.007,0.037-0.007,0.037-0.014,0.075l-0.109,0.635c-0.694,4.036-1.731,8.05-3.352,12.081
								c-0.384,0.896-0.775,1.828-1.198,2.717c-3.242,6.982-8.337,14.222-16.497,22.511c-0.896,0.961-1.869,1.91-2.884,2.89
								c-4.994,4.872-10.267,9.35-15.308,13.368c-0.801,0.632-1.603,1.264-2.402,1.895c-4.458,3.542-9.447,7.261-14.935,11.202
								c-0.758-7.441-2.339-14.562-5.066-21.957c-0.056-0.126-0.104-0.287-0.16-0.413c-6.532-17.245-19.354-35.729-41.908-61.353
								c-0.547-0.632-1.06-1.221-1.574-1.81c-2.169,1.204-4.508,2.493-6.946,3.919c-21.046,11.841-52.776,30.768-63.891,55.746
								c-0.379,0.858-0.751,1.679-1.092,2.544c-0.057,0.105-0.12,0.249-0.14,0.36c-0.277,0.722-0.524,1.487-0.766,2.215
								c-5.906-8.597-11.822-17.581-16.946-26.696c-0.907-1.656-1.809-3.351-2.679-5.001c-1.388-2.663-2.688-5.387-3.907-8.137
								c-0.689-1.581-1.342-3.156-1.95-4.761c-3.622-9.126-5.792-18.195-5.601-26.896c0.004-0.691,0.045-1.377,0.086-2.063
								c0.01-0.729,0.064-1.488,0.186-2.199c0.218-2.155,0.584-4.285,1.169-6.338c-0.717,2.376-1.315,4.735-1.924,7.593
								C299.804,94.231,299.95,107.454,301.782,121.389z"/>
							<path fill="#FDEDF3" d="M303.611,78.382c-0.084,0.717-0.176,1.47-0.186,2.199c-0.646,10.893,2.551,22.485,7.464,33.72
								c1.219,2.75,2.52,5.474,3.907,8.137c0.87,1.65,1.771,3.345,2.679,5.001c5.388,9.816,11.546,18.956,16.908,26.69
								c0.24-0.728,0.526-1.486,0.804-2.208c0.02-0.112,0.083-0.255,0.14-0.36c0.341-0.865,0.713-1.686,1.092-2.544
								c10.777-22.805,41.904-43.143,63.891-55.746c2.438-1.426,4.777-2.716,6.946-3.919c0.515,0.588,1.027,1.177,1.574,1.81
								c8.027,9.232,18.33,22.011,27.272,36.209c5.383,8.506,10.252,17.54,13.93,26.561c2.83,7.029,4.923,14.083,5.895,20.946
								c4.727-3.534,10.87-7.938,17.375-13.09c5.041-4.018,10.313-8.496,15.308-13.368c7.776-7.625,14.868-16.175,19.381-25.401
								c0.423-0.889,0.814-1.822,1.198-2.717c1.75-4.124,2.982-8.374,3.461-12.716c0.018,0.118,0.037,0.236,0.018,0.349
								c0.008-0.268,0.002-0.461,0.021-0.573l-0.025,0.149c0.715-20.23-3.759-33.35-6.13-38.799
								c-0.029-0.044-0.054-0.125-0.085-0.169c-0.019-0.119-0.08-0.206-0.142-0.294c-0.111-0.249-0.321-0.593-0.481-1.005
								c-0.172-0.338-0.376-0.719-0.486-0.97c-0.087-0.168-0.148-0.255-0.173-0.337c0.249,0.613,0.393,1.219,0.602,1.83
								c2.204,7.139,2.823,15.498-2.234,26.06c-0.098,0.2-0.187,0.405-0.288,0.605c-0.324,0.654-0.677,1.32-1.046,1.992
								c-0.564,1.012-1.132,2.022-1.767,3.017c-0.434,0.733-0.905,1.46-1.414,2.18c-0.371,0.591-0.773,1.136-1.219,1.714
								c-0.615,0.895-1.306,1.775-2.04,2.688c-4.639,5.935-10.957,12.463-19.438,19.697c-3.403-6.818-7.2-13.359-11.752-19.992
								c-0.358-0.6-0.76-1.169-1.163-1.74c-0.952-1.394-1.979-2.803-3.006-4.211c-4.777-6.44-9.918-12.558-14.954-18.158
								c-2.807-3.138-5.83-6.353-9.029-9.674c0.006-0.037-0.031-0.043-0.068-0.05c-0.818-0.833-1.637-1.667-2.448-2.538
								c-0.843-0.915-1.698-1.754-2.561-2.558c-1.185-1.166-2.362-2.368-3.578-3.579c-0.266-0.238-0.532-0.476-0.763-0.708
								c-3.979-3.917-8.239-7.999-12.817-12.249c-2.368,1.015-4.861,2.085-7.447,3.257c-34.848,15.35-58.014,28.556-73.507,45.24
								c-0.702,0.725-1.36,1.42-1.988,2.158c-5.147-12.774-16.735-32.161-13.717-49.687c0.578-3.352,1.696-6.638,3.495-9.794
								c0.47-0.813,0.954-1.621,1.512-2.406c0.214-0.305,0.458-0.602,0.687-0.904c0.742-0.969,1.514-1.93,2.404-2.853l-0.646,0.62
								c-0.841,0.856-1.649,1.756-2.747,2.99c-8.137,9.487-13.952,20.912-17.415,32.972l-0.033,0.188
								C304.196,74.097,303.829,76.227,303.611,78.382z"/>
							<path fill="#F3C150" d="M331.239,100.917c0.628-0.738,1.286-1.433,1.988-2.158c17.366-18.169,49.831-34.66,73.507-45.24
								c2.586-1.171,5.079-2.242,7.41-3.263c1.768,1.805,6.562,6.131,12.854,12.255c0.23,0.232,0.497,0.471,0.763,0.708
								c1.154,1.123,2.332,2.325,3.578,3.579c0.862,0.803,1.718,1.643,2.561,2.558c0.824,0.796,1.643,1.63,2.448,2.538
								c0.037,0.007,0.074,0.013,0.068,0.05c2.943,3.009,5.969,6.223,9.029,9.674c5.036,5.6,10.177,11.718,14.954,18.158
								c1.027,1.408,2.054,2.817,3.006,4.211c0.41,0.533,0.811,1.102,1.176,1.665c4.497,6.507,8.53,13.243,11.739,20.066
								c6.804-5.984,13.79-12.59,19.438-19.697c0.727-0.875,1.386-1.799,2.04-2.688c0.445-0.578,0.848-1.123,1.219-1.714
								c0.509-0.72,0.98-1.447,1.414-2.18c0.645-1.026,1.224-2.028,1.767-3.017c0.367-0.66,0.711-1.324,1.046-1.992
								c0.102-0.205,0.192-0.403,0.288-0.605c3.986-8.215,5.35-16.958,2.234-26.06c-0.19-0.619-0.391-1.229-0.602-1.83
								c-0.03-0.044-0.03-0.044-0.024-0.081c-8.71-16.89-21.579-27.725-27.26-31.82c-0.1-0.095-0.235-0.195-0.342-0.252
								c-0.03-0.044-0.099-0.094-0.174-0.107c-0.242-0.157-0.478-0.351-0.72-0.509c-0.068-0.049-0.137-0.1-0.205-0.15
								c-0.031-0.044-0.1-0.094-0.174-0.107c-0.273-0.201-0.584-0.409-0.9-0.579c-0.454-0.271-0.499-0.239-0.021,0.112
								c6.233,4.69,11.183,9.467,13.971,14.718c0.21,0.344,0.376,0.72,0.505,1.087c0.24,0.388,0.407,0.763,0.528,1.169
								c0.278,0.625,0.48,1.236,0.639,1.879c0.546,1.749,0.811,3.564,0.831,5.453c0.038,6.701-3.264,14.48-11.163,23.931
								c-2.223-2.73-3.015-3.713-18.358-18.051c-8.676-8.152-22.004-20.565-42.86-39.972
								c-64.183,25.725-64.183,25.725-77.245,34.324c-2.328-7.25-4.212-14.846-3.01-21.833c1.256-7.286,5.897-13.913,16.97-18.775
								c0.537-0.216,1.081-0.468,1.655-0.677c0.501-0.222,1.031-0.4,1.605-0.608c0.744-0.296,1.519-0.547,2.291-0.798
								c-1.99,0.619-4.195,1.354-5.507,1.821c-11.261,4.178-21.917,10.421-30.573,19.126c-0.895,0.97-1.678,1.924-2.409,2.889
								c-0.23,0.301-0.471,0.599-0.687,0.904c-0.557,0.791-1.05,1.595-1.512,2.406C311.023,58.75,320.528,82.025,331.239,100.917z"
								/>
							<path fill="#FADB9F" d="M411.698,9.744c0.112,0.02,0.23,0.001,0.38,0.027C411.929,9.745,411.815,9.725,411.698,9.744z"/>
							<path fill="#FDEDF3" d="M342.193,56.982c11.447-6.146,12.903-7.896,77.245-34.324c15.729,17.446,30.965,31.074,43.359,41.982
								c6.979,6.165,13.071,11.447,17.852,16.079c7.86-8.765,11.343-16.707,11.171-23.969c-0.026-1.852-0.33-3.673-0.831-5.453
								c-0.194-0.649-0.397-1.26-0.639-1.879c-0.128-0.369-0.288-0.781-0.528-1.169c-0.129-0.368-0.295-0.743-0.505-1.087
								c-2.336-4.75-6.451-9.229-11.951-13.485c-0.242-0.157-0.478-0.351-0.72-0.509c-0.068-0.049-0.137-0.1-0.205-0.15
								c-0.031-0.044-0.1-0.094-0.174-0.107c-0.273-0.201-0.584-0.409-0.9-0.579c-6.068-4.084-12.091-7.314-17.582-9.839
								c-0.098-0.093-0.241-0.157-0.354-0.176c-14.406-6.598-25.447-8.616-26.494-8.796c26.237,6.713,39.53,15.313,39.325,26.55
								c0.019,0.119,0.03,0.274-0.034,0.417c-0.029,1.072-0.21,2.118-0.478,3.227c-8.219-6.341-17.295-11.944-26.11-17.502
								c-7.634-4.816-15.045-9.594-21.492-14.821c-0.081,0.023-0.155,0.011-0.2,0.042c-15.688,3.298-35.26,7.468-52.899,13.163
								c-1.262,0.398-2.559,0.791-3.827,1.226c0.077-0.679,0.225-1.308,0.446-1.924c0.141-0.591,0.355-1.169,0.608-1.742
								c0.139-0.36,0.277-0.721,0.485-1.032c3.875-7.527,13.608-11.544,29.076-11.997c-2.27-0.005-4.514,0.069-6.778,0.257
								c-8.398,0.515-16.79,1.878-24.844,4.184c0.206-0.08,0.449-0.154,0.655-0.234l-0.893,0.27
								c-0.368,0.129-0.73,0.221-1.055,0.318c-0.288,0.104-0.567,0.172-0.855,0.276c-0.893,0.269-1.792,0.576-2.654,0.89
								c-0.53,0.178-1.104,0.387-1.605,0.608c-0.574,0.208-1.118,0.461-1.655,0.677C339.041,23.698,334.199,35.944,342.193,56.982z"
								/>
							<path fill="#F3C150" d="M365.222,25.822c1.269-0.436,2.565-0.828,3.827-1.226c17.445-5.228,35.122-7.569,52.899-13.163
								c0.045-0.032,0.119-0.019,0.163-0.049c8.344,7.169,15.886,12.97,24.631,18.708c6.665,4.418,14.071,8.772,22.971,13.615
								c0.306-1.103,0.492-2.186,0.516-3.221c0.064-0.143,0.053-0.299,0.034-0.417c0.435-7.658-4.901-13.31-12.478-17.578
								c-0.098-0.093-0.241-0.157-0.354-0.176c-8.216-4.57-18.945-7.496-27.973-9.589c-2.554-0.594-4.962-1.125-7.153-1.579
								c-3.108-0.497-6.751-1.01-10.607-1.405c-0.23-0.001-0.493-0.046-0.754-0.091c-0.156,0.012-0.269-0.008-0.418-0.033
								c-6.891-0.648-14.493-0.958-21.467-0.235c-9.991,1.049-18.704,4.28-22.298,11.74c-0.208,0.311-0.347,0.672-0.485,1.032
								c-0.246,0.535-0.468,1.151-0.608,1.742C365.485,24.521,365.338,25.149,365.222,25.822z"/>
						</g>
						<path opacity="0.3" fill="#E98BAB" d="M379.266,253.391c8.703,1.499,13.117,2.259,21.822,3.759
							c5.577-3.943,12.509-9.977,17.8-14.669c-0.094,0.098-0.143,0.167-0.194,0.235c6.914-5.949,42.004-39.369,44.079-41.692
							c0,0,23.148-21.174,34.175-41.82c0.002-0.012,0.306-0.607,0.397-0.739c0.382-0.869,0.616-1.102,1.052-2.088
							c0.044-0.032,0.05-0.069,0.101-0.137c0.002-0.015,0.513-0.97,0.535-1.1c0.036-0.025,0.041-0.013,0.106-0.174
							c13.514-27.086,12.782-42.928,13.426-46.665c-0.019-0.118-0.004-0.193,0.002-0.23l-0.026,0.149
							c0.712-19.465-3.987-36.232-6.156-39.303c0,0-0.62-1.271-0.764-1.594c0,0-0.333-0.698-0.333-0.75
							c-0.094-0.131-0.154-0.219-0.203-0.381c-10.083-19.728-23.848-29.066-27.146-32.031c-0.09-0.066-0.314-0.247-0.416-0.265
							c-0.031-0.043-0.1-0.094-0.175-0.106c-0.104-0.067-0.808-0.572-0.925-0.66c-0.032-0.043-0.068-0.049-0.1-0.093
							c-0.105-0.057-0.167-0.144-0.273-0.201c0.069,0.05,0.138,0.101,0.199,0.188c-6.85-5.042-14.946-8.603-18.468-10.492
							c-0.1-0.094-0.242-0.156-0.355-0.176c-6.853-4.216-20.145-7.814-27.966-9.627c52.441,40.656,41.977,117.428,4.557,169.184
							c0,0-0.074-0.013-0.23-0.001c-0.267,0.366-9.606,13.236-9.917,13.567c-0.285,0.531-12.014,16.198-12.376,16.681
							c0.112,0.019,0.156-0.012,0.156-0.012C397.076,231.243,391.809,237.978,379.266,253.391z"/>
						<g>
							<g opacity="0.5">
								<path fill="#FFFFFF" d="M411.376,77.49c5.274-9.813,10.47-20.82,3.267-31.668c-8.015-12.072-30.378-19.889-48.957-18.955
									c-18.579,0.935-32.935,9.187-40.173,19.627s-8.211,22.864-7.19,35.183c1.616,19.502,8.088,39.419,18.953,58.792
									c6.396,11.4,17.547,35.297,34.566,42.085c8.749-9.833,2.994-26.616,5.832-38.34
									C383.305,120.952,399.759,99.104,411.376,77.49z"/>
							</g>
							<g opacity="0.5">
								<path fill="#FFFFFF" d="M383.336,68.401c3.172-5.894,6.296-12.503,1.973-19.023c-4.811-7.255-18.242-11.958-29.403-11.402
									c-11.161,0.555-19.789,5.508-24.14,11.778c-4.353,6.27-4.94,13.732-4.331,21.133c0.965,11.716,4.846,23.683,11.368,35.324
									c3.837,6.851,17.512,23.482,24.267,2.263C367.43,94.773,371.202,82.195,383.336,68.401z"/>
							</g>
						</g>
					</g>
				</g>
				<g>
					<g>
						<g>
							<path opacity="0.3" fill="#E98BAB" d="M392.33,299.539c-1.038,2.546,0.183,5.453,2.729,6.491s5.453-0.184,6.491-2.73
								c1.039-2.546,1.208-8.86-1.338-9.899C397.665,292.362,393.368,296.992,392.33,299.539z"/>
							<path fill="#FDEDF3" d="M393.42,300.577c-0.767,2.642,0.755,5.403,3.396,6.168c2.641,0.766,5.402-0.755,6.168-3.397
								c0.766-2.641,0.27-8.938-2.373-9.704C397.971,292.88,394.185,297.936,393.42,300.577z"/>
						</g>
						<g>
							<path opacity="0.3" fill="#E98BAB" d="M398.671,303.181c0.887,2.604,3.716,3.996,6.319,3.108
								c2.603-0.887,3.994-3.715,3.107-6.319c-0.887-2.603-4.901-7.479-7.505-6.592S397.784,300.578,398.671,303.181z"/>
							<path fill="#FDEDF3" d="M400.156,303.098c1.164,2.491,4.128,3.566,6.619,2.401c2.492-1.165,3.566-4.129,2.401-6.62
								c-1.164-2.491-5.688-6.9-8.179-5.735C398.508,294.309,398.992,300.606,400.156,303.098z"/>
						</g>
					</g>
					<g>
						<g>
							<path opacity="0.3" fill="#E98BAB" d="M353.14,289.176c-2.028,1.774-2.234,4.856-0.46,6.884s4.855,2.233,6.883,0.459
								c2.027-1.774,4.947-7.23,3.174-9.258C360.962,285.233,355.167,287.402,353.14,289.176z"/>
							<path fill="#FDEDF3" d="M353.637,290.564c-1.831,1.978-1.712,5.064,0.267,6.895c1.979,1.829,5.064,1.71,6.895-0.268
								c1.829-1.978,4.158-7.711,2.182-9.541C361.001,285.821,355.466,288.587,353.637,290.564z"/>
						</g>
						<g>
							<path opacity="0.3" fill="#E98BAB" d="M357.093,295.151c-0.366,2.669,1.501,5.13,4.17,5.496c2.67,0.367,5.13-1.5,5.496-4.17
								s-1.012-8.702-3.68-9.068C360.41,287.042,357.459,292.481,357.093,295.151z"/>
							<path fill="#FDEDF3" d="M358.43,295.729c-0.072,2.693,2.051,4.936,4.744,5.009c2.693,0.074,4.936-2.05,5.009-4.744
								c0.073-2.693-1.953-8.54-4.646-8.613C360.844,287.308,358.503,293.036,358.43,295.729z"/>
						</g>
					</g>
					<g>
						<g>
							<path opacity="0.3" fill="#E98BAB" d="M336.579,283.259c-2.405,1.219-3.367,4.157-2.147,6.562
								c1.219,2.405,4.156,3.367,6.563,2.148c2.404-1.219,6.585-5.789,5.365-8.194C345.141,281.37,338.984,282.04,336.579,283.259z"
								/>
							<path fill="#FDEDF3" d="M336.718,284.729c-2.264,1.465-2.911,4.488-1.444,6.752c1.465,2.264,4.487,2.911,6.751,1.446
								c2.264-1.466,5.939-6.449,4.475-8.713C345.034,281.95,338.982,283.263,336.718,284.729z"/>
						</g>
						<g>
							<path opacity="0.3" fill="#E98BAB" d="M338.937,290.031c-1.016,2.498,0.187,5.346,2.686,6.361
								c2.497,1.016,5.346-0.187,6.361-2.685c1.015-2.498,1.171-8.689-1.327-9.705S339.951,287.533,338.937,290.031z"/>
							<path fill="#FDEDF3" d="M340.09,290.923c-0.736,2.593,0.768,5.294,3.362,6.031c2.594,0.737,5.293-0.768,6.031-3.362
								c0.736-2.593,0.218-8.765-2.376-9.502S340.827,288.329,340.09,290.923z"/>
						</g>
					</g>
				</g>
			</g>
		</g>
	</g>
	<g>
		<g>
			<g>
				<g>
					<g>
						
							<rect x="120.053" y="229.887" transform="matrix(-0.1383 0.9904 -0.9904 -0.1383 376.2152 132.8777)" fill="#DE5B14" width="20.496" height="0.437"/>
					</g>
					<g>
						
							<rect x="153.069" y="216.732" transform="matrix(-0.9737 0.228 -0.228 -0.9737 354.5861 415.527)" fill="#DE5B14" width="0.437" height="23.032"/>
					</g>
					<g>
						
							<rect x="133.951" y="221.156" transform="matrix(-0.9735 0.2285 -0.2285 -0.9735 317.5991 425.3947)" fill="#DE5B14" width="0.436" height="19.862"/>
					</g>
					<g>
						
							<rect x="148.132" y="220.125" transform="matrix(-0.9737 0.2278 -0.2278 -0.9737 345.2059 420.2701)" fill="#DE5B14" width="0.437" height="19.862"/>
					</g>
					<g>
						
							<rect x="140.616" y="229.87" transform="matrix(-0.0429 0.9991 -0.9991 -0.0429 387.7464 88.7289)" fill="#DE5B14" width="21.515" height="0.436"/>
					</g>
					<g>
						
							<rect x="125.784" y="231.014" transform="matrix(-0.0429 0.9991 -0.9991 -0.0429 373.4138 104.7281)" fill="#DE5B14" width="21.516" height="0.435"/>
					</g>
				</g>
			</g>
			<g>
				<path fill="#DE5B14" d="M127.862,240.136l0.174,1.119l0.053,0.379l0.742,4.647c0.003,0.076,1.441,9.162,1.441,9.162
					c0.426,2.77,2.342,5.084,4.988,5.96c1.12,0.379,2.369,0.639,3.673,0.819c0.92,0.12,1.896,0.198,2.85,0.22
					c0.554,0.018,1.088,0.018,1.641-0.002c0.496-0.018,0.99-0.056,1.484-0.111c0.133-0.005,0.248-0.009,0.38-0.033
					c0.457-0.036,0.893-0.109,1.329-0.182c0.588-0.098,1.156-0.214,1.704-0.368c0.416-0.11,0.831-0.221,1.227-0.369
					c2.901-1.002,4.864-3.669,5.23-6.696c0,0,0.075-0.557,0.176-1.438l0.116-0.997c0.258-2.356,0.659-5.995,0.975-8.83l0.146-1.245
					l0.172-1.571c0.082-0.88,0.157-1.437,0.157-1.437c0.015-0.115,0.013-0.153-0.027-0.19c-0.041-0.075-0.081-0.13-0.12-0.167
					c-0.101-0.13-0.275-0.219-0.484-0.211l-27.416,1.003C128.109,239.612,127.851,239.85,127.862,240.136z"/>
				<path opacity="0.3" fill="#E68F90" d="M141.783,262.443c6.255,0.2,12.239-1.519,12.994-7.762
					c0.026-0.19,1.782-15.527,1.714-15.707c-0.091-0.209-0.317-0.389-0.604-0.378l-18.899,0.691
					c-0.248,0.009-0.446,0.322-0.434,0.665C136.555,239.952,133.525,261.25,141.783,262.443z"/>
				<path opacity="0.3" fill="#E68F90" d="M127.847,240.132l0.175,1.121l0.03,0.18l28.334-1.036l0.149-1.314
					c-0.011-0.28-0.303-0.499-0.654-0.486l-27.418,1.003C128.113,239.612,127.837,239.852,127.847,240.132z"/>
			</g>
			<g>
				<g>
					<path opacity="0.3" fill="#C2CE50" d="M149.207,243.107c-0.068,1.121,0.785,2.085,1.905,2.153
						c1.121,0.069,2.085-0.784,2.154-1.905c0.069-1.121-0.692-3.585-1.813-3.653C150.332,239.634,149.276,241.986,149.207,243.107z"
						/>
					<path fill="#F9F0F3" d="M149.764,243.367c0.05,1.122,1,1.991,2.122,1.941c1.121-0.049,1.99-0.999,1.941-2.121
						c-0.05-1.122-1.065-3.492-2.188-3.442C150.518,239.794,149.715,242.245,149.764,243.367z"/>
				</g>
				<g>
					<path opacity="0.3" fill="#C2CE50" d="M152.436,243.13c-0.04,1.122,0.838,2.064,1.959,2.104
						c1.122,0.04,2.064-0.837,2.104-1.959c0.04-1.123-0.784-3.566-1.907-3.606C153.471,239.628,152.476,242.008,152.436,243.13z"/>
					<path fill="#F9F0F3" d="M153.015,243.314c0.083,1.12,1.058,1.96,2.177,1.878c1.12-0.083,1.961-1.058,1.878-2.177
						c-0.083-1.12-1.168-3.459-2.288-3.376C153.662,239.721,152.932,242.194,153.015,243.314z"/>
				</g>
				<g>
					<path opacity="0.3" fill="#C2CE50" d="M137.615,243.705c-0.069,1.121,0.784,2.085,1.905,2.154
						c1.12,0.069,2.084-0.785,2.153-1.905c0.068-1.121-0.692-3.585-1.813-3.654C138.74,240.23,137.684,242.584,137.615,243.705z"/>
					<path fill="#F9F0F3" d="M138.172,243.964c0.05,1.122,0.999,1.99,2.121,1.941c1.122-0.05,1.991-1,1.941-2.121
						c-0.05-1.122-1.065-3.493-2.187-3.443C138.926,240.391,138.123,242.842,138.172,243.964z"/>
				</g>
				<g>
					<path opacity="0.3" fill="#C2CE50" d="M140.844,243.728c-0.04,1.122,0.838,2.064,1.96,2.104
						c1.122,0.04,2.064-0.837,2.104-1.959c0.04-1.122-0.784-3.566-1.906-3.605C141.879,240.226,140.884,242.605,140.844,243.728z"/>
					<path fill="#F9F0F3" d="M141.423,243.911c0.083,1.12,1.057,1.96,2.177,1.878c1.12-0.083,1.96-1.057,1.878-2.177
						c-0.083-1.12-1.168-3.46-2.288-3.377C142.07,240.318,141.34,242.792,141.423,243.911z"/>
				</g>
				<g>
					<path fill="#F9F0F3" d="M127.612,244.391c0.038,0.94,0.481,1.71,1.05,1.915c0.052,0.022,0.112,0.036,0.167,0.042
						c0.056,0.013,0.115,0.015,0.174,0.013c0.727-0.035,1.274-0.972,1.229-2.097c-0.033-0.762-0.358-2.106-0.793-2.881
						c-0.203-0.361-0.425-0.594-0.655-0.589c-0.236,0.013-0.441,0.262-0.613,0.636c-0.03,0.064-0.059,0.133-0.087,0.208
						C127.767,242.46,127.581,243.684,127.612,244.391z"/>
					<g>
						<path opacity="0.3" fill="#C2CE50" d="M129.333,244.189c-0.011,1.122,0.567,2.074,1.292,2.129
							c0.726,0.054,1.322-0.811,1.333-1.932c0.012-1.121-0.552-3.574-1.277-3.628C129.957,240.703,129.345,243.068,129.333,244.189z
							"/>
						<path fill="#F9F0F3" d="M129.709,244.381c0.068,1.121,0.708,1.974,1.429,1.905c0.723-0.068,1.253-1.031,1.185-2.152
							c-0.068-1.12-0.799-3.473-1.521-3.405C130.081,240.797,129.641,243.261,129.709,244.381z"/>
					</g>
				</g>
			</g>
		</g>
		<g>
			<path fill="#F9F0F3" d="M102.434,188.206c5.268,6.866,22.273,28.468,28.472,34.156l21.299-0.779
				c1.579-1.699,5.114-6.235,9.347-12.037c8.956-12.269,21.138-30.247,25.285-39.956c3.67-9.215,5.449-18.455,5.134-27.066
				c-0.689-18.862-11.363-34.782-33.959-41.281c-4.756-1.2-9.842-2.044-15.231-2.305l0.552-0.02
				c-1.663-0.073-3.304-0.108-4.961-0.047c-2.556,0.016-5.087,0.186-7.575,0.505l0.305-0.01
				C86.31,104.646,69.785,145.732,102.434,188.206z"/>
			<g>
				<path fill="#DE5B14" d="M124.625,215.625c1.835,2.114,4.3,4.915,6.287,6.736c0.002,0,21.3-0.78,21.302-0.78
					c2.101-2.267,4.471-5.416,6.353-7.948c-3.85,0.141-30.349,1.11-34.571,1.265C124.208,215.144,124.417,215.387,124.625,215.625
					L124.625,215.625z"/>
				<path fill="#F9F0F3" d="M114.477,203.462c2.983,3.678,6.411,7.83,9.518,11.436c3.889-0.143,30.698-1.123,34.571-1.265
					c5.088-6.912,9.546-13.379,9.528-13.354c-18.16,0.665-36.22,1.324-54.577,1.996
					C113.838,202.673,114.158,203.069,114.477,203.462L114.477,203.462z"/>
				<path fill="#DE5B14" d="M103.491,189.588c3.14,4.064,6.809,8.703,10.025,12.687c19.631-0.718,36.4-1.331,54.577-1.996
					c3.046-4.413,5.876-8.543,10.03-14.835c-62.541,2.287-63.236,2.313-75.693,2.768
					C102.78,188.667,103.134,189.126,103.491,189.588L103.491,189.588z"/>
				<path fill="#F9F0F3" d="M95.488,178.313c2.508,4.158,4.614,6.868,6.942,9.899c3.492-0.127-11.42,0.417,75.693-2.768
					c3.562-5.439,6.021-9.563,8.718-15.854c-64.423,2.356-66.714,2.44-94.264,3.447C93.458,174.794,94.427,176.555,95.488,178.313
					L95.488,178.313z"/>
				<path fill="#DE5B14" d="M87.03,157.786c1.227,5.332,3.139,10.446,5.547,15.251c18.572-0.679,74.054-2.708,94.264-3.447
					c1.938-4.863,3.629-10.415,4.465-15.925c-11.317,0.414-93.478,3.418-104.346,3.815C86.984,157.583,87.007,157.685,87.03,157.786
					L87.03,157.786z"/>
				<path fill="#F9F0F3" d="M85.514,144.817c0.003,4.158,0.49,8.406,1.447,12.663c12.187-0.446,91.904-3.361,104.346-3.815
					c0.568-4.682,0.913-8.432,0.333-14.763c-12.727,0.466-93.359,3.415-106.09,3.879C85.525,143.455,85.513,144.133,85.514,144.817
					L85.514,144.817z"/>
				<path fill="#DE5B14" d="M86.893,132.996c-0.766,3.13-1.216,6.411-1.342,9.785c12.864-0.47,93.188-3.407,106.09-3.879
					c-0.609-4.32-1.329-8.163-3.237-12.886c-21.624,0.79-81.102,2.966-100.565,3.678C87.484,130.767,87.168,131.869,86.893,132.996
					L86.893,132.996z"/>
				<path fill="#F9F0F3" d="M93.604,118.534c-2.574,3.416-4.454,7.174-5.766,11.16c10.265-0.375,87.707-3.208,100.565-3.678
					c-1.789-4.043-3.75-7.515-6.656-10.811c-10.038,0.367-78.039,2.854-88.062,3.22C93.659,118.461,93.631,118.497,93.604,118.534
					L93.604,118.534z"/>
				<path fill="#DE5B14" d="M100.821,111.186c-2.89,2.44-4.936,4.342-7.135,7.239c9.521-0.348,78.439-2.868,88.062-3.22
					c-3.063-3.247-5.873-5.763-10.562-8.535c-25.143,0.919-42.665,1.56-67.589,2.471
					C102.641,109.792,101.714,110.475,100.821,111.186L100.821,111.186z"/>
				<path fill="#F9F0F3" d="M114.871,103.301c-3.885,1.491-7.721,3.417-11.274,5.84c24.311-0.889,45.078-1.648,67.589-2.471
					c-3.903-2.166-7.513-3.801-13.167-5.432c-13.899,0.508-27.701,1.013-41.687,1.524
					C115.841,102.936,115.354,103.116,114.871,103.301L114.871,103.301z"/>
				<path fill="#DE5B14" d="M125.676,100.201c-3.151,0.625-6.288,1.474-9.345,2.561c14.995-0.548,27.803-1.017,41.687-1.524
					C148.471,98.835,137.536,97.846,125.676,100.201L125.676,100.201z"/>
				<path fill="#F9F0F3" d="M131.327,99.314c-0.175,0.02-0.351,0.042-0.526,0.063c4.597-0.168,8.356-0.305,12.54-0.458
					C139.195,98.712,135.162,98.868,131.327,99.314L131.327,99.314z"/>
			</g>
			<path opacity="0.3" fill="#E68F90" d="M139.135,222.06l13.069-0.478c1.579-1.699,5.114-6.235,9.365-12.056
				c8.938-12.25,21.12-30.228,25.267-39.937c3.67-9.215,5.449-18.455,5.134-27.066c-0.689-18.862-11.363-34.782-33.959-41.281
				c-4.756-1.2-9.842-2.044-15.231-2.305l0.552-0.02c-1.663-0.073-3.304-0.108-4.961-0.047
				c31.05,14.412,33.484,53.336,20.488,82.407c0,0-0.038,0.001-0.113,0.023c-2.364,5.275-5.085,11.193-7.772,17.015
				C148.526,203.422,140.954,218.579,139.135,222.06z"/>
			<g>
				<g opacity="0.5">
					<path fill="#F9F0F3" d="M140.396,133.417c1.583-5.374,3.005-11.325-1.658-15.921c-5.19-5.114-17.002-6.655-26.048-4.278
						s-15.26,7.918-17.746,13.803c-2.485,5.885-1.682,12.099,0.091,18.056c2.807,9.431,8.046,18.565,15.392,26.977
						c4.322,4.951,12.275,15.561,21.351,17.146c3.292-5.742-1.272-13.407-1.084-19.469
						C131.064,157.702,136.909,145.253,140.396,133.417z"/>
				</g>
				<g opacity="0.5">
					<path fill="#F9F0F3" d="M125.633,131.846c0.951-3.229,1.804-6.804-0.997-9.564c-3.117-3.073-10.212-3.998-15.647-2.57
						c-5.435,1.427-9.167,4.756-10.66,8.292c-1.493,3.535-1.01,7.268,0.054,10.847c1.687,5.665,4.834,11.152,9.247,16.206
						c2.597,2.974,11.045,9.744,12.175-1.396C120.534,146.467,121.089,139.889,125.633,131.846z"/>
				</g>
			</g>
		</g>
	</g>
	<g>
		<g>
			<path fill="#3FACC9" d="M298.711,224.229c0.05,0.184-0.674,0.472-1.529,1.319c-0.427,0.42-0.886,0.97-1.303,1.637
				c-0.103,0.168-0.204,0.343-0.299,0.523l-0.14,0.277c-0.019,0.028-0.059,0.127-0.099,0.224l-0.118,0.283
				c-0.164,0.305-0.305,0.965-0.46,1.506c-0.151,0.619-0.305,1.245-0.46,1.879c-0.065,0.267-0.13,0.532-0.195,0.795
				c-0.188-1.075-0.428-2.635-0.639-3.672c-0.053-0.277-0.138-0.421-0.203-0.634l-0.102-0.286l-0.063-0.124
				c-0.076-0.168-0.173-0.318-0.263-0.469c-0.39-0.581-0.896-1.012-1.368-1.341c-0.954-0.654-1.633-1.024-1.562-1.19
				c0.057-0.138,0.816-0.069,1.988,0.449c0.579,0.264,1.272,0.7,1.847,1.419c0.135,0.183,0.274,0.373,0.387,0.583l0.105,0.181
				c0.008,0.011,0.021,0.032,0.021,0.032c0.022-0.04-0.009,0.039,0.044-0.058c0.084-0.148,0.167-0.293,0.248-0.437
				c0.123-0.203,0.252-0.396,0.383-0.58c0.534-0.729,1.134-1.292,1.697-1.679C297.773,224.082,298.693,224.079,298.711,224.229z"/>
		</g>
		<g>
			<path fill="#3FACC9" d="M262.361,166.957c0.048,0.181-0.71,0.478-1.609,1.364c-0.446,0.44-0.936,1.01-1.361,1.716
				c-0.105,0.177-0.211,0.358-0.306,0.551l-0.074,0.144L258.896,171c-0.08,0.198-0.163,0.37-0.245,0.596
				c-0.303,1.043-0.665,2.617-0.945,3.736l-0.047-0.27c-0.12-0.687-0.238-1.365-0.355-2.036c-0.062-0.382-0.126-0.677-0.191-0.972
				c-0.069-0.282-0.115-0.632-0.203-0.848c-0.037-0.124-0.083-0.233-0.129-0.339l-0.078-0.189l-0.14-0.291
				c-0.088-0.193-0.206-0.369-0.307-0.546c-0.443-0.688-0.963-1.241-1.451-1.657c-0.979-0.838-1.738-1.225-1.667-1.401
				c0.048-0.14,0.942-0.05,2.181,0.693c0.615,0.37,1.29,0.936,1.877,1.719c0.137,0.201,0.287,0.404,0.407,0.631
				c0.061,0.112,0.127,0.225,0.185,0.342l0.065,0.143c0.084-0.09,0.142-0.189,0.198-0.288c0.121-0.218,0.256-0.419,0.392-0.613
				c0.546-0.774,1.179-1.358,1.76-1.765C261.389,166.822,262.343,166.808,262.361,166.957z"/>
		</g>
		<g>
			<path fill="#3FACC9" d="M191.372,367.264c0.056,0.205-0.804,0.541-1.822,1.545c-0.505,0.499-1.061,1.145-1.542,1.945
				c-0.12,0.2-0.239,0.406-0.346,0.625l-0.084,0.163l-0.131,0.305c-0.09,0.224-0.186,0.419-0.278,0.675
				c-0.344,1.182-0.753,2.965-1.07,4.233l-0.053-0.305c-0.136-0.779-0.27-1.547-0.402-2.307c-0.069-0.433-0.143-0.768-0.215-1.101
				c-0.079-0.32-0.131-0.716-0.23-0.96c-0.043-0.141-0.095-0.264-0.147-0.385l-0.087-0.214l-0.158-0.329
				c-0.101-0.22-0.233-0.417-0.348-0.619c-0.502-0.779-1.092-1.406-1.644-1.878c-1.11-0.95-1.97-1.388-1.888-1.586
				c0.054-0.159,1.067-0.057,2.47,0.785c0.696,0.419,1.462,1.06,2.127,1.948c0.155,0.228,0.324,0.457,0.461,0.714
				c0.069,0.128,0.145,0.255,0.209,0.389l0.074,0.161c0.095-0.102,0.16-0.214,0.225-0.326c0.137-0.247,0.291-0.475,0.444-0.694
				c0.619-0.877,1.335-1.54,1.995-2C190.272,367.111,191.353,367.095,191.372,367.264z"/>
		</g>
		<g>
			<path fill="#3FACC9" d="M205.017,201.501c0.061,0.225-0.878,0.589-1.973,1.696c-0.545,0.551-1.141,1.262-1.653,2.144
				c-0.129,0.22-0.256,0.447-0.371,0.688l-0.09,0.179l-0.146,0.351c-0.098,0.253-0.201,0.448-0.298,0.757
				c-0.188,0.701-0.382,1.388-0.584,2.263c-0.185,0.76-0.372,1.531-0.562,2.312l-0.071-0.397c-0.151-0.865-0.301-1.72-0.449-2.564
				c-0.077-0.485-0.162-0.808-0.242-1.193c-0.082-0.367-0.151-0.766-0.261-1.034c-0.046-0.153-0.112-0.274-0.167-0.411l-0.078-0.19
				l-0.177-0.357c-0.118-0.237-0.256-0.457-0.39-0.672c-0.558-0.85-1.209-1.531-1.816-2.047c-1.217-1.037-2.157-1.517-2.067-1.734
				c0.059-0.173,1.166-0.059,2.7,0.858c0.761,0.457,1.603,1.149,2.335,2.113c0.177,0.244,0.358,0.498,0.514,0.775l0.235,0.421
				l0.102,0.219c0.098-0.099,0.164-0.214,0.229-0.328c0.147-0.269,0.31-0.521,0.476-0.762c0.659-0.966,1.431-1.699,2.146-2.211
				C203.813,201.334,204.997,201.318,205.017,201.501z"/>
		</g>
		<g>
			<path fill="#3FACC9" d="M228.398,292.146c0.159,0.193-0.768,1.075-2.1,2.482c-0.657,0.712-1.329,1.577-1.878,2.7
				c-0.28,0.558-0.548,1.168-0.805,1.822c-0.104,0.266-0.208,0.534-0.314,0.804c-0.131,0.347-0.263,0.696-0.396,1.049
				c-0.265,0.705-0.534,1.421-0.805,2.145c-0.314-0.722-0.616-1.46-0.913-2.188c-0.154-0.36-0.299-0.745-0.456-1.077
				c-0.112-0.222-0.224-0.442-0.334-0.661c-0.324-0.59-0.667-1.139-1.04-1.626c-0.749-0.972-1.583-1.726-2.349-2.308
				c-1.542-1.158-2.635-1.796-2.524-2.023c0.087-0.186,1.332,0.051,3.17,1.036c0.911,0.497,1.955,1.252,2.891,2.321
				c0.468,0.534,0.891,1.146,1.28,1.805l0.138,0.252c0.031,0.059,0.033,0.06,0.033,0.06c0.017-0.006,0.111-0.218,0.111-0.218
				c0.292-0.676,0.611-1.326,0.965-1.929c0.693-1.22,1.609-2.181,2.419-2.821C227.129,292.492,228.266,291.983,228.398,292.146z"/>
		</g>
	</g>
	<path fill="#C8E7F2" d="M490.208,415.928c1.237,24.151-38.766,35.968-40.608,8.172C447.902,398.51,488.688,386.235,490.208,415.928
		z"/>
	<path fill="#C8E7F2" d="M526.367,378.365c0.063,0.977-0.012,1.947-0.202,2.892c-1.076,5.336-5.895,9.881-11.396,10.417
		c-9.17,0.891-10.638-11.571-7.295-17.787C512.549,364.448,525.629,366.537,526.367,378.365z"/>
	<g>
		<defs>
			<path id="SVGID_3_" d="M490.208,415.928c1.237,24.151-38.766,35.968-40.608,8.172
				C447.902,398.51,488.688,386.235,490.208,415.928z"/>
		</defs>
		<clipPath id="SVGID_4_">
			<use xlink:href="#SVGID_3_"  overflow="visible"/>
		</clipPath>
		<g opacity="0.4" clip-path="url(#SVGID_4_)">
			<path fill="#FFFFFF" d="M326.002,355.556c8.492,9.688,21.219,14.521,33.751,17.504c42.417,10.097,86.726,2.929,130.147-1.051
				c7.612-0.699,15.544-1.254,22.662,1.531c7.119,2.786,13.131,9.934,12.039,17.5c-1.334,9.251-11.657,14.041-20.735,16.258
				c-16.218,3.96-33.147,4.983-49.724,3.006c-24.275-2.896-47.727-12.144-72.174-12.366c-31.553-0.287-62.368,14.512-93.696,10.753
				c-8.949-1.074-18.231-3.996-24.056-10.873c-4.121-4.865-6.111-11.241-10.168-16.158c-8.826-10.698-25.476-11.734-38.298-6.449
				c-12.823,5.284-22.86,15.469-33.008,24.922c-10.147,9.454-21.403,18.741-35.005,21.447c-23.555,4.688-50.103-6.839-74.018-7.602
				c-22.226-0.708-48.894,7.744-61.262-16.188c-13.739-26.585-8.744-61.274,9.983-83.849
				c38.643-46.583,134.17-55.176,179.223-13.386c19.931,18.489,30.959,32.963,60.638,33.388c11.73,0.167,23.871-2.755,35.531-0.561
				C312.275,336.103,316.975,345.255,326.002,355.556z"/>
		</g>
	</g>
	<g>
		<defs>
			<path id="SVGID_5_" d="M526.367,378.365c0.063,0.977-0.012,1.947-0.202,2.892c-1.076,5.336-5.895,9.881-11.396,10.417
				c-9.17,0.891-10.638-11.571-7.295-17.787C512.549,364.448,525.629,366.537,526.367,378.365z"/>
		</defs>
		<clipPath id="SVGID_6_">
			<use xlink:href="#SVGID_5_"  overflow="visible"/>
		</clipPath>
		<g opacity="0.4" clip-path="url(#SVGID_6_)">
			<path fill="#FFFFFF" d="M326.002,355.556c8.492,9.688,21.219,14.521,33.751,17.504c42.417,10.097,86.726,2.929,130.147-1.051
				c7.612-0.699,15.544-1.254,22.662,1.531c7.119,2.786,13.131,9.934,12.039,17.5c-1.334,9.251-11.657,14.041-20.735,16.258
				c-16.218,3.96-33.147,4.983-49.724,3.006c-24.275-2.896-47.727-12.144-72.174-12.366c-31.553-0.287-62.368,14.512-93.696,10.753
				c-8.949-1.074-18.231-3.996-24.056-10.873c-4.121-4.865-6.111-11.241-10.168-16.158c-8.826-10.698-25.476-11.734-38.298-6.449
				c-12.823,5.284-22.86,15.469-33.008,24.922c-10.147,9.454-21.403,18.741-35.005,21.447c-23.555,4.688-50.103-6.839-74.018-7.602
				c-22.226-0.708-48.894,7.744-61.262-16.188c-13.739-26.585-8.744-61.274,9.983-83.849
				c38.643-46.583,134.17-55.176,179.223-13.386c19.931,18.489,30.959,32.963,60.638,33.388c11.73,0.167,23.871-2.755,35.531-0.561
				C312.275,336.103,316.975,345.255,326.002,355.556z"/>
		</g>
	</g>
</g>
</svg>
