<svg width="508" height="541" viewBox="0 0 508 541" fill="none" xmlns="http://www.w3.org/2000/svg">
<path d="M53.1261 234.519C61.4788 191.111 57.8727 178.528 35.3313 146.034C16.9886 120.805 10.439 101.111 16.4152 68.1561C20.1997 46.3889 28.5906 22.7094 39.8485 0H555V481.726C523.201 484.958 488.548 504.834 462.617 518.017C406.226 547.272 349.668 554.949 299.514 502.789C282.739 485.851 275.66 459.352 258.738 443.74C237.401 422.448 206.685 423.829 177.677 429.782C174.447 430.445 171.236 431.178 168.057 431.918C134.652 438.995 110.015 440.725 110.015 440.725C24.0543 447.195 5.64142 379.046 5.60957 378.948C-0.124532 355.457 -4.17025 323.242 7.47634 302.836C22.9393 273.825 45.6463 269.951 53.1261 234.519Z" fill="url(#paint0_linear_2_510)"/>
<defs>
<linearGradient id="paint0_linear_2_510" x1="277.5" y1="541" x2="560" y2="-65" gradientUnits="userSpaceOnUse">
<stop stop-color="#FFA625"/>
<stop offset="0.998416" stop-color="#FFD496"/>
</linearGradient>
</defs>
</svg>
