<svg width="568" height="232" viewBox="0 0 568 232" fill="none" xmlns="http://www.w3.org/2000/svg">
<path d="M513.421 -55.2331C504.843 -95.9161 508.553 -107.709 531.704 -138.162C550.562 -161.807 557.308 -180.265 551.151 -211.124C547.264 -231.524 538.646 -253.717 527.077 -275H-2.00006V176.45C30.6648 179.478 66.2547 198.099 92.88 210.461C150.79 237.88 208.882 245.068 260.392 196.19C277.621 180.309 284.891 155.481 302.27 140.849C324.184 120.887 355.724 122.188 385.523 127.768C388.843 128.391 392.136 129.058 395.404 129.769C429.705 136.401 455.015 138.017 455.015 138.017C543.292 144.087 562.209 80.2174 562.235 80.1193C568.125 58.1099 572.286 27.9185 560.325 8.78702C544.45 -18.4026 521.129 -22.026 513.421 -55.2331Z" fill="url(#paint0_linear_7_1271)"/>
<defs>
<linearGradient id="paint0_linear_7_1271" x1="419.332" y1="-337.175" x2="91.7073" y2="230.532" gradientUnits="userSpaceOnUse">
<stop stop-color="#FFAB31"/>
<stop offset="1" stop-color="#FBCB53"/>
</linearGradient>
</defs>
</svg>
