<?xml version="1.0" encoding="utf-8"?>
<!-- Generator: Adobe Illustrator 16.0.0, SVG Export Plug-In . SVG Version: 6.00 Build 0)  -->
<!DOCTYPE svg PUBLIC "-//W3C//DTD SVG 1.1//EN" "http://www.w3.org/Graphics/SVG/1.1/DTD/svg11.dtd">
<svg version="1.1" id="Layer_1" xmlns="http://www.w3.org/2000/svg" xmlns:xlink="http://www.w3.org/1999/xlink" x="0px" y="0px"
	 width="1920px" height="530.676px" viewBox="0 0 1920 530.676" enable-background="new 0 0 1920 530.676" xml:space="preserve">
<linearGradient id="SVGID_1_" gradientUnits="userSpaceOnUse" x1="1569.832" y1="293.9707" x2="1852.332" y2="899.9707" gradientTransform="matrix(1 0 0 -1 8.3398 769.04)">
	<stop  offset="0" style="stop-color:#F5A22F"/>
	<stop  offset="0.9984" style="stop-color:#F9D094"/>
</linearGradient>
<path fill="url(#SVGID_1_)" d="M1452.411,214.558c8.353-43.408,4.747-55.991-17.795-88.485
	c-18.343-25.229-24.892-44.923-18.916-77.878c3.784-21.768,12.176-45.447,23.434-68.156h515.151v481.725
	c-31.799,3.232-66.452,23.109-92.383,36.291c-56.392,29.256-112.949,36.934-163.104-15.227
	c-16.774-16.939-23.854-43.438-40.775-59.049c-21.338-21.293-52.053-19.912-81.062-13.959c-3.229,0.664-6.44,1.396-9.62,2.137
	c-33.404,7.076-58.041,8.807-58.041,8.807c-85.961,6.471-104.374-61.679-104.406-61.777c-5.734-23.491-9.779-55.706,1.867-76.112
	C1422.225,253.864,1444.932,249.99,1452.411,214.558z"/>
<linearGradient id="SVGID_2_" gradientUnits="userSpaceOnUse" x1="412.8857" y1="1084.7803" x2="85.2606" y2="517.0725" gradientTransform="matrix(1 0 0 -1 8.3398 769.04)">
	<stop  offset="0" style="stop-color:#F5A738"/>
	<stop  offset="1" style="stop-color:#F2C555"/>
</linearGradient>
<path fill="url(#SVGID_2_)" d="M515.421-33.732c-8.578-40.683-4.868-52.476,18.283-82.929
	c18.858-23.645,25.604-42.103,19.447-72.962c-3.888-20.4-12.505-42.593-24.074-63.876H0v451.45
	c32.665,3.028,68.255,21.649,94.88,34.011c57.91,27.419,116.002,34.607,167.512-14.271c17.229-15.881,24.499-40.709,41.877-55.34
	c21.914-19.963,53.454-18.662,83.254-13.082c3.319,0.623,6.612,1.291,9.881,2.002c34.301,6.631,59.61,8.248,59.61,8.248
	c88.277,6.069,107.194-57.801,107.221-57.898c5.89-22.01,10.051-52.201-1.91-71.332C546.45,3.098,523.129-0.525,515.421-33.732z"/>
</svg>
