<?xml version="1.0" encoding="utf-8"?>
<!-- Generator: Adobe Illustrator 16.0.0, SVG Export Plug-In . SVG Version: 6.00 Build 0)  -->
<!DOCTYPE svg PUBLIC "-//W3C//DTD SVG 1.1//EN" "http://www.w3.org/Graphics/SVG/1.1/DTD/svg11.dtd">
<svg version="1.1" id="Layer_1" xmlns="http://www.w3.org/2000/svg" xmlns:xlink="http://www.w3.org/1999/xlink" x="0px" y="0px"
	 width="125px" height="124px" viewBox="0 0 125 124" enable-background="new 0 0 125 124" xml:space="preserve">
<path fill="none" stroke="#2D2F65" stroke-width="2.5" stroke-linecap="round" stroke-linejoin="round" stroke-miterlimit="10" d="
	M17.935,17.449c-6.824,0-12.377,5.553-12.377,12.377v14.581"/>
<line fill="none" stroke="#2D2F65" stroke-width="2.5" stroke-linecap="round" stroke-linejoin="round" stroke-miterlimit="10" x1="89.715" y1="100.24" x2="87.936" y2="100.24"/>
<path fill="none" stroke="#2D2F65" stroke-width="2.5" stroke-linecap="round" stroke-linejoin="round" stroke-miterlimit="10" d="
	M120.443,83.826v4.037c0,6.824-5.553,12.377-12.377,12.377h-9.001"/>
<path fill="#F3BB49" d="M108.066,94.24H17.935c-3.521,0-6.377-2.854-6.377-6.377V29.827c0-3.522,2.855-6.378,6.377-6.378h90.132
	c3.521,0,6.377,2.856,6.377,6.378v58.037C114.443,91.386,111.588,94.24,108.066,94.24"/>
<path fill="none" stroke="#2D2F65" stroke-width="2.5" stroke-linecap="round" stroke-linejoin="round" stroke-miterlimit="10" d="
	M108.066,94.24H17.935c-3.521,0-6.377-2.854-6.377-6.377V29.827c0-3.522,2.855-6.378,6.377-6.378h90.132
	c3.521,0,6.377,2.856,6.377,6.378v58.037C114.443,91.386,111.588,94.24,108.066,94.24z"/>
<polygon fill="#FFFFFF" points="17.935,87.887 17.911,29.827 108.066,29.803 108.09,87.863 108.066,87.887 "/>
<polygon fill="none" stroke="#2D2F65" stroke-width="2.5" stroke-linecap="round" stroke-linejoin="round" stroke-miterlimit="10" points="
	17.935,87.887 17.911,29.827 108.066,29.803 108.09,87.863 108.066,87.887 "/>
<path fill="#FFFFFF" d="M95.537,5.862c-3.262,0-5.92,2.647-5.92,5.92v76.104H36.385V11.782c0-3.273,2.647-5.92,5.92-5.92H95.537z"/>
<path fill="none" stroke="#2D2F65" stroke-width="2.5" stroke-linecap="round" stroke-linejoin="round" stroke-miterlimit="10" d="
	M95.537,5.862c-3.262,0-5.92,2.647-5.92,5.92v76.104H36.385V11.782c0-3.273,2.647-5.92,5.92-5.92H95.537z"/>
<path fill="#FFFFFF" d="M101.467,11.782v5.919h-11.85v-5.919c0-3.272,2.658-5.92,5.92-5.92
	C98.809,5.862,101.467,8.51,101.467,11.782"/>
<path fill="none" stroke="#2D2F65" stroke-width="2.5" stroke-linecap="round" stroke-linejoin="round" stroke-miterlimit="10" d="
	M101.467,11.782v5.919h-11.85v-5.919c0-3.272,2.658-5.92,5.92-5.92C98.809,5.862,101.467,8.51,101.467,11.782z"/>
<path fill="#F0883B" d="M79.109,34.596v-4.899h-2.67c-0.353-1.95-1.119-3.754-2.205-5.321l1.89-1.888l-3.465-3.465l-1.889,1.888
	c-1.566-1.086-3.371-1.85-5.32-2.204v-2.67h-4.899v2.67c-1.949,0.354-3.754,1.118-5.321,2.204l-1.888-1.888l-3.464,3.465
	l1.888,1.888c-1.086,1.567-1.851,3.371-2.204,5.321h-2.671v4.899h2.671c0.354,1.949,1.118,3.754,2.204,5.321l-1.888,1.888
	l3.464,3.465l1.888-1.888c1.567,1.086,3.372,1.85,5.321,2.203v2.671h4.899v-2.671c1.949-0.353,3.754-1.117,5.32-2.203l1.889,1.888
	l3.465-3.465l-1.89-1.888c1.086-1.567,1.853-3.372,2.205-5.321H79.109z"/>
<path fill="#FFFFFF" d="M68.854,32.146C68.854,35.379,66.233,38,63,38c-3.232,0-5.854-2.621-5.854-5.854
	c0-3.232,2.621-5.853,5.854-5.853C66.233,26.293,68.854,28.914,68.854,32.146"/>
<line fill="#FFFFFF" x1="55.585" y1="57.047" x2="81.036" y2="57.047"/>
<line fill="none" stroke="#2D2F65" stroke-width="2.5" stroke-linecap="round" stroke-linejoin="round" stroke-miterlimit="10" x1="55.585" y1="57.047" x2="81.036" y2="57.047"/>
<line fill="#FFFFFF" x1="44.965" y1="57.047" x2="48.435" y2="57.047"/>
<line fill="none" stroke="#2D2F65" stroke-width="2.5" stroke-linecap="round" stroke-linejoin="round" stroke-miterlimit="10" x1="44.965" y1="57.047" x2="48.435" y2="57.047"/>
<line fill="#FFFFFF" x1="55.585" y1="74.631" x2="81.036" y2="74.631"/>
<line fill="none" stroke="#2D2F65" stroke-width="2.5" stroke-linecap="round" stroke-linejoin="round" stroke-miterlimit="10" x1="55.585" y1="74.631" x2="81.036" y2="74.631"/>
<line fill="#FFFFFF" x1="44.965" y1="74.631" x2="48.435" y2="74.631"/>
<line fill="none" stroke="#2D2F65" stroke-width="2.5" stroke-linecap="round" stroke-linejoin="round" stroke-miterlimit="10" x1="44.965" y1="74.631" x2="48.435" y2="74.631"/>
<line fill="#FFFFFF" x1="71.469" y1="65.839" x2="81.037" y2="65.839"/>
<line fill="none" stroke="#2D2F65" stroke-width="2.5" stroke-linecap="round" stroke-linejoin="round" stroke-miterlimit="10" x1="71.469" y1="65.839" x2="81.037" y2="65.839"/>
<line fill="#FFFFFF" x1="64.91" y1="65.839" x2="66.437" y2="65.839"/>
<line fill="none" stroke="#2D2F65" stroke-width="2.5" stroke-linecap="round" stroke-linejoin="round" stroke-miterlimit="10" x1="64.91" y1="65.839" x2="66.437" y2="65.839"/>
<line fill="#FFFFFF" x1="44.965" y1="65.839" x2="58.967" y2="65.839"/>
<line fill="none" stroke="#2D2F65" stroke-width="2.5" stroke-linecap="round" stroke-linejoin="round" stroke-miterlimit="10" x1="44.965" y1="65.839" x2="58.967" y2="65.839"/>
<rect x="53.382" y="94.24" fill="#F3BB49" width="19.238" height="23.748"/>
<rect x="53.382" y="94.24" fill="none" stroke="#2D2F65" stroke-width="2.5" stroke-linecap="round" stroke-linejoin="round" stroke-miterlimit="10" width="19.238" height="23.748"/>
<path fill="#F3BB49" d="M93.781,117.989H32.219c0-3.36,2.726-6.085,6.085-6.085h49.393
	C91.057,111.904,93.781,114.629,93.781,117.989"/>
<path fill="none" stroke="#2D2F65" stroke-width="2.5" stroke-linecap="round" stroke-linejoin="round" stroke-miterlimit="10" d="
	M93.781,117.989H32.219c0-3.36,2.726-6.085,6.085-6.085h49.393C91.057,111.904,93.781,114.629,93.781,117.989z"/>
<line fill="none" stroke="#2D2F65" stroke-width="2.5" stroke-linecap="round" stroke-linejoin="round" stroke-miterlimit="10" x1="23.901" y1="17.449" x2="25.063" y2="17.449"/>
</svg>
