<?xml version="1.0" encoding="utf-8"?>
<!-- Generator: Adobe Illustrator 16.0.0, SVG Export Plug-In . SVG Version: 6.00 Build 0)  -->
<!DOCTYPE svg PUBLIC "-//W3C//DTD SVG 1.1//EN" "http://www.w3.org/Graphics/SVG/1.1/DTD/svg11.dtd">
<svg version="1.1" id="Layer_1" xmlns="http://www.w3.org/2000/svg" xmlns:xlink="http://www.w3.org/1999/xlink" x="0px" y="0px"
	 width="63.222px" height="55.778px" viewBox="0 0 63.222 55.778" enable-background="new 0 0 63.222 55.778" xml:space="preserve">
<path fill="#777878" d="M54,4H8C5.243,4,3,6.243,3,9v38c0,2.757,2.243,5,5,5h46c2.757,0,5-2.243,5-5V9C59,6.243,56.757,4,54,4z
	 M5,46V14h52v32H5z M8,6h46c1.654,0,3,1.346,3,3v3H5V9C5,7.346,6.346,6,8,6z M54,50H8c-1.302,0-2.401-0.839-2.815-2h51.631
	C56.401,49.161,55.302,50,54,50z M8,9c0-0.553,0.448-1,1-1c0.553,0,1,0.447,1,1s-0.447,1-1,1C8.448,10,8,9.553,8,9z M14,9
	c0-0.553,0.448-1,1-1c0.553,0,1,0.447,1,1s-0.447,1-1,1C14.448,10,14,9.553,14,9z M20,9c0-0.553,0.448-1,1-1c0.553,0,1,0.447,1,1
	s-0.447,1-1,1C20.448,10,20,9.553,20,9z M12,29h10c0.553,0,1-0.447,1-1V18c0-0.553-0.447-1-1-1H12c-0.553,0-1,0.447-1,1v10
	C11,28.553,11.447,29,12,29z M13,19h8v8h-8V19z M27,20c0-0.553,0.447-1,1-1h20c0.553,0,1,0.447,1,1s-0.447,1-1,1H28
	C27.447,21,27,20.553,27,20z M27,24c0-0.553,0.447-1,1-1h16c0.553,0,1,0.447,1,1s-0.447,1-1,1H28C27.447,25,27,24.553,27,24z M49,34
	c0,0.553-0.447,1-1,1H28c-0.553,0-1-0.447-1-1s0.447-1,1-1h20C48.553,33,49,33.447,49,34z M45,38c0,0.553-0.447,1-1,1H28
	c-0.553,0-1-0.447-1-1s0.447-1,1-1h16C44.553,37,45,37.447,45,38z M23,40v2c0,0.553-0.447,1-1,1H12c-0.553,0-1-0.447-1-1V32
	c0-0.553,0.447-1,1-1h6c0.553,0,1,0.447,1,1s-0.447,1-1,1h-5v8h8v-1c0-0.553,0.447-1,1-1S23,39.447,23,40z M24.707,31.293
	c0.391,0.391,0.391,1.023,0,1.414l-6,6c-0.391,0.391-1.023,0.391-1.414,0l-2-2c-0.391-0.391-0.391-1.023,0-1.414
	s1.023-0.391,1.414,0L18,36.586l5.293-5.293C23.684,30.902,24.316,30.902,24.707,31.293z"/>
</svg>
