<?xml version="1.0" encoding="utf-8"?>
<!-- Generator: Adobe Illustrator 16.0.0, SVG Export Plug-In . SVG Version: 6.00 Build 0)  -->
<!DOCTYPE svg PUBLIC "-//W3C//DTD SVG 1.1//EN" "http://www.w3.org/Graphics/SVG/1.1/DTD/svg11.dtd">
<svg version="1.1" id="Layer_1" xmlns="http://www.w3.org/2000/svg" xmlns:xlink="http://www.w3.org/1999/xlink" x="0px" y="0px"
	 width="154px" height="169px" viewBox="0 0 154 169" enable-background="new 0 0 154 169" xml:space="preserve">
<polygon fill="none" stroke="#FFFFFF" stroke-width="11" stroke-linecap="round" stroke-linejoin="round" stroke-miterlimit="10" points="
	74.929,16.458 74.929,5.019 43.846,5.019 43.846,16.458 32.989,16.458 32.989,31.06 86.246,31.06 86.246,16.458 "/>
<polyline fill="none" stroke="#FFFFFF" stroke-width="11" stroke-linecap="round" stroke-linejoin="round" stroke-miterlimit="10" points="
	111.854,112.886 111.854,162.98 7.381,162.98 7.381,23.759 32.988,23.759 "/>
<polyline fill="none" stroke="#FFFFFF" stroke-width="11" stroke-linecap="round" stroke-linejoin="round" stroke-miterlimit="10" points="
	86.246,23.759 111.854,23.759 111.854,79.345 "/>
<g>
	
		<line fill="none" stroke="#FFFFFF" stroke-width="11" stroke-linecap="round" stroke-linejoin="round" stroke-miterlimit="10" x1="28.227" y1="59.205" x2="91.008" y2="59.205"/>
	
		<line fill="none" stroke="#FFFFFF" stroke-width="11" stroke-linecap="round" stroke-linejoin="round" stroke-miterlimit="10" x1="28.227" y1="82.958" x2="83.262" y2="82.958"/>
	
		<line fill="none" stroke="#FFFFFF" stroke-width="11" stroke-linecap="round" stroke-linejoin="round" stroke-miterlimit="10" x1="28.227" y1="106.712" x2="69.596" y2="106.712"/>
	
		<line fill="none" stroke="#FFFFFF" stroke-width="11" stroke-linecap="round" stroke-linejoin="round" stroke-miterlimit="10" x1="28.227" y1="130.466" x2="59.617" y2="130.466"/>
</g>
<g>
	
		<polygon fill="none" stroke="#FFFFFF" stroke-width="11" stroke-linecap="round" stroke-linejoin="round" stroke-miterlimit="10" points="
		104.281,121.35 79.156,132.66 87.613,106.438 	"/>
	
		<rect x="107.122" y="55.363" transform="matrix(0.7453 0.6668 -0.6668 0.7453 89.409 -56.2363)" fill="none" stroke="#FFFFFF" stroke-width="11" stroke-linecap="round" stroke-linejoin="round" stroke-miterlimit="10" width="22.365" height="67.069"/>
	
		<rect x="126.379" y="62.724" transform="matrix(0.7452 0.6668 -0.6668 0.7452 79.9669 -74.5613)" fill="none" stroke="#FFFFFF" stroke-width="11" stroke-linecap="round" stroke-linejoin="round" stroke-miterlimit="10" width="22.366" height="9.296"/>
	<polygon fill="#FFFFFF" points="87.046,129.104 79.164,132.65 81.816,124.425 	"/>
</g>
</svg>
