<?xml version="1.0" encoding="utf-8"?>
<!-- Generator: Adobe Illustrator 16.0.0, SVG Export Plug-In . SVG Version: 6.00 Build 0)  -->
<!DOCTYPE svg PUBLIC "-//W3C//DTD SVG 1.1//EN" "http://www.w3.org/Graphics/SVG/1.1/DTD/svg11.dtd">
<svg version="1.1" id="Layer_1" xmlns="http://www.w3.org/2000/svg" xmlns:xlink="http://www.w3.org/1999/xlink" x="0px" y="0px"
	 width="136px" height="103px" viewBox="0 0 136 103" enable-background="new 0 0 136 103" xml:space="preserve">
<line fill="none" stroke="#2D2F65" stroke-width="2.5" stroke-linecap="round" stroke-linejoin="round" stroke-miterlimit="10" x1="69.177" y1="13.591" x2="69.177" y2="4.89"/>
<line fill="none" stroke="#2D2F65" stroke-width="2.5" stroke-linecap="round" stroke-linejoin="round" stroke-miterlimit="10" x1="85.039" y1="17.856" x2="89.391" y2="10.32"/>
<line fill="none" stroke="#2D2F65" stroke-width="2.5" stroke-linecap="round" stroke-linejoin="round" stroke-miterlimit="10" x1="53.313" y1="17.856" x2="48.962" y2="10.32"/>
<path fill="#FFFFFF" d="M73.911,29.252l3.142,6.366c0.771,1.558,2.256,2.639,3.977,2.888l7.025,1.021
	c4.33,0.63,6.062,5.952,2.926,9.007l-5.082,4.955c-1.246,1.213-1.813,2.961-1.521,4.674l1.2,6.996
	c0.74,4.313-3.788,7.604-7.661,5.565l-6.284-3.305c-1.537-0.811-3.376-0.811-4.914,0l-6.284,3.305
	c-3.873,2.036-8.399-1.252-7.66-5.565l1.199-6.996c0.295-1.713-0.273-3.461-1.518-4.674l-5.084-4.955
	c-3.134-3.055-1.404-8.377,2.927-9.007l7.025-1.021c1.72-0.249,3.206-1.33,3.976-2.888l3.142-6.366
	C66.378,25.328,71.975,25.328,73.911,29.252"/>
<path fill="none" stroke="#2D2F65" stroke-width="2.5" stroke-linecap="round" stroke-linejoin="round" stroke-miterlimit="10" d="
	M73.911,29.252l3.142,6.366c0.771,1.558,2.256,2.639,3.977,2.888l7.025,1.021c4.33,0.63,6.062,5.952,2.926,9.007l-5.082,4.955
	c-1.246,1.213-1.813,2.961-1.521,4.674l1.2,6.996c0.74,4.313-3.788,7.604-7.661,5.565l-6.284-3.305
	c-1.537-0.811-3.376-0.811-4.914,0l-6.284,3.305c-3.873,2.036-8.399-1.252-7.66-5.565l1.199-6.996
	c0.295-1.713-0.273-3.461-1.518-4.674l-5.084-4.955c-3.134-3.055-1.404-8.377,2.927-9.007l7.025-1.021
	c1.72-0.249,3.206-1.33,3.976-2.888l3.142-6.366C66.378,25.328,71.975,25.328,73.911,29.252z"/>
<g>
	<g>
		<g>
			<g>
				<defs>
					<rect id="SVGID_1_" x="53.565" y="34.226" width="31.221" height="29.693"/>
				</defs>
				<clipPath id="SVGID_2_">
					<use xlink:href="#SVGID_1_"  overflow="visible"/>
				</clipPath>
				<polygon clip-path="url(#SVGID_2_)" fill="#276EC5" points="69.177,58.848 59.529,63.919 61.37,53.177 53.566,45.567 64.353,44 
					69.177,34.226 74,44 84.786,45.567 76.982,53.177 78.823,63.919 				"/>
			</g>
		</g>
	</g>
</g>
<path fill="none" stroke="#2D2F65" stroke-width="2.5" stroke-linecap="round" stroke-linejoin="round" stroke-miterlimit="10" d="
	M25.785,28.542c-2.947,6.054-4.604,12.853-4.604,20.039c0,19.878,12.652,36.794,30.34,43.151"/>
<line fill="none" x1="14.473" y1="28.469" x2="21.947" y2="41.216"/>
<line fill="none" stroke="#2D2F65" stroke-width="2.5" stroke-linecap="round" stroke-linejoin="round" stroke-miterlimit="10" x1="14.473" y1="28.469" x2="21.947" y2="41.216"/>
<line fill="none" x1="34.694" y1="33.741" x2="21.946" y2="41.216"/>
<line fill="none" stroke="#2D2F65" stroke-width="2.5" stroke-linecap="round" stroke-linejoin="round" stroke-miterlimit="10" x1="34.694" y1="33.741" x2="21.946" y2="41.216"/>
<path fill="#FFAEC9" d="M19.06,27.554c2.064,3.521-0.075,8.61-0.075,8.61s-5.486-0.618-7.551-4.138
	c-2.063-3.52,0.075-8.61,0.075-8.61S16.995,24.034,19.06,27.554"/>
<path fill="none" stroke="#2D2F65" stroke-width="2.5" stroke-linecap="round" stroke-linejoin="round" stroke-miterlimit="10" d="
	M19.06,27.554c2.064,3.521-0.075,8.61-0.075,8.61s-5.486-0.618-7.551-4.138c-2.063-3.52,0.075-8.61,0.075-8.61
	S16.995,24.034,19.06,27.554z"/>
<path fill="#FFAEC9" d="M31.138,30.703c-3.52,2.064-4.138,7.55-4.138,7.55s5.09,2.139,8.61,0.075s4.138-7.551,4.138-7.551
	S34.658,28.639,31.138,30.703"/>
<path fill="none" stroke="#2D2F65" stroke-width="2.5" stroke-linecap="round" stroke-linejoin="round" stroke-miterlimit="10" d="
	M31.138,30.703c-3.52,2.064-4.138,7.55-4.138,7.55s5.09,2.139,8.61,0.075s4.138-7.551,4.138-7.551S34.658,28.639,31.138,30.703z"/>
<line fill="none" x1="10.957" y1="48.995" x2="22.199" y2="58.585"/>
<line fill="none" stroke="#2D2F65" stroke-width="2.5" stroke-linecap="round" stroke-linejoin="round" stroke-miterlimit="10" x1="10.957" y1="48.995" x2="22.199" y2="58.585"/>
<line fill="none" x1="31.791" y1="47.344" x2="22.2" y2="58.586"/>
<line fill="none" stroke="#2D2F65" stroke-width="2.5" stroke-linecap="round" stroke-linejoin="round" stroke-miterlimit="10" x1="31.791" y1="47.344" x2="22.2" y2="58.586"/>
<path fill="#FFAEC9" d="M14.991,46.626c3.104,2.648,2.752,8.158,2.752,8.158S12.358,56,9.253,53.352
	c-3.104-2.646-2.752-8.159-2.752-8.159S11.888,43.977,14.991,46.626"/>
<path fill="none" stroke="#2D2F65" stroke-width="2.5" stroke-linecap="round" stroke-linejoin="round" stroke-miterlimit="10" d="
	M14.991,46.626c3.104,2.648,2.752,8.158,2.752,8.158S12.358,56,9.253,53.352c-3.104-2.646-2.752-8.159-2.752-8.159
	S11.888,43.977,14.991,46.626z"/>
<path fill="#FFAEC9" d="M27.435,45.64c-2.648,3.104-1.433,8.49-1.433,8.49s5.51,0.353,8.158-2.752
	c2.648-3.105,1.433-8.49,1.433-8.49S30.084,42.536,27.435,45.64"/>
<path fill="none" stroke="#2D2F65" stroke-width="2.5" stroke-linecap="round" stroke-linejoin="round" stroke-miterlimit="10" d="
	M27.435,45.64c-2.648,3.104-1.433,8.49-1.433,8.49s5.51,0.353,8.158-2.752c2.648-3.105,1.433-8.49,1.433-8.49
	S30.084,42.536,27.435,45.64z"/>
<line fill="none" x1="16.104" y1="71.505" x2="30.316" y2="75.551"/>
<line fill="none" stroke="#2D2F65" stroke-width="2.5" stroke-linecap="round" stroke-linejoin="round" stroke-miterlimit="10" x1="16.104" y1="71.505" x2="30.316" y2="75.551"/>
<line fill="none" x1="34.362" y1="61.339" x2="30.316" y2="75.552"/>
<line fill="none" stroke="#2D2F65" stroke-width="2.5" stroke-linecap="round" stroke-linejoin="round" stroke-miterlimit="10" x1="34.362" y1="61.339" x2="30.316" y2="75.552"/>
<path fill="#FFAEC9" d="M18.786,67.673c3.926,1.118,5.896,6.272,5.896,6.272s-4.392,3.348-8.316,2.229
	c-3.925-1.115-5.896-6.271-5.896-6.271S14.861,66.557,18.786,67.673"/>
<path fill="none" stroke="#2D2F65" stroke-width="2.5" stroke-linecap="round" stroke-linejoin="round" stroke-miterlimit="10" d="
	M18.786,67.673c3.926,1.118,5.896,6.272,5.896,6.272s-4.392,3.348-8.316,2.229c-3.925-1.115-5.896-6.271-5.896-6.271
	S14.861,66.557,18.786,67.673z"/>
<path fill="#FFAEC9" d="M29.692,61.602c-1.118,3.924,2.228,8.315,2.228,8.315s5.157-1.972,6.274-5.896
	c1.118-3.924-2.228-8.316-2.228-8.316S30.81,57.676,29.692,61.602"/>
<path fill="none" stroke="#2D2F65" stroke-width="2.5" stroke-linecap="round" stroke-linejoin="round" stroke-miterlimit="10" d="
	M29.692,61.602c-1.118,3.924,2.228,8.315,2.228,8.315s5.157-1.972,6.274-5.896c1.118-3.924-2.228-8.316-2.228-8.316
	S30.81,57.676,29.692,61.602z"/>
<line fill="none" x1="29.785" y1="90.956" x2="44.352" y2="88.468"/>
<line fill="none" stroke="#2D2F65" stroke-width="2.5" stroke-linecap="round" stroke-linejoin="round" stroke-miterlimit="10" x1="29.785" y1="90.956" x2="44.352" y2="88.468"/>
<line fill="none" x1="41.862" y1="73.9" x2="44.352" y2="88.467"/>
<line fill="none" stroke="#2D2F65" stroke-width="2.5" stroke-linecap="round" stroke-linejoin="round" stroke-miterlimit="10" x1="41.862" y1="73.9" x2="44.352" y2="88.467"/>
<path fill="#FFAEC9" d="M30.55,86.342c4.021-0.687,8.028,3.112,8.028,3.112s-2.517,4.914-6.539,5.603s-8.028-3.111-8.028-3.111
	S26.527,87.027,30.55,86.342"/>
<path fill="none" stroke="#2D2F65" stroke-width="2.5" stroke-linecap="round" stroke-linejoin="round" stroke-miterlimit="10" d="
	M30.55,86.342c4.021-0.687,8.028,3.112,8.028,3.112s-2.517,4.914-6.539,5.603s-8.028-3.111-8.028-3.111S26.527,87.027,30.55,86.342z
	"/>
<path fill="#FFAEC9" d="M37.763,76.155c0.688,4.021,5.603,6.538,5.603,6.538s3.799-4.006,3.112-8.027
	c-0.688-4.021-5.602-6.539-5.602-6.539S37.076,72.133,37.763,76.155"/>
<path fill="none" stroke="#2D2F65" stroke-width="2.5" stroke-linecap="round" stroke-linejoin="round" stroke-miterlimit="10" d="
	M37.763,76.155c0.688,4.021,5.603,6.538,5.603,6.538s3.799-4.006,3.112-8.027c-0.688-4.021-5.602-6.539-5.602-6.539
	S37.076,72.133,37.763,76.155z"/>
<line fill="none" x1="25.792" y1="28.536" x2="29.604" y2="20.516"/>
<line fill="none" stroke="#2D2F65" stroke-width="2.5" stroke-linecap="round" stroke-linejoin="round" stroke-miterlimit="10" x1="25.792" y1="28.536" x2="29.604" y2="20.516"/>
<path fill="#FFAEC9" d="M33.028,23.872c-1.809,3.658-7.237,4.664-7.237,4.664s-2.496-4.924-0.687-8.582
	c1.808-3.659,7.236-4.665,7.236-4.665S34.837,20.214,33.028,23.872"/>
<path fill="none" stroke="#2D2F65" stroke-width="2.5" stroke-linecap="round" stroke-linejoin="round" stroke-miterlimit="10" d="
	M33.028,23.872c-1.809,3.658-7.237,4.664-7.237,4.664s-2.496-4.924-0.687-8.582c1.808-3.659,7.236-4.665,7.236-4.665
	S34.837,20.214,33.028,23.872z"/>
<path fill="none" stroke="#2D2F65" stroke-width="2.5" stroke-linecap="round" stroke-linejoin="round" stroke-miterlimit="10" d="
	M112.566,28.542c2.947,6.054,4.604,12.853,4.604,20.039c0,19.878-12.65,36.794-30.34,43.151"/>
<line fill="none" x1="123.88" y1="28.469" x2="116.404" y2="41.216"/>
<line fill="none" stroke="#2D2F65" stroke-width="2.5" stroke-linecap="round" stroke-linejoin="round" stroke-miterlimit="10" x1="123.88" y1="28.469" x2="116.404" y2="41.216"/>
<line fill="none" x1="103.657" y1="33.741" x2="116.404" y2="41.216"/>
<line fill="none" stroke="#2D2F65" stroke-width="2.5" stroke-linecap="round" stroke-linejoin="round" stroke-miterlimit="10" x1="103.657" y1="33.741" x2="116.404" y2="41.216"/>
<path fill="#FFAEC9" d="M119.293,27.554c-2.063,3.521,0.075,8.61,0.075,8.61s5.485-0.618,7.551-4.138s-0.075-8.61-0.075-8.61
	S121.357,24.034,119.293,27.554"/>
<path fill="none" stroke="#2D2F65" stroke-width="2.5" stroke-linecap="round" stroke-linejoin="round" stroke-miterlimit="10" d="
	M119.293,27.554c-2.063,3.521,0.075,8.61,0.075,8.61s5.485-0.618,7.551-4.138s-0.075-8.61-0.075-8.61S121.357,24.034,119.293,27.554
	z"/>
<path fill="#FFAEC9" d="M107.215,30.703c3.52,2.064,4.139,7.551,4.139,7.551s-5.09,2.139-8.609,0.075s-4.139-7.551-4.139-7.551
	S103.693,28.639,107.215,30.703"/>
<path fill="none" stroke="#2D2F65" stroke-width="2.5" stroke-linecap="round" stroke-linejoin="round" stroke-miterlimit="10" d="
	M107.215,30.703c3.52,2.064,4.139,7.551,4.139,7.551s-5.09,2.139-8.609,0.075s-4.139-7.551-4.139-7.551
	S103.693,28.639,107.215,30.703z"/>
<line fill="none" x1="127.396" y1="48.995" x2="116.152" y2="58.585"/>
<line fill="none" stroke="#2D2F65" stroke-width="2.5" stroke-linecap="round" stroke-linejoin="round" stroke-miterlimit="10" x1="127.396" y1="48.995" x2="116.152" y2="58.585"/>
<line fill="none" x1="106.563" y1="47.344" x2="116.152" y2="58.586"/>
<line fill="none" stroke="#2D2F65" stroke-width="2.5" stroke-linecap="round" stroke-linejoin="round" stroke-miterlimit="10" x1="106.563" y1="47.344" x2="116.152" y2="58.586"/>
<path fill="#FFAEC9" d="M123.361,46.626c-3.104,2.648-2.752,8.158-2.752,8.158s5.385,1.216,8.49-1.435
	c3.104-2.646,2.752-8.159,2.752-8.159S126.465,43.977,123.361,46.626"/>
<path fill="none" stroke="#2D2F65" stroke-width="2.5" stroke-linecap="round" stroke-linejoin="round" stroke-miterlimit="10" d="
	M123.361,46.626c-3.104,2.648-2.752,8.158-2.752,8.158s5.385,1.216,8.49-1.435c3.104-2.646,2.752-8.159,2.752-8.159
	S126.465,43.977,123.361,46.626z"/>
<path fill="#FFAEC9" d="M110.918,45.64c2.648,3.104,1.434,8.49,1.434,8.49s-5.511,0.353-8.158-2.752
	c-2.647-3.105-1.434-8.49-1.434-8.49S108.27,42.536,110.918,45.64"/>
<path fill="none" stroke="#2D2F65" stroke-width="2.5" stroke-linecap="round" stroke-linejoin="round" stroke-miterlimit="10" d="
	M110.918,45.64c2.648,3.104,1.434,8.49,1.434,8.49s-5.511,0.353-8.158-2.752c-2.647-3.105-1.434-8.49-1.434-8.49
	S108.27,42.536,110.918,45.64z"/>
<line fill="none" x1="122.249" y1="71.505" x2="108.036" y2="75.551"/>
<line fill="none" stroke="#2D2F65" stroke-width="2.5" stroke-linecap="round" stroke-linejoin="round" stroke-miterlimit="10" x1="122.249" y1="71.505" x2="108.036" y2="75.551"/>
<line fill="none" x1="103.988" y1="61.339" x2="108.036" y2="75.552"/>
<line fill="none" stroke="#2D2F65" stroke-width="2.5" stroke-linecap="round" stroke-linejoin="round" stroke-miterlimit="10" x1="103.988" y1="61.339" x2="108.036" y2="75.552"/>
<path fill="#FFAEC9" d="M119.564,67.673c-3.924,1.118-5.896,6.272-5.896,6.272s4.393,3.348,8.314,2.229
	c3.927-1.115,5.896-6.271,5.896-6.271S123.491,66.557,119.564,67.673"/>
<path fill="none" stroke="#2D2F65" stroke-width="2.5" stroke-linecap="round" stroke-linejoin="round" stroke-miterlimit="10" d="
	M119.564,67.673c-3.924,1.118-5.896,6.272-5.896,6.272s4.393,3.348,8.314,2.229c3.927-1.115,5.896-6.271,5.896-6.271
	S123.491,66.557,119.564,67.673z"/>
<path fill="#FFAEC9" d="M108.66,61.602c1.117,3.924-2.229,8.315-2.229,8.315s-5.156-1.972-6.273-5.896
	c-1.118-3.924,2.229-8.316,2.229-8.316S107.543,57.676,108.66,61.602"/>
<path fill="none" stroke="#2D2F65" stroke-width="2.5" stroke-linecap="round" stroke-linejoin="round" stroke-miterlimit="10" d="
	M108.66,61.602c1.117,3.924-2.229,8.315-2.229,8.315s-5.156-1.972-6.273-5.896c-1.118-3.924,2.229-8.316,2.229-8.316
	S107.543,57.676,108.66,61.602z"/>
<line fill="none" x1="108.566" y1="90.956" x2="94.001" y2="88.468"/>
<line fill="none" stroke="#2D2F65" stroke-width="2.5" stroke-linecap="round" stroke-linejoin="round" stroke-miterlimit="10" x1="108.566" y1="90.956" x2="94.001" y2="88.468"/>
<line fill="none" x1="96.49" y1="73.9" x2="94.001" y2="88.467"/>
<line fill="none" stroke="#2D2F65" stroke-width="2.5" stroke-linecap="round" stroke-linejoin="round" stroke-miterlimit="10" x1="96.49" y1="73.9" x2="94.001" y2="88.467"/>
<path fill="#FFAEC9" d="M107.803,86.342c-4.021-0.687-8.027,3.112-8.027,3.112s2.518,4.914,6.539,5.603s8.027-3.111,8.027-3.111
	S111.824,87.027,107.803,86.342"/>
<path fill="none" stroke="#2D2F65" stroke-width="2.5" stroke-linecap="round" stroke-linejoin="round" stroke-miterlimit="10" d="
	M107.803,86.342c-4.021-0.687-8.027,3.112-8.027,3.112s2.518,4.914,6.539,5.603s8.027-3.111,8.027-3.111
	S111.824,87.027,107.803,86.342z"/>
<path fill="#FFAEC9" d="M100.59,76.155c-0.688,4.021-5.604,6.538-5.604,6.538s-3.799-4.006-3.111-8.027s5.602-6.539,5.602-6.539
	S101.275,72.133,100.59,76.155"/>
<path fill="none" stroke="#2D2F65" stroke-width="2.5" stroke-linecap="round" stroke-linejoin="round" stroke-miterlimit="10" d="
	M100.59,76.155c-0.688,4.021-5.604,6.538-5.604,6.538s-3.799-4.006-3.111-8.027s5.602-6.539,5.602-6.539
	S101.275,72.133,100.59,76.155z"/>
<line fill="none" x1="112.561" y1="28.536" x2="108.749" y2="20.516"/>
<line fill="none" stroke="#2D2F65" stroke-width="2.5" stroke-linecap="round" stroke-linejoin="round" stroke-miterlimit="10" x1="112.561" y1="28.536" x2="108.749" y2="20.516"/>
<path fill="#FFAEC9" d="M105.324,23.872c1.809,3.658,7.236,4.664,7.236,4.664s2.496-4.924,0.688-8.582
	c-1.809-3.659-7.236-4.665-7.236-4.665S103.516,20.214,105.324,23.872"/>
<path fill="none" stroke="#2D2F65" stroke-width="2.5" stroke-linecap="round" stroke-linejoin="round" stroke-miterlimit="10" d="
	M105.324,23.872c1.809,3.658,7.236,4.664,7.236,4.664s2.496-4.924,0.688-8.582c-1.809-3.659-7.236-4.665-7.236-4.665
	S103.516,20.214,105.324,23.872z"/>
</svg>
