<?xml version="1.0" encoding="utf-8"?>
<!-- Generator: Adobe Illustrator 16.0.0, SVG Export Plug-In . SVG Version: 6.00 Build 0)  -->
<!DOCTYPE svg PUBLIC "-//W3C//DTD SVG 1.1//EN" "http://www.w3.org/Graphics/SVG/1.1/DTD/svg11.dtd">
<svg version="1.1" id="Layer_1" xmlns="http://www.w3.org/2000/svg" xmlns:xlink="http://www.w3.org/1999/xlink" x="0px" y="0px"
	 width="122px" height="120px" viewBox="0 0 122 120" enable-background="new 0 0 122 120" xml:space="preserve">
<path fill="none" stroke="#2D2F65" stroke-width="2.5" stroke-linecap="round" stroke-linejoin="round" stroke-miterlimit="10" d="
	M61.626,117.467H40.729c-1.744,0-3.158-1.414-3.158-3.158v-5.014"/>
<line fill="none" stroke="#2D2F65" stroke-width="2.5" stroke-linecap="round" stroke-linejoin="round" stroke-miterlimit="10" x1="66.85" y1="117.467" x2="67.371" y2="117.467"/>
<rect x="43.57" y="16.295" fill="#F3BB49" width="72.056" height="95.172"/>
<rect x="43.57" y="16.295" fill="none" stroke="#2D2F65" stroke-width="2.5" stroke-linecap="round" stroke-linejoin="round" stroke-miterlimit="10" width="72.056" height="95.172"/>
<line fill="none" x1="92.352" y1="2" x2="107.407" y2="2"/>
<line fill="none" stroke="#2D2F65" stroke-width="2.5" stroke-linecap="round" stroke-linejoin="round" stroke-miterlimit="10" x1="92.352" y1="2" x2="107.407" y2="2"/>
<rect x="35.351" y="8" fill="#FFFFFF" width="72.057" height="95.172"/>
<rect x="35.351" y="8" fill="none" stroke="#2D2F65" stroke-width="2.5" stroke-linecap="round" stroke-linejoin="round" stroke-miterlimit="10" width="72.057" height="95.172"/>
<line fill="none" stroke="#2D2F65" stroke-width="2.5" stroke-linecap="round" stroke-linejoin="round" stroke-miterlimit="10" x1="75.548" y1="92.854" x2="99.95" y2="92.854"/>
<line fill="none" stroke="#2D2F65" stroke-width="2.5" stroke-linecap="round" stroke-linejoin="round" stroke-miterlimit="10" x1="87.041" y1="69.979" x2="97.252" y2="69.979"/>
<line fill="none" stroke="#2D2F65" stroke-width="2.5" stroke-linecap="round" stroke-linejoin="round" stroke-miterlimit="10" x1="44.682" y1="69.979" x2="80.809" y2="69.979"/>
<line fill="none" stroke="#2D2F65" stroke-width="2.5" stroke-linecap="round" stroke-linejoin="round" stroke-miterlimit="10" x1="93.02" y1="61.875" x2="97.252" y2="61.875"/>
<line fill="none" stroke="#2D2F65" stroke-width="2.5" stroke-linecap="round" stroke-linejoin="round" stroke-miterlimit="10" x1="69.801" y1="61.875" x2="87.207" y2="61.875"/>
<line fill="none" stroke="#2D2F65" stroke-width="2.5" stroke-linecap="round" stroke-linejoin="round" stroke-miterlimit="10" x1="44.682" y1="61.875" x2="62.744" y2="61.875"/>
<line fill="none" stroke="#2D2F65" stroke-width="2.5" stroke-linecap="round" stroke-linejoin="round" stroke-miterlimit="10" x1="44.682" y1="53.773" x2="97.252" y2="53.773"/>
<line fill="none" stroke="#2D2F65" stroke-width="2.5" stroke-linecap="round" stroke-linejoin="round" stroke-miterlimit="10" x1="44.682" y1="45.671" x2="97.252" y2="45.671"/>
<line fill="none" stroke="#2D2F65" stroke-width="2.5" stroke-linecap="round" stroke-linejoin="round" stroke-miterlimit="10" x1="44.682" y1="37.569" x2="97.252" y2="37.569"/>
<path fill="#FFFFFF" d="M62.507,76.555l-1.686-1.686l-3.257,3.259l1.686,1.685c2.488,2.489,3.982,5.802,4.204,9.314l0.01,0.154
	l12.085,3.572l-3.572-12.086L71.82,80.76C68.309,80.54,64.996,79.043,62.507,76.555"/>
<path fill="none" stroke="#2D2F65" stroke-width="2.5" stroke-linecap="round" stroke-linejoin="round" stroke-miterlimit="10" d="
	M62.507,76.555l-1.686-1.686l-3.257,3.259l1.686,1.685c2.488,2.489,3.982,5.802,4.204,9.314l0.01,0.154l12.085,3.572l-3.572-12.086
	L71.82,80.76C68.309,80.54,64.996,79.043,62.507,76.555z"/>
<rect x="14.778" y="22.261" transform="matrix(-0.7072 0.707 -0.707 -0.7072 60.7287 49.6353)" fill="#FFFFFF" width="10.618" height="30.262"/>
<rect x="14.778" y="22.261" transform="matrix(-0.7072 0.707 -0.707 -0.7072 60.7287 49.6353)" fill="none" stroke="#2D2F65" stroke-width="2.5" stroke-linecap="round" stroke-linejoin="round" stroke-miterlimit="10" width="10.618" height="30.262"/>
<g>
	<g>
		<g>
			<defs>
				
					<rect id="SVGID_1_" x="6.803" y="25.035" transform="matrix(-0.7071 0.7071 -0.7071 -0.7071 60.9328 51.023)" width="26.193" height="26.193"/>
			</defs>
			<clipPath id="SVGID_2_">
				<use xlink:href="#SVGID_1_"  overflow="visible"/>
			</clipPath>
			
				<rect x="16.511" y="23" transform="matrix(-0.7071 0.7071 -0.7071 -0.7071 60.9353 51.022)" clip-path="url(#SVGID_2_)" fill="#F0883B" width="6.78" height="30.263"/>
		</g>
	</g>
</g>
<rect x="41.628" y="41.856" transform="matrix(-0.7071 0.7071 -0.7071 -0.7071 122.9054 75.38)" fill="#FFFFFF" width="8.425" height="42.58"/>
<rect x="41.628" y="41.856" transform="matrix(-0.7071 0.7071 -0.7071 -0.7071 122.9054 75.38)" fill="none" stroke="#2D2F65" stroke-width="2.5" stroke-linecap="round" stroke-linejoin="round" stroke-miterlimit="10" width="8.425" height="42.58"/>
<g>
	<g>
		<g>
			<defs>
				
					<rect id="SVGID_3_" x="28.549" y="46.188" transform="matrix(-0.707 0.7072 -0.7072 -0.707 122.3362 75.6128)" width="33.915" height="33.916"/>
			</defs>
			<clipPath id="SVGID_4_">
				<use xlink:href="#SVGID_3_"  overflow="visible"/>
			</clipPath>
			
				<rect x="42.816" y="41.854" transform="matrix(-0.7071 0.7072 -0.7072 -0.7071 122.3355 75.6144)" clip-path="url(#SVGID_4_)" fill="#F0883B" width="5.38" height="42.585"/>
		</g>
	</g>
</g>
<line fill="none" x1="75.548" y1="92.854" x2="67.371" y2="84.677"/>
<line fill="none" stroke="#2D2F65" stroke-width="2.5" stroke-linecap="round" stroke-linejoin="round" stroke-miterlimit="10" x1="75.548" y1="92.854" x2="67.371" y2="84.677"/>
<polyline fill="none" stroke="#2D2F65" stroke-width="2.5" stroke-linecap="round" stroke-linejoin="round" stroke-miterlimit="10" points="
	9.046,33.859 5.522,37.382 28.602,60.459 "/>
<path fill="none" stroke="#2D2F65" stroke-width="2.5" stroke-linecap="round" stroke-linejoin="round" stroke-miterlimit="10" d="
	M24.822,56.389l-0.146,0.146l3.926,3.925l0.146-0.146c1.084-1.084,1.084-2.841,0-3.925C27.663,55.306,25.905,55.306,24.822,56.389z"
	/>
<g>
	<g>
		<g>
			<defs>
				<rect id="SVGID_5_" x="43.57" y="15.229" width="15.256" height="15.255"/>
			</defs>
			<clipPath id="SVGID_6_">
				<use xlink:href="#SVGID_5_"  overflow="visible"/>
			</clipPath>
			<path clip-path="url(#SVGID_6_)" fill="#F0883B" d="M56.197,30.483h-9.999c-1.451,0-2.628-1.177-2.628-2.628v-9.998
				c0-1.452,1.177-2.629,2.628-2.629h9.999c1.452,0,2.628,1.177,2.628,2.629v9.998C58.825,29.306,57.649,30.483,56.197,30.483"/>
		</g>
	</g>
</g>
<line fill="none" x1="87.32" y1="2" x2="86.111" y2="2"/>
<line fill="none" stroke="#2D2F65" stroke-width="2.5" stroke-linecap="round" stroke-linejoin="round" stroke-miterlimit="10" x1="87.32" y1="2" x2="86.111" y2="2"/>
</svg>
