<?xml version="1.0" encoding="utf-8"?>
<!-- Generator: Adobe Illustrator 16.0.0, SVG Export Plug-In . SVG Version: 6.00 Build 0)  -->
<!DOCTYPE svg PUBLIC "-//W3C//DTD SVG 1.1//EN" "http://www.w3.org/Graphics/SVG/1.1/DTD/svg11.dtd">
<svg version="1.1" id="Layer_1" xmlns="http://www.w3.org/2000/svg" xmlns:xlink="http://www.w3.org/1999/xlink" x="0px" y="0px"
	 width="129px" height="120.274px" viewBox="0 0 129 120.274" enable-background="new 0 0 129 120.274" xml:space="preserve">
<path fill="#FAD4CE" d="M82.923,64.046c-2.028,0-3.672,1.644-3.671,3.671l-0.001-1.885c0-2.028-1.643-3.671-3.671-3.671
	c-2.028,0-3.672,1.644-3.672,3.671l-0.001-1.986c0.001-2.028-1.643-3.672-3.671-3.671c-2.028,0-3.671,1.643-3.671,3.671l0,1.987
	c0-0.189-0.029-0.37-0.056-0.551V46.672c0-2.012-1.631-3.644-3.643-3.643c-2.013-0.001-3.645,1.631-3.645,3.643l0,19.16v0.953v2.19
	l0,10.359l-6.129-3.077c-0.713-0.358-1.498-0.552-2.296-0.563l-0.981-0.015c-2.236-0.033-4.253,1.342-5.038,3.438l1.616,0.745
	c3.688,1.701,6.902,4.278,9.365,7.509l7.992,10.485l0,10.482h20.317V97.855l4.528-12.834V68.976v-1.259
	C86.595,65.69,84.951,64.046,82.923,64.046"/>
<path fill="none" stroke="#2D2F65" stroke-width="2.5" stroke-linecap="round" stroke-linejoin="round" stroke-miterlimit="10" d="
	M82.923,64.046c-2.028,0-3.672,1.644-3.671,3.671l-0.001-1.885c0-2.028-1.643-3.671-3.671-3.671c-2.028,0-3.672,1.644-3.672,3.671
	l-0.001-1.986c0.001-2.028-1.643-3.672-3.671-3.671c-2.028,0-3.671,1.643-3.671,3.671l0,1.987c0-0.189-0.029-0.37-0.056-0.551
	V46.672c0-2.012-1.631-3.644-3.643-3.643c-2.013-0.001-3.645,1.631-3.645,3.643l0,19.16v0.953v2.19l0,10.359l-6.129-3.077
	c-0.713-0.358-1.498-0.552-2.296-0.563l-0.981-0.015c-2.236-0.033-4.253,1.342-5.038,3.438l1.616,0.745
	c3.688,1.701,6.902,4.278,9.365,7.509l7.992,10.485l0,10.482h20.317V97.855l4.528-12.834V68.976v-1.259
	C86.595,65.69,84.951,64.046,82.923,64.046z"/>
<rect x="58.793" y="102.258" fill="#FFFFFF" width="26.23" height="6.076"/>
<rect x="58.793" y="102.258" fill="none" stroke="#2D2F65" stroke-width="2.5" stroke-linecap="round" stroke-linejoin="round" stroke-miterlimit="10" width="26.23" height="6.076"/>
<polyline fill="#FFFFFF" points="57.391,120.274 57.391,108.334 86.426,108.333 86.427,120.274 "/>
<polyline fill="none" stroke="#2D2F65" stroke-width="2.5" stroke-linecap="round" stroke-linejoin="round" stroke-miterlimit="10" points="
	57.391,120.274 57.391,108.334 86.426,108.333 86.427,120.274 "/>
<g>
	<g>
		<defs>
			
				<rect id="SVGID_1_" x="57.034" y="100.751" transform="matrix(-0.7071 -0.7071 0.7071 -0.7071 39.6716 245.0402)" width="27.104" height="27.105"/>
		</defs>
		<clipPath id="SVGID_2_">
			<use xlink:href="#SVGID_1_"  overflow="visible"/>
		</clipPath>
		<rect x="57.391" y="108.334" clip-path="url(#SVGID_2_)" fill="#939BCD" width="26.391" height="11.94"/>
	</g>
</g>
<line fill="#FAD4CE" x1="57.222" y1="79.334" x2="57.222" y2="83.078"/>
<line fill="none" stroke="#2D2F65" stroke-width="2.5" stroke-linecap="round" stroke-linejoin="round" stroke-miterlimit="10" x1="57.222" y1="79.334" x2="57.222" y2="83.078"/>
<path fill="#F0883B" d="M113.258,15.301c0,5.557-4.504,10.061-10.062,10.061c-5.556,0-10.06-4.504-10.06-10.061
	c0-5.556,4.504-10.061,10.06-10.061C108.754,5.24,113.258,9.745,113.258,15.301"/>
<circle fill="none" stroke="#2D2F65" stroke-width="2.5" stroke-linecap="round" stroke-linejoin="round" stroke-miterlimit="10" cx="103.197" cy="15.301" r="10.061"/>
<path fill="#FAD4CE" d="M74.747,15.301c0,5.557-4.505,10.061-10.061,10.061c-5.557,0-10.062-4.504-10.062-10.061
	c0-5.556,4.505-10.061,10.062-10.061C70.242,5.24,74.747,9.745,74.747,15.301"/>
<circle fill="none" stroke="#2D2F65" stroke-width="2.5" stroke-linecap="round" stroke-linejoin="round" stroke-miterlimit="10" cx="64.686" cy="15.301" r="10.061"/>
<path fill="#EAB64A" d="M36.235,15.301c0,5.557-4.504,10.061-10.061,10.061c-5.556,0-10.061-4.504-10.061-10.061
	c0-5.556,4.505-10.061,10.061-10.061C31.731,5.24,36.235,9.745,36.235,15.301"/>
<circle fill="none" stroke="#2D2F65" stroke-width="2.5" stroke-linecap="round" stroke-linejoin="round" stroke-miterlimit="10" cx="26.175" cy="15.301" r="10.061"/>
<g>
	
		<line fill="none" stroke="#2D2F65" stroke-width="2.5" stroke-linecap="round" stroke-linejoin="round" stroke-miterlimit="10" x1="113.664" y1="69.567" x2="120.925" y2="69.567"/>
	
		<line fill="none" stroke="#2D2F65" stroke-width="2.5" stroke-linecap="round" stroke-linejoin="round" stroke-miterlimit="10" x1="110.105" y1="56.33" x2="116.393" y2="52.699"/>
	
		<line fill="none" stroke="#2D2F65" stroke-width="2.5" stroke-linecap="round" stroke-linejoin="round" stroke-miterlimit="10" x1="110.104" y1="82.804" x2="116.394" y2="86.436"/>
</g>
<g>
	
		<line fill="none" stroke="#2D2F65" stroke-width="2.5" stroke-linecap="round" stroke-linejoin="round" stroke-miterlimit="10" x1="17.965" y1="69.566" x2="10.704" y2="69.566"/>
	
		<line fill="none" stroke="#2D2F65" stroke-width="2.5" stroke-linecap="round" stroke-linejoin="round" stroke-miterlimit="10" x1="21.523" y1="82.804" x2="15.236" y2="86.435"/>
	
		<line fill="none" stroke="#2D2F65" stroke-width="2.5" stroke-linecap="round" stroke-linejoin="round" stroke-miterlimit="10" x1="21.524" y1="56.33" x2="15.235" y2="52.698"/>
</g>
</svg>
