<?xml version="1.0" encoding="utf-8"?>
<!-- Generator: Adobe Illustrator 16.0.0, SVG Export Plug-In . SVG Version: 6.00 Build 0)  -->
<!DOCTYPE svg PUBLIC "-//W3C//DTD SVG 1.1//EN" "http://www.w3.org/Graphics/SVG/1.1/DTD/svg11.dtd">
<svg version="1.1" id="Layer_1" xmlns="http://www.w3.org/2000/svg" xmlns:xlink="http://www.w3.org/1999/xlink" x="0px" y="0px"
	 width="249px" height="508.499px" viewBox="0 0 249 508.499" enable-background="new 0 0 249 508.499" xml:space="preserve">
<g>
	<ellipse fill="none" stroke="#216CAD" stroke-miterlimit="10" cx="231.646" cy="508.499" rx="0.75" ry="0"/>
</g>
<path fill="#777878" d="M197.989,10.599H52.104c-23.303,0-42.193,18.891-42.193,42.192v404.763
	c0,23.303,18.891,42.192,42.193,42.192h145.886c23.302,0,42.192-18.89,42.192-42.192V52.791
	C240.182,29.489,221.291,10.599,197.989,10.599z M99.883,44.836h52.473c1.9,0,3.441,1.54,3.441,3.441c0,1.9-1.541,3.441-3.441,3.441
	H99.883c-1.901,0-3.441-1.541-3.441-3.441C96.441,46.376,97.981,44.836,99.883,44.836z M126.119,483.656
	c-11.257,0-20.382-9.125-20.382-20.382c0-11.256,9.125-20.381,20.382-20.381c11.256,0,20.381,9.125,20.381,20.381
	C146.5,474.531,137.375,483.656,126.119,483.656z M223.972,430.379H27.55V77.82h196.422V430.379z"/>
</svg>
