<?xml version="1.0" encoding="utf-8"?>
<!-- Generator: Adobe Illustrator 16.0.0, SVG Export Plug-In . SVG Version: 6.00 Build 0)  -->
<!DOCTYPE svg PUBLIC "-//W3C//DTD SVG 1.1//EN" "http://www.w3.org/Graphics/SVG/1.1/DTD/svg11.dtd">
<svg version="1.1" id="Layer_1" xmlns="http://www.w3.org/2000/svg" xmlns:xlink="http://www.w3.org/1999/xlink" x="0px" y="0px"
	 width="104.332px" height="105.664px" viewBox="0 0 104.332 105.664" enable-background="new 0 0 104.332 105.664"
	 xml:space="preserve">
<circle fill="#FFAEC9" stroke="#2A2E62" stroke-width="2.5" stroke-linecap="round" stroke-linejoin="round" stroke-miterlimit="10" cx="50.538" cy="49.68" r="45.857"/>
<circle fill="#FFFFFF" stroke="#2A2E62" stroke-width="2.5" stroke-linecap="round" stroke-linejoin="round" stroke-miterlimit="10" cx="50.538" cy="49.68" r="33.866"/>
<g>
	<path fill="none" stroke="#2A2E62" stroke-width="2.5" stroke-linecap="round" stroke-linejoin="round" stroke-miterlimit="10" d="
		M73.884,74.95V63.738c0-3.473-2.397-6.487-5.782-7.271l-7.943-1.833c-3.385-0.781-5.782-3.796-5.782-7.269V36.722h-7.674v10.646
		c0,3.472-2.397,6.487-5.782,7.269l-7.943,1.833c-3.385,0.782-5.784,3.796-5.784,7.271v11.21"/>
	
		<path fill="#FFFFFF" stroke="#2A2E62" stroke-width="2.5" stroke-linecap="round" stroke-linejoin="round" stroke-miterlimit="10" d="
		M51.639,49.296h-2.203c-4.389,0-7.948-3.559-7.948-7.949v-8.989c0-4.391,3.56-7.949,7.948-7.949h2.203
		c4.388,0,7.95,3.558,7.95,7.949v8.989C59.589,45.737,56.027,49.296,51.639,49.296z"/>
</g>
<circle fill="#7BC3FF" stroke="#2A2E62" stroke-width="2.5" stroke-linecap="round" stroke-linejoin="round" stroke-miterlimit="10" cx="81.971" cy="83.705" r="16.943"/>
<g>
	
		<line fill="none" stroke="#2A2E62" stroke-width="2.5" stroke-linecap="round" stroke-linejoin="round" stroke-miterlimit="10" x1="82.128" y1="77.219" x2="82.128" y2="90.99"/>
	
		<line fill="none" stroke="#2A2E62" stroke-width="2.5" stroke-linecap="round" stroke-linejoin="round" stroke-miterlimit="10" x1="75.086" y1="83.73" x2="88.855" y2="83.73"/>
</g>
</svg>
