<?xml version="1.0" encoding="utf-8"?>
<!-- Generator: Adobe Illustrator 16.0.0, SVG Export Plug-In . SVG Version: 6.00 Build 0)  -->
<!DOCTYPE svg PUBLIC "-//W3C//DTD SVG 1.1//EN" "http://www.w3.org/Graphics/SVG/1.1/DTD/svg11.dtd">
<svg version="1.1" id="Layer_1" xmlns="http://www.w3.org/2000/svg" xmlns:xlink="http://www.w3.org/1999/xlink" x="0px" y="0px"
	 width="105px" height="135px" viewBox="0 0 105 135" enable-background="new 0 0 105 135" xml:space="preserve">
<path fill="#FAD4CE" d="M74.154,106.361h-2.309c2.358,0,4.278,1.92,4.278,4.279c0,2.369-1.92,4.289-4.278,4.289h-10.07v8.58h-12.34
	l-14.99-5.29h-12.24V94.49h12.24L45.495,82.1h15.562v7.11h10.789c2.359,0,4.279,1.92,4.279,4.279c0,2.37-1.92,4.291-4.279,4.291
	h2.311c2.369,0,4.289,1.92,4.289,4.288C78.445,104.441,76.525,106.361,74.154,106.361"/>
<path fill="none" stroke="#2D2F65" stroke-width="2.5" stroke-linecap="round" stroke-linejoin="round" stroke-miterlimit="10" d="
	M74.154,106.361h-2.309c2.358,0,4.278,1.92,4.278,4.279c0,2.369-1.92,4.289-4.278,4.289h-10.07v8.58h-12.34l-14.99-5.29h-12.24
	V94.49h12.24L45.495,82.1h15.562v7.11h10.789c2.359,0,4.279,1.92,4.279,4.279c0,2.37-1.92,4.291-4.279,4.291h2.311
	c2.369,0,4.289,1.92,4.289,4.288C78.445,104.441,76.525,106.361,74.154,106.361z"/>
<rect x="22.209" y="91.041" fill="#FFFFFF" width="7.096" height="30.632"/>
<rect x="22.209" y="91.041" fill="none" stroke="#2D2F65" stroke-width="2.5" stroke-linecap="round" stroke-linejoin="round" stroke-miterlimit="10" width="7.096" height="30.632"/>
<polyline fill="#FFFFFF" points="8.265,89.402 22.209,89.402 22.209,123.311 8.265,123.311 "/>
<polyline fill="none" stroke="#2D2F65" stroke-width="2.5" stroke-linecap="round" stroke-linejoin="round" stroke-miterlimit="10" points="
	8.265,89.402 22.209,89.402 22.209,123.311 8.265,123.311 "/>
<g>
	<g>
		<g>
			<defs>
				<rect id="SVGID_1_" x="7.266" y="90.404" width="13.943" height="30.004"/>
			</defs>
			<clipPath id="SVGID_2_">
				<use xlink:href="#SVGID_1_"  overflow="visible"/>
			</clipPath>
			<rect x="7.266" y="90.404" clip-path="url(#SVGID_2_)" fill="#276EC5" width="13.943" height="30.004"/>
		</g>
	</g>
</g>
<path fill="#FFFFFF" d="M62.209,79.014v47.826c0,1.444-1.171,2.616-2.616,2.616h-4.653c-1.443,0-2.615-1.172-2.615-2.616V79.014
	c0-1.443,1.172-2.615,2.615-2.615h4.652C61.038,76.396,62.209,77.568,62.209,79.014"/>
<path fill="none" stroke="#2D2F65" stroke-width="2.5" stroke-linecap="round" stroke-linejoin="round" stroke-miterlimit="10" d="
	M62.209,79.014v47.826c0,1.444-1.171,2.616-2.616,2.616h-4.653c-1.443,0-2.615-1.172-2.615-2.616V79.014
	c0-1.443,1.172-2.615,2.615-2.615h4.652C61.038,76.396,62.209,77.568,62.209,79.014z"/>
<path fill="#FAD4CE" d="M71.841,97.781H59.76c-2.367,0-4.287-1.92-4.287-4.288c0-2.367,1.92-4.287,4.287-4.287h12.081
	c2.368,0,4.288,1.92,4.288,4.287C76.129,95.861,74.209,97.781,71.841,97.781"/>
<path fill="none" stroke="#2D2F65" stroke-width="2.5" stroke-linecap="round" stroke-linejoin="round" stroke-miterlimit="10" d="
	M71.841,97.781H59.76c-2.367,0-4.287-1.92-4.287-4.288c0-2.367,1.92-4.287,4.287-4.287h12.081c2.368,0,4.288,1.92,4.288,4.287
	C76.129,95.861,74.209,97.781,71.841,97.781z"/>
<path fill="#FAD4CE" d="M74.16,106.357H62.079c-2.367,0-4.287-1.92-4.287-4.289c0-2.367,1.92-4.287,4.287-4.287H74.16
	c2.367,0,4.288,1.92,4.288,4.287C78.448,104.438,76.527,106.357,74.16,106.357"/>
<path fill="none" stroke="#2D2F65" stroke-width="2.5" stroke-linecap="round" stroke-linejoin="round" stroke-miterlimit="10" d="
	M74.16,106.357H62.079c-2.367,0-4.287-1.92-4.287-4.289c0-2.367,1.92-4.287,4.287-4.287H74.16c2.367,0,4.288,1.92,4.288,4.287
	C78.448,104.438,76.527,106.357,74.16,106.357z"/>
<path fill="#FAD4CE" d="M74.508,114.932h-12.08c-2.367,0-4.287-1.918-4.287-4.287c0-2.367,1.92-4.287,4.287-4.287h12.08
	c2.368,0,4.288,1.92,4.288,4.287C78.796,113.014,76.876,114.932,74.508,114.932"/>
<path fill="none" stroke="#2D2F65" stroke-width="2.5" stroke-linecap="round" stroke-linejoin="round" stroke-miterlimit="10" d="
	M74.508,114.932h-12.08c-2.367,0-4.287-1.918-4.287-4.287c0-2.367,1.92-4.287,4.287-4.287h12.08c2.368,0,4.288,1.92,4.288,4.287
	C78.796,113.014,76.876,114.932,74.508,114.932z"/>
<path fill="#FAD4CE" d="M68.229,123.508h-7.08c-2.369,0-4.289-1.92-4.289-4.288s1.92-4.288,4.289-4.288h7.08
	c2.367,0,4.287,1.92,4.287,4.288S70.596,123.508,68.229,123.508"/>
<path fill="none" stroke="#2D2F65" stroke-width="2.5" stroke-linecap="round" stroke-linejoin="round" stroke-miterlimit="10" d="
	M68.229,123.508h-7.08c-2.369,0-4.289-1.92-4.289-4.288s1.92-4.288,4.289-4.288h7.08c2.367,0,4.287,1.92,4.287,4.288
	S70.596,123.508,68.229,123.508z"/>
<path fill="#FAD4CE" d="M36.953,104.693L36.953,104.693c12.633,0,16.266-12.248,16.266-12.248l9.09-1.373
	c3.648-1.07,6.437-4.668,6.809-8.782l0.082-0.91l-24.995,0.584l-9.758,12.527"/>
<path fill="none" stroke="#2D2F65" stroke-width="2.5" stroke-linecap="round" stroke-linejoin="round" stroke-miterlimit="10" d="
	M36.953,104.693L36.953,104.693c12.633,0,16.266-12.248,16.266-12.248l9.09-1.373c3.648-1.07,6.437-4.668,6.809-8.782l0.082-0.91
	l-24.995,0.584l-9.758,12.527"/>
<path fill="none" stroke="#2D2F65" stroke-width="2.5" stroke-linecap="round" stroke-linejoin="round" stroke-miterlimit="10" d="
	M97.064,53.04c-1.676,6.484-4.922,12.537-9.482,17.522"/>
<path fill="none" stroke="#2D2F65" stroke-width="2.5" stroke-linecap="round" stroke-linejoin="round" stroke-miterlimit="10" d="
	M98.368,42.834c0,0.344-0.005,0.688-0.015,1.032"/>
<path fill="none" stroke="#2D2F65" stroke-width="2.5" stroke-linecap="round" stroke-linejoin="round" stroke-miterlimit="10" d="
	M18.543,29.188c3.275-9.182,9.768-17.132,18.394-22.066"/>
<path fill="none" stroke="#2D2F65" stroke-width="2.5" stroke-linecap="round" stroke-linejoin="round" stroke-miterlimit="10" d="
	M16.165,42.834c0-0.889,0.029-1.775,0.088-2.657"/>
<path fill="#FFFFFF" d="M92.369,42.834c0,19.386-15.717,35.102-35.104,35.102c-19.386,0-35.1-15.714-35.1-35.102
	c0-19.387,15.715-35.102,35.102-35.102C76.652,7.732,92.369,23.448,92.369,42.834"/>
<circle fill="none" stroke="#2D2F65" stroke-width="2.5" stroke-linecap="round" stroke-linejoin="round" stroke-miterlimit="10" cx="57.268" cy="42.834" r="35.102"/>
<g>
	<g>
		<g>
			<defs>
				<rect id="SVGID_3_" x="27.868" y="13.436" width="58.797" height="58.796"/>
			</defs>
			<clipPath id="SVGID_4_">
				<use xlink:href="#SVGID_3_"  overflow="visible"/>
			</clipPath>
			<path clip-path="url(#SVGID_4_)" fill="#7BC3FF" d="M86.665,42.834c0,16.236-13.161,29.398-29.397,29.398
				c-16.237,0-29.398-13.163-29.398-29.398S41.03,13.437,57.268,13.437C73.504,13.437,86.665,26.599,86.665,42.834"/>
		</g>
	</g>
</g>
<path fill="#FFFFFF" d="M72.818,60.668V53.2c0-2.314-1.598-4.322-3.854-4.842l-5.292-1.222c-2.254-0.52-3.851-2.528-3.851-4.842
	v-7.091H54.71v7.091c0,2.314-1.597,4.322-3.852,4.842l-5.291,1.222c-2.255,0.52-3.853,2.528-3.853,4.842v7.468"/>
<path fill="none" stroke="#2D2F65" stroke-width="2.5" stroke-linecap="round" stroke-linejoin="round" stroke-miterlimit="10" d="
	M72.818,60.668V53.2c0-2.314-1.598-4.322-3.854-4.842l-5.292-1.222c-2.254-0.52-3.851-2.528-3.851-4.842v-7.091H54.71v7.091
	c0,2.314-1.597,4.322-3.852,4.842l-5.291,1.222c-2.255,0.52-3.853,2.528-3.853,4.842v7.468"/>
<path fill="#FFFFFF" d="M58,43.579h-1.467c-2.926,0-5.295-2.371-5.295-5.295v-5.988c0-2.925,2.37-5.296,5.295-5.296H58
	c2.925,0,5.296,2.371,5.296,5.296v5.988C63.296,41.208,60.925,43.579,58,43.579"/>
<path fill="none" stroke="#2D2F65" stroke-width="2.5" stroke-linecap="round" stroke-linejoin="round" stroke-miterlimit="10" d="
	M58,43.579h-1.467c-2.926,0-5.295-2.371-5.295-5.295v-5.988c0-2.925,2.37-5.296,5.295-5.296H58c2.925,0,5.296,2.371,5.296,5.296
	v5.988C63.296,41.208,60.925,43.579,58,43.579z"/>
<line fill="none" x1="47.18" y1="57.056" x2="47.18" y2="60.668"/>
<line fill="none" stroke="#2D2F65" stroke-width="2.5" stroke-linecap="round" stroke-linejoin="round" stroke-miterlimit="10" x1="47.18" y1="57.056" x2="47.18" y2="60.668"/>
<line fill="none" x1="67.354" y1="57.056" x2="67.354" y2="60.668"/>
<line fill="none" stroke="#2D2F65" stroke-width="2.5" stroke-linecap="round" stroke-linejoin="round" stroke-miterlimit="10" x1="67.354" y1="57.056" x2="67.354" y2="60.668"/>
<path fill="#FFFFFF" d="M17.063,98.852c0,1.371-1.112,2.483-2.484,2.483s-2.484-1.112-2.484-2.483c0-1.373,1.112-2.483,2.484-2.483
	S17.063,97.479,17.063,98.852"/>
<circle fill="none" stroke="#2D2F65" stroke-width="2.5" stroke-linecap="round" stroke-linejoin="round" stroke-miterlimit="10" cx="14.578" cy="98.852" r="2.484"/>
</svg>
