<?xml version="1.0" encoding="utf-8"?>
<!-- Generator: Adobe Illustrator 16.0.0, SVG Export Plug-In . SVG Version: 6.00 Build 0)  -->
<!DOCTYPE svg PUBLIC "-//W3C//DTD SVG 1.1//EN" "http://www.w3.org/Graphics/SVG/1.1/DTD/svg11.dtd">
<svg version="1.1" id="Layer_1" xmlns="http://www.w3.org/2000/svg" xmlns:xlink="http://www.w3.org/1999/xlink" x="0px" y="0px"
	 width="115px" height="131px" viewBox="0 0 115 131" enable-background="new 0 0 115 131" xml:space="preserve">
<line fill="none" x1="3" y1="51.635" x2="3" y2="21.311"/>
<line fill="none" stroke="#2D2F65" stroke-width="2.5" stroke-linecap="round" stroke-linejoin="round" stroke-miterlimit="10" x1="3" y1="51.635" x2="3" y2="21.311"/>
<line fill="none" x1="3" y1="63.412" x2="3" y2="61.199"/>
<line fill="none" stroke="#2D2F65" stroke-width="2.5" stroke-linecap="round" stroke-linejoin="round" stroke-miterlimit="10" x1="3" y1="63.412" x2="3" y2="61.199"/>
<path fill="#FFAEC9" d="M85.923,120.22H15.809c-3.761,0-6.81-3.048-6.81-6.809v-96.1c0-3.761,3.049-6.809,6.81-6.809h70.114
	c3.761,0,6.81,3.048,6.81,6.809v96.101C92.732,117.172,89.684,120.22,85.923,120.22"/>
<path fill="none" stroke="#2D2F65" stroke-width="2.5" stroke-linecap="round" stroke-linejoin="round" stroke-miterlimit="10" d="
	M85.923,120.22H15.809c-3.761,0-6.81-3.048-6.81-6.809v-96.1c0-3.761,3.049-6.809,6.81-6.809h70.114c3.761,0,6.81,3.048,6.81,6.809
	v96.101C92.732,117.172,89.684,120.22,85.923,120.22z"/>
<rect x="16.915" y="18.418" fill="#FFFFFF" width="67.901" height="93.887"/>
<rect x="16.915" y="18.418" fill="none" stroke="#2D2F65" stroke-width="2.5" stroke-linecap="round" stroke-linejoin="round" stroke-miterlimit="10" width="67.901" height="93.887"/>
<path fill="#FFFFFF" d="M66.596,9.399C63.938,5.634,57.899,3,50.865,3c-7.033,0-13.071,2.634-15.729,6.399h-5.45v14.979h42.36V9.399
	H66.596z"/>
<g>
	<g>
		<g>
			<g>
				<defs>
					<rect id="SVGID_1_" x="32.637" y="6.432" width="39.409" height="17.946"/>
				</defs>
				<clipPath id="SVGID_2_">
					<use xlink:href="#SVGID_1_"  overflow="visible"/>
				</clipPath>
				<path clip-path="url(#SVGID_2_)" fill="#7BC3FF" d="M66.975,11.804c-2.473-3.161-8.09-5.372-14.634-5.372
					c-6.543,0-12.16,2.211-14.633,5.372h-5.071v12.574h39.409V11.804H66.975z"/>
			</g>
		</g>
	</g>
</g>
<path fill="none" stroke="#2D2F65" stroke-width="2.5" stroke-linecap="round" stroke-linejoin="round" stroke-miterlimit="10" d="
	M66.596,9.399C63.938,5.634,57.899,3,50.865,3c-7.033,0-13.071,2.634-15.729,6.399h-5.45v14.979h42.36V9.399H66.596z"/>
<path fill="#FFFFFF" d="M53.241,11.7c0,1.313-1.063,2.375-2.375,2.375c-1.313,0-2.375-1.063-2.375-2.375s1.063-2.375,2.375-2.375
	S53.241,10.389,53.241,11.7"/>
<circle fill="none" stroke="#2D2F65" stroke-width="2.5" stroke-linecap="round" stroke-linejoin="round" stroke-miterlimit="10" cx="50.866" cy="11.7" r="2.375"/>
<g>
	<g>
		<g>
			<g>
				<defs>
					<rect id="SVGID_3_" x="33.867" y="31.365" width="33.996" height="33.996"/>
				</defs>
				<clipPath id="SVGID_4_">
					<use xlink:href="#SVGID_3_"  overflow="visible"/>
				</clipPath>
				<path clip-path="url(#SVGID_4_)" fill="#7BC3FF" d="M62.109,65.361H39.622c-3.179,0-5.755-2.577-5.755-5.755V37.119
					c0-3.179,2.576-5.755,5.755-5.755h22.487c3.178,0,5.754,2.576,5.754,5.755v22.487C67.863,62.784,65.287,65.361,62.109,65.361"/>
			</g>
		</g>
	</g>
</g>
<path fill="#FFFFFF" d="M62.547,61.199V55.59c0-1.738-1.199-3.245-2.893-3.638l-3.976-0.917c-1.693-0.392-2.893-1.898-2.893-3.638
	v-5.326h-3.84v5.326c0,1.739-1.2,3.246-2.895,3.638l-3.974,0.917c-1.694,0.393-2.894,1.899-2.894,3.638v5.609"/>
<path fill="none" stroke="#2D2F65" stroke-width="2.5" stroke-linecap="round" stroke-linejoin="round" stroke-miterlimit="10" d="
	M62.547,61.199V55.59c0-1.738-1.199-3.245-2.893-3.638l-3.976-0.917c-1.693-0.392-2.893-1.898-2.893-3.638v-5.326h-3.84v5.326
	c0,1.739-1.2,3.246-2.895,3.638l-3.974,0.917c-1.694,0.393-2.894,1.899-2.894,3.638v5.609"/>
<path fill="#FFFFFF" d="M51.416,48.362h-1.102c-2.196,0-3.978-1.78-3.978-3.978v-4.498c0-2.196,1.781-3.978,3.978-3.978h1.102
	c2.197,0,3.979,1.781,3.979,3.978v4.498C55.395,46.582,53.613,48.362,51.416,48.362"/>
<path fill="none" stroke="#2D2F65" stroke-width="2.5" stroke-linecap="round" stroke-linejoin="round" stroke-miterlimit="10" d="
	M51.416,48.362h-1.102c-2.196,0-3.978-1.78-3.978-3.978v-4.498c0-2.196,1.781-3.978,3.978-3.978h1.102
	c2.197,0,3.979,1.781,3.979,3.978v4.498C55.395,46.582,53.613,48.362,51.416,48.362z"/>
<line fill="none" x1="43.288" y1="58.486" x2="43.288" y2="61.199"/>
<line fill="none" stroke="#2D2F65" stroke-width="2.5" stroke-linecap="round" stroke-linejoin="round" stroke-miterlimit="10" x1="43.288" y1="58.486" x2="43.288" y2="61.199"/>
<line fill="none" x1="58.441" y1="58.486" x2="58.441" y2="61.199"/>
<line fill="none" stroke="#2D2F65" stroke-width="2.5" stroke-linecap="round" stroke-linejoin="round" stroke-miterlimit="10" x1="58.441" y1="58.486" x2="58.441" y2="61.199"/>
<path fill="none" stroke="#2D2F65" stroke-width="2.5" stroke-linecap="round" stroke-linejoin="round" stroke-miterlimit="10" d="
	M110.182,117.461c-1.873,3.521-4.574,6.539-7.84,8.792"/>
<path fill="none" stroke="#2D2F65" stroke-width="2.5" stroke-linecap="round" stroke-linejoin="round" stroke-miterlimit="10" d="
	M113.061,105.889c0,0.488-0.015,0.976-0.043,1.455"/>
<path fill="#7BC3FF" d="M107.061,105.889c0,10.342-8.384,18.726-18.724,18.726c-10.341,0-18.724-8.384-18.724-18.726
	c0-10.341,8.383-18.724,18.724-18.724C98.677,87.165,107.061,95.548,107.061,105.889"/>
<circle fill="none" stroke="#2D2F65" stroke-width="2.5" stroke-linecap="round" stroke-linejoin="round" stroke-miterlimit="10" cx="88.336" cy="105.889" r="18.723"/>
<polyline fill="none" stroke="#FFFFFF" stroke-width="2.5" stroke-linecap="round" stroke-linejoin="round" stroke-miterlimit="10" points="
	98.438,100.593 85.688,113.342 78.234,105.889 "/>
<line fill="none" x1="42.468" y1="74.184" x2="75.238" y2="74.184"/>
<line fill="none" stroke="#2D2F65" stroke-width="2.5" stroke-linecap="round" stroke-linejoin="round" stroke-miterlimit="10" x1="42.468" y1="74.184" x2="75.238" y2="74.184"/>
<line fill="none" x1="26.492" y1="74.184" x2="37.011" y2="74.184"/>
<line fill="none" stroke="#2D2F65" stroke-width="2.5" stroke-linecap="round" stroke-linejoin="round" stroke-miterlimit="10" x1="26.492" y1="74.184" x2="37.011" y2="74.184"/>
<line fill="none" x1="65.037" y1="81.932" x2="75.238" y2="81.932"/>
<line fill="none" stroke="#2D2F65" stroke-width="2.5" stroke-linecap="round" stroke-linejoin="round" stroke-miterlimit="10" x1="65.037" y1="81.932" x2="75.238" y2="81.932"/>
<line fill="none" x1="26.492" y1="81.932" x2="58.443" y2="81.932"/>
<line fill="none" stroke="#2D2F65" stroke-width="2.5" stroke-linecap="round" stroke-linejoin="round" stroke-miterlimit="10" x1="26.492" y1="81.932" x2="58.443" y2="81.932"/>
<line fill="none" x1="26.492" y1="89.682" x2="70.662" y2="89.682"/>
<line fill="none" stroke="#2D2F65" stroke-width="2.5" stroke-linecap="round" stroke-linejoin="round" stroke-miterlimit="10" x1="26.492" y1="89.682" x2="70.662" y2="89.682"/>
<line fill="none" x1="38.194" y1="97.432" x2="65.037" y2="97.432"/>
<line fill="none" stroke="#2D2F65" stroke-width="2.5" stroke-linecap="round" stroke-linejoin="round" stroke-miterlimit="10" x1="38.194" y1="97.432" x2="65.037" y2="97.432"/>
<line fill="none" x1="26.492" y1="97.432" x2="32.637" y2="97.432"/>
<line fill="none" stroke="#2D2F65" stroke-width="2.5" stroke-linecap="round" stroke-linejoin="round" stroke-miterlimit="10" x1="26.492" y1="97.432" x2="32.637" y2="97.432"/>
</svg>
