<?xml version="1.0" encoding="utf-8"?>
<!-- Generator: Adobe Illustrator 16.0.0, SVG Export Plug-In . SVG Version: 6.00 Build 0)  -->
<!DOCTYPE svg PUBLIC "-//W3C//DTD SVG 1.1//EN" "http://www.w3.org/Graphics/SVG/1.1/DTD/svg11.dtd">
<svg version="1.1" id="Layer_1" xmlns="http://www.w3.org/2000/svg" xmlns:xlink="http://www.w3.org/1999/xlink" x="0px" y="0px"
	 width="113px" height="110.037px" viewBox="0 0 113 110.037" enable-background="new 0 0 113 110.037" xml:space="preserve">
<path fill="#FAD4CE" d="M67.005,30.431v2.791c0-2.852,2.319-5.171,5.171-5.171c2.863,0,5.184,2.319,5.184,5.171v12.166h10.365
	v14.909l-6.391,18.11v14.787h-28.67V78.407l-14.97-13.352V46.258h8.591V33.222c0-2.852,2.319-5.171,5.171-5.171
	c2.863,0,5.183,2.319,5.183,5.171v-2.791c0-2.863,2.32-5.183,5.183-5.183S67.005,27.568,67.005,30.431"/>
<path fill="none" stroke="#2D2F65" stroke-width="2.5" stroke-linecap="round" stroke-linejoin="round" stroke-miterlimit="10" d="
	M67.005,30.431v2.791c0-2.852,2.319-5.171,5.171-5.171c2.863,0,5.184,2.319,5.184,5.171v12.166h10.365v14.909l-6.391,18.11v14.787
	h-28.67V78.407l-14.97-13.352V46.258h8.591V33.222c0-2.852,2.319-5.171,5.171-5.171c2.863,0,5.183,2.319,5.183,5.171v-2.791
	c0-2.863,2.32-5.183,5.183-5.183S67.005,27.568,67.005,30.431z"/>
<rect x="48.495" y="84.617" fill="#FFFFFF" width="37.009" height="8.571"/>
<rect x="48.495" y="84.617" fill="none" stroke="#2D2F65" stroke-width="2.5" stroke-linecap="round" stroke-linejoin="round" stroke-miterlimit="10" width="37.009" height="8.571"/>
<polyline fill="#FFFFFF" points="46.518,110.037 46.518,93.188 87.482,93.188 87.482,110.037 "/>
<polyline fill="none" stroke="#2D2F65" stroke-width="2.5" stroke-linecap="round" stroke-linejoin="round" stroke-miterlimit="10" points="
	46.518,110.037 46.518,93.188 87.482,93.188 87.482,110.037 "/>
<g>
	<g>
		<g>
			<defs>
				<rect id="SVGID_1_" x="46.518" y="93.19" width="36.251" height="16.847"/>
			</defs>
			<clipPath id="SVGID_2_">
				<use xlink:href="#SVGID_1_"  overflow="visible"/>
			</clipPath>
			<rect x="46.518" y="93.188" clip-path="url(#SVGID_2_)" fill="#F3BB49" width="36.25" height="16.849"/>
		</g>
	</g>
</g>
<rect x="20.8" y="44.864" fill="#F0883B" width="87.112" height="11.943"/>
<rect x="20.8" y="44.864" fill="none" stroke="#2D2F65" stroke-width="2.5" stroke-linecap="round" stroke-linejoin="round" stroke-miterlimit="10" width="87.112" height="11.943"/>
<path fill="#FAD4CE" d="M56.64,33.228v14.595c0,2.861-2.319,5.18-5.18,5.18s-5.181-2.319-5.181-5.18V33.228
	c0-2.861,2.319-5.18,5.181-5.18C54.32,28.047,56.64,30.367,56.64,33.228"/>
<path fill="none" stroke="#2D2F65" stroke-width="2.5" stroke-linecap="round" stroke-linejoin="round" stroke-miterlimit="10" d="
	M56.64,33.228v14.595c0,2.861-2.319,5.18-5.18,5.18s-5.181-2.319-5.181-5.18V33.228c0-2.861,2.319-5.18,5.181-5.18
	C54.32,28.047,56.64,30.367,56.64,33.228z"/>
<path fill="#FAD4CE" d="M67,30.425V45.02c0,2.861-2.318,5.18-5.18,5.18s-5.181-2.319-5.181-5.18V30.425
	c0-2.861,2.319-5.18,5.181-5.18C64.682,25.245,67,27.564,67,30.425"/>
<path fill="none" stroke="#2D2F65" stroke-width="2.5" stroke-linecap="round" stroke-linejoin="round" stroke-miterlimit="10" d="
	M67,30.425V45.02c0,2.861-2.318,5.18-5.18,5.18s-5.181-2.319-5.181-5.18V30.425c0-2.861,2.319-5.18,5.181-5.18
	C64.682,25.245,67,27.564,67,30.425z"/>
<path fill="#FAD4CE" d="M77.359,30.005V44.6c0,2.861-2.318,5.18-5.18,5.18s-5.181-2.319-5.181-5.18V30.005
	c0-2.861,2.319-5.181,5.181-5.181S77.359,27.145,77.359,30.005"/>
<path fill="none" stroke="#2D2F65" stroke-width="2.5" stroke-linecap="round" stroke-linejoin="round" stroke-miterlimit="10" d="
	M77.359,30.005V44.6c0,2.861-2.318,5.18-5.18,5.18s-5.181-2.319-5.181-5.18V30.005c0-2.861,2.319-5.181,5.181-5.181
	S77.359,27.145,77.359,30.005z"/>
<path fill="#FAD4CE" d="M87.723,37.593v8.554c0,2.861-2.32,5.18-5.183,5.18c-2.86,0-5.181-2.319-5.181-5.18v-8.554
	c0-2.861,2.318-5.18,5.181-5.18S87.723,34.732,87.723,37.593"/>
<path fill="none" stroke="#2D2F65" stroke-width="2.5" stroke-linecap="round" stroke-linejoin="round" stroke-miterlimit="10" d="
	M87.723,37.593v8.554c0,2.861-2.32,5.18-5.183,5.18c-2.86,0-5.181-2.319-5.181-5.18v-8.554c0-2.861,2.318-5.18,5.181-5.18
	S87.723,34.732,87.723,37.593z"/>
<path fill="#FAD4CE" d="M64.99,75.377L64.99,75.377c0-15.262-14.799-19.649-14.799-19.649l-1.657-10.981
	c-1.294-4.409-5.639-7.778-10.61-8.226l-1.101-0.1l0.707,30.198l15.134,11.789"/>
<path fill="none" stroke="#2D2F65" stroke-width="2.5" stroke-linecap="round" stroke-linejoin="round" stroke-miterlimit="10" d="
	M64.99,75.377L64.99,75.377c0-15.262-14.799-19.649-14.799-19.649l-1.657-10.981c-1.294-4.409-5.639-7.778-10.61-8.226l-1.101-0.1
	l0.707,30.198l15.134,11.789"/>
<path fill="#FFFFFF" d="M57.932,99.409c1.657,0,3.002,1.345,3.002,3.001c0,1.657-1.345,3.001-3.002,3.001c-1.657,0-3-1.344-3-3.001
	C54.931,100.754,56.274,99.409,57.932,99.409"/>
<circle fill="none" stroke="#2D2F65" stroke-width="2.5" stroke-linecap="round" stroke-linejoin="round" stroke-miterlimit="10" cx="57.932" cy="102.41" r="3.001"/>
<line fill="none" stroke="#2D2F65" stroke-width="2.5" stroke-linecap="round" stroke-linejoin="round" stroke-miterlimit="10" x1="64.99" y1="13.701" x2="64.99" y2="5"/>
<line fill="none" stroke="#2D2F65" stroke-width="2.5" stroke-linecap="round" stroke-linejoin="round" stroke-miterlimit="10" x1="80.854" y1="17.967" x2="85.204" y2="10.431"/>
<line fill="none" stroke="#2D2F65" stroke-width="2.5" stroke-linecap="round" stroke-linejoin="round" stroke-miterlimit="10" x1="49.126" y1="17.967" x2="44.775" y2="10.431"/>
<polyline fill="none" stroke="#2D2F65" stroke-width="2.5" stroke-linecap="round" stroke-linejoin="round" stroke-miterlimit="10" points="
	4.343,49.014 12.569,46.944 20.796,44.864 20.796,56.804 12.569,54.734 4.343,52.654 "/>
<polyline fill="#F0883B" points="4.342,49.014 12.569,46.944 12.569,54.734 4.342,52.654 "/>
<polyline fill="none" stroke="#2D2F65" stroke-width="2.5" stroke-linecap="round" stroke-linejoin="round" stroke-miterlimit="10" points="
	4.342,49.014 12.569,46.944 12.569,54.734 4.342,52.654 "/>
</svg>
