<?xml version="1.0" encoding="utf-8"?>
<!-- Generator: Adobe Illustrator 16.0.0, SVG Export Plug-In . SVG Version: 6.00 Build 0)  -->
<!DOCTYPE svg PUBLIC "-//W3C//DTD SVG 1.1//EN" "http://www.w3.org/Graphics/SVG/1.1/DTD/svg11.dtd">
<svg version="1.1" id="Layer_1" xmlns="http://www.w3.org/2000/svg" xmlns:xlink="http://www.w3.org/1999/xlink" x="0px" y="0px"
	 width="36.89px" height="60.5px" viewBox="0 0 36.89 60.5" enable-background="new 0 0 36.89 60.5" xml:space="preserve">
<path fill="#FFFFFF" d="M29.445,2.5h-22c-2.757,0-5,2.243-5,5v46c0,2.756,2.243,5,5,5h22c2.757,0,5-2.244,5-5v-46
	C34.445,4.743,32.202,2.5,29.445,2.5z M7.445,4.5h22c1.654,0,3,1.346,3,3v1h-28v-1C4.445,5.846,5.791,4.5,7.445,4.5z M32.445,10.5
	v40h-28v-40H32.445z M29.445,56.5h-22c-1.654,0-3-1.346-3-3v-1h28v1C32.445,55.154,31.099,56.5,29.445,56.5z M7.412,30.5
	c0-6.084,4.949-11.034,11.033-11.034c2.119,0,4.191,0.618,5.992,1.787c0.463,0.301,0.595,0.92,0.294,1.384
	c-0.301,0.463-0.918,0.596-1.384,0.294c-1.476-0.958-3.171-1.465-4.902-1.465c-4.98,0-9.033,4.053-9.033,9.034
	s4.053,9.033,9.033,9.033c4.896,0,9.17-3.977,9-9.348c-0.019-0.552,0.414-1.015,0.966-1.032c0.539-0.048,1.014,0.413,1.032,0.966
	c0.67,4.552-3.715,11.414-10.998,11.414C12.361,41.533,7.412,36.584,7.412,30.5z M18.445,32.431l10.293-10.293
	c0.391-0.391,1.023-0.391,1.414,0s0.391,1.023,0,1.414l-11,11c-0.391,0.391-1.023,0.391-1.414,0l-5.574-5.574
	c-0.391-0.391-0.391-1.023,0-1.414s1.023-0.391,1.414,0L18.445,32.431z"/>
</svg>
