<?xml version="1.0" encoding="utf-8"?>
<!-- Generator: Adobe Illustrator 16.0.0, SVG Export Plug-In . SVG Version: 6.00 Build 0)  -->
<!DOCTYPE svg PUBLIC "-//W3C//DTD SVG 1.1//EN" "http://www.w3.org/Graphics/SVG/1.1/DTD/svg11.dtd">
<svg version="1.1" id="Layer_1" xmlns="http://www.w3.org/2000/svg" xmlns:xlink="http://www.w3.org/1999/xlink" x="0px" y="0px"
	 width="59.467px" height="63.664px" viewBox="0 0 59.467 63.664" enable-background="new 0 0 59.467 63.664" xml:space="preserve">
<path fill="#777878" d="M6.675,4h35.992c1.654,0,3,1.346,3,3v17c0,0.553-0.447,1-1,1s-1-0.447-1-1V7c0-0.552-0.448-1-1-1H6.675
	c-0.552,0-1,0.448-1,1v50c0,0.552,0.448,1,1,1h35.992c0.552,0,1-0.448,1-1V44c0-0.553,0.447-1,1-1s1,0.447,1,1v13
	c0,1.654-1.346,3-3,3H6.675c-1.654,0-3-1.346-3-3V7C3.675,5.346,5.021,4,6.675,4z M58.589,25.738L37.274,47.054l-6.439,3.496
	c-1.748,0.946-3.66-0.965-2.713-2.712l3.599-6.543l21.213-21.213c1.133-1.134,3.11-1.132,4.243,0l1.413,1.414
	C59.759,22.666,59.759,24.568,58.589,25.738z M51.67,29.829l-2.828-2.828L33.237,42.606l-3.357,6.186l6.186-3.357L51.67,29.829z
	 M57.175,22.91l-1.414-1.414c-0.378-0.378-1.033-0.377-1.414,0l-4.091,4.091l2.828,2.828l4.091-4.091
	C57.565,23.935,57.565,23.3,57.175,22.91z M9.572,21V11c0-0.553,0.447-1,1-1h10c0.553,0,1,0.447,1,1v10c0,0.553-0.447,1-1,1h-10
	C10.019,22,9.572,21.553,9.572,21z M11.572,20h8v-8h-8V20z M9.572,27c0-0.553,0.447-1,1-1h10c0.553,0,1,0.447,1,1v10
	c0,0.553-0.447,1-1,1h-10c-0.553,0-1-0.447-1-1V27z M11.572,36h8v-8h-8V36z M9.572,53c0,0.553,0.447,1,1,1h10c0.553,0,1-0.447,1-1
	v-2c0-0.553-0.447-1-1-1s-1,0.447-1,1v1h-8v-8h5c0.553,0,1-0.447,1-1s-0.447-1-1-1h-6c-0.553,0-1,0.447-1,1V53z M38.572,12h-12
	c-0.553,0-1,0.447-1,1s0.447,1,1,1h12c0.553,0,1-0.447,1-1S39.125,12,38.572,12z M38.572,16h-12c-0.553,0-1,0.447-1,1s0.447,1,1,1
	h12c0.553,0,1-0.447,1-1S39.125,16,38.572,16z M39.572,29c0-0.553-0.447-1-1-1h-12c-0.553,0-1,0.447-1,1s0.447,1,1,1h12
	C39.125,30,39.572,29.553,39.572,29z M26.572,32c-0.553,0-1,0.447-1,1s0.447,1,1,1h8c0.553,0,1-0.447,1-1s-0.447-1-1-1H26.572z
	 M23.279,42.293c-0.391-0.391-1.023-0.391-1.414,0l-5.293,5.293l-1.293-1.293c-0.391-0.391-1.023-0.391-1.414,0
	s-0.391,1.023,0,1.414l2,2c0.391,0.391,1.023,0.391,1.414,0l6-6C23.669,43.316,23.669,42.684,23.279,42.293z"/>
</svg>
