<?xml version="1.0" encoding="utf-8"?>
<!-- Generator: Adobe Illustrator 16.0.0, SVG Export Plug-In . SVG Version: 6.00 Build 0)  -->
<!DOCTYPE svg PUBLIC "-//W3C//DTD SVG 1.1//EN" "http://www.w3.org/Graphics/SVG/1.1/DTD/svg11.dtd">
<svg version="1.1" id="Layer_1" xmlns="http://www.w3.org/2000/svg" xmlns:xlink="http://www.w3.org/1999/xlink" x="0px" y="0px"
	 width="115px" height="123px" viewBox="0 0 115 123" enable-background="new 0 0 115 123" xml:space="preserve">
<path fill="#777878" d="M13.956,118.014h71.363c3.28,0,5.948-2.668,5.948-5.948V20.861c0-3.28-2.668-5.948-5.948-5.948H70.886
	c-0.823-2.303-3.003-3.966-5.584-3.966h-8.132c-1.864-7.935-13.597-7.923-15.445,0h-8.146c-2.581,0-4.762,1.663-5.583,3.966h-14.04
	c-3.28,0-5.948,2.668-5.948,5.948v91.205C8.007,115.346,10.675,118.014,13.956,118.014z M33.578,14.913h9.914
	c1.069,0,1.947-0.849,1.981-1.919c0.184-5.666,8.011-5.105,7.932-0.064c-0.018,1.095,0.888,1.983,1.982,1.983h9.914
	c1.092,0,1.983,0.89,1.983,1.982v5.948H31.596v-5.948C31.596,15.803,32.485,14.913,33.578,14.913z M11.973,20.861
	c0-1.093,0.89-1.982,1.983-1.982H27.63v5.948c0,1.095,0.888,1.982,1.982,1.982h39.654c1.096,0,1.983-0.888,1.983-1.982v-5.948
	h14.069c1.092,0,1.982,0.89,1.982,1.982v91.205c0,1.092-0.891,1.983-1.982,1.983H13.956c-1.093,0-1.983-0.891-1.983-1.983V20.861z
	 M106.776,107.245l4.128-13.929v-59.77c0-3.28-2.668-5.948-5.948-5.948h-3.965c-3.28,0-5.948,2.668-5.948,5.948v59.481l4.128,14.218
	C100.29,111.024,105.655,111.021,106.776,107.245z M100.991,31.563h3.965c1.092,0,1.983,0.89,1.983,1.983v11.47h-7.931v-11.47
	C99.008,32.452,99.898,31.563,100.991,31.563z M99.008,48.981h7.931v43.757l-3.965,13.379l-3.966-13.379V48.981z M15.734,108.101
	V24.827c0-1.095,0.888-1.983,1.983-1.983h3.965c1.095,0,1.982,0.888,1.982,1.983c0,1.095-0.888,1.982-1.982,1.982h-1.983v79.309
	h59.481V26.809h-1.982c-1.096,0-1.983-0.888-1.983-1.982c0-1.095,0.887-1.983,1.983-1.983h3.965c1.096,0,1.983,0.888,1.983,1.983
	v83.274c0,1.096-0.887,1.982-1.983,1.982H17.717C16.622,110.083,15.734,109.196,15.734,108.101z M43.492,82.325
	c0,6.56,5.336,11.896,11.896,11.896c6.473,0,11.695-5.065,11.891-11.532c0.033-1.092,0.97-1.983,2.042-1.921
	c1.092,0.033,1.954,0.947,1.921,2.041c-0.259,8.624-7.222,15.378-15.854,15.378c-8.746,0-15.862-7.116-15.862-15.862
	s7.116-15.862,15.862-15.862c2.499,0,4.903,0.577,7.145,1.72c0.976,0.496,1.363,1.69,0.867,2.666
	c-0.496,0.974-1.69,1.365-2.667,0.867c-1.679-0.854-3.478-1.288-5.345-1.288C48.828,70.429,43.492,75.765,43.492,82.325z
	 M71.01,71.01c0.774,0.774,0.774,2.029,0,2.804L56.863,87.959c-0.774,0.775-2.029,0.775-2.804,0l-5.674-5.675
	c-0.774-0.774-0.774-2.029,0-2.804s2.029-0.774,2.804,0l4.272,4.273L68.206,71.01C68.98,70.235,70.235,70.235,71.01,71.01z
	 M39.921,36.723c0-1.095,0.888-1.982,1.983-1.982h15.467c1.095,0,1.982,0.888,1.982,1.982c0,1.095-0.888,1.983-1.982,1.983H41.904
	C40.809,38.706,39.921,37.818,39.921,36.723z M27.636,48.619c0-1.095,0.888-1.983,1.982-1.983h39.641
	c1.096,0,1.983,0.888,1.983,1.983c0,1.095-0.887,1.982-1.983,1.982H29.619C28.524,50.602,27.636,49.714,27.636,48.619z
	 M27.636,56.55c0-1.095,0.888-1.982,1.982-1.982h39.641c1.096,0,1.983,0.888,1.983,1.982c0,1.095-0.887,1.983-1.983,1.983H29.619
	C28.524,58.533,27.636,57.645,27.636,56.55z"/>
</svg>
