<?xml version="1.0" encoding="utf-8"?>
<!-- Generator: Adobe Illustrator 16.0.0, SVG Export Plug-In . SVG Version: 6.00 Build 0)  -->
<!DOCTYPE svg PUBLIC "-//W3C//DTD SVG 1.1//EN" "http://www.w3.org/Graphics/SVG/1.1/DTD/svg11.dtd">
<svg version="1.1" id="Layer_1" xmlns="http://www.w3.org/2000/svg" xmlns:xlink="http://www.w3.org/1999/xlink" x="0px" y="0px"
	 width="64.932px" height="63.468px" viewBox="0 0 64.932 63.468" enable-background="new 0 0 64.932 63.468" xml:space="preserve">
<path fill="#FFFFFF" d="M55.857,5.351h-46c-2.757,0-5,2.243-5,5v30c0,2.757,2.243,5,5,5h46c2.757,0,5-2.243,5-5v-30
	C60.857,7.594,58.614,5.351,55.857,5.351z M9.857,7.351h46c1.654,0,3,1.346,3,3v29h-52v-29C6.857,8.696,8.203,7.351,9.857,7.351z
	 M55.857,43.351h-46c-1.302,0-2.401-0.839-2.816-2h51.633C58.258,42.512,57.159,43.351,55.857,43.351z M21.824,23.351
	c0-6.084,4.949-11.034,11.033-11.034c2.119,0,4.191,0.618,5.991,1.787c0.464,0.301,0.595,0.92,0.294,1.383s-0.92,0.595-1.383,0.295
	c-1.475-0.958-3.17-1.465-4.902-1.465c-4.98,0-9.033,4.053-9.033,9.034s4.053,9.034,9.033,9.034c4.896,0,9.171-3.98,9-9.35
	c-0.019-0.552,0.414-1.014,0.966-1.032c0.561-0.007,1.015,0.415,1.032,0.966c0.688,4.828-3.949,11.416-10.998,11.416
	C26.773,34.385,21.824,29.435,21.824,23.351z M32.857,25.281L43.15,14.988c0.391-0.391,1.023-0.391,1.414,0s0.391,1.023,0,1.414
	l-11,11c-0.391,0.391-1.023,0.391-1.414,0l-5.574-5.574c-0.391-0.391-0.391-1.023,0-1.414s1.023-0.391,1.414,0L32.857,25.281z
	 M28.857,54.351c0,1.124-0.373,2.163-1.002,3h7.002c0.553,0,1,0.448,1,1s-0.447,1-1,1h-15c-0.553,0-1-0.448-1-1s0.447-1,1-1h4
	c1.654,0,3-1.346,3-3v-6c0-0.552,0.447-1,1-1s1,0.448,1,1V54.351z M38.857,48.351v6c0,1.654,1.346,3,3,3h4c0.553,0,1,0.448,1,1
	s-0.447,1-1,1h-4c-2.757,0-5-2.243-5-5v-6c0-0.552,0.447-1,1-1S38.857,47.799,38.857,48.351z"/>
</svg>
