<svg width="80" height="80" viewBox="0 0 80 80" fill="none" xmlns="http://www.w3.org/2000/svg">
<path d="M66.6667 55C63.9 55 61.6667 52.7666 61.6667 50V41.6666C61.6667 38.9 63.9 36.6666 66.6667 36.6666C69.4333 36.6666 71.6667 38.9 71.6667 41.6666V50C71.6667 52.7666 69.4333 55 66.6667 55ZM65 66.6666H68.3333V61.5333C73.9667 60.7333 78.3333 55.8666 78.3333 50H75C75 54.6 71.2667 58.3333 66.6667 58.3333C62.0667 58.3333 58.3333 54.6 58.3333 50H55C55 55.8666 59.3667 60.7333 65 61.5333V66.6666ZM28.3333 40C20.9667 40 15 34.0333 15 26.6666C15 19.3 20.9667 13.3333 28.3333 13.3333C29.9 13.3333 31.4 13.6 32.8 14.1C30 17.5333 28.3333 21.9 28.3333 26.6666C28.3333 31.4333 30 35.8 32.8 39.2333C31.4 39.7333 29.9 40 28.3333 40ZM22.0333 43.7666C17.6333 46.8333 15 51.9 15 57.4V66.6666H1.66666V57.4C1.66666 53.6666 3.69999 50.2333 7.03332 48.5333C11.1667 46.4 16.2333 44.5666 22.0333 43.7666ZM35 26.6666C35 19.3 40.9667 13.3333 48.3333 13.3333C55.7 13.3333 61.6667 19.3 61.6667 26.6666C61.6667 34.0333 55.7 40 48.3333 40C40.9667 40 35 34.0333 35 26.6666ZM41.6667 26.6666C41.6667 30.3333 44.6667 33.3333 48.3333 33.3333C52 33.3333 55 30.3333 55 26.6666C55 23 52 20 48.3333 20C44.6667 20 41.6667 23 41.6667 26.6666ZM48.3333 50C40.4333 50 34.0333 52.4333 30.0667 54.4666C29 55 28.3333 56.1333 28.3333 57.4V60H52.2333C53.9 62.8666 56.4 65.2 59.4 66.6666H21.6667V57.4C21.6667 53.6666 23.7 50.2333 27.0333 48.5333C32.6333 45.6666 39.9 43.3333 48.3333 43.3333C49.6333 43.3333 50.9 43.4 52.1333 43.5C51.0333 45.4666 50.3 47.7 50.0667 50.0333C49.5 50 48.9333 50 48.3333 50Z" fill="black"/>
</svg>
