<svg width="80" height="80" viewBox="0 0 80 80" fill="none" xmlns="http://www.w3.org/2000/svg">
<path d="M13.3334 20H6.66669V66.6667C6.66669 70.3334 9.66669 73.3334 13.3334 73.3334H60V66.6667H13.3334V20ZM66.6667 6.66669H26.6667C23 6.66669 20 9.66669 20 13.3334V53.3334C20 57 23 60 26.6667 60H66.6667C70.3334 60 73.3334 57 73.3334 53.3334V13.3334C73.3334 9.66669 70.3334 6.66669 66.6667 6.66669ZM66.6667 53.3334H26.6667V13.3334H66.6667V53.3334ZM33.3334 30H60V36.6667H33.3334V30ZM33.3334 40H46.6667V46.6667H33.3334V40ZM33.3334 20H60V26.6667H33.3334V20Z" fill="black"/>
</svg>
