<?xml version="1.0" encoding="utf-8"?>
<!-- Generator: Adobe Illustrator 16.0.0, SVG Export Plug-In . SVG Version: 6.00 Build 0)  -->
<!DOCTYPE svg PUBLIC "-//W3C//DTD SVG 1.1//EN" "http://www.w3.org/Graphics/SVG/1.1/DTD/svg11.dtd">
<svg version="1.1" id="Layer_1" xmlns="http://www.w3.org/2000/svg" xmlns:xlink="http://www.w3.org/1999/xlink" x="0px" y="0px"
	 width="2250px" height="1800px" viewBox="0 0 2250 1800" enable-background="new 0 0 2250 1800" xml:space="preserve">
<g>
	<linearGradient id="SVGID_1_" gradientUnits="userSpaceOnUse" x1="112.501" y1="-112.499" x2="2137.5" y2="1912.5001">
		<stop  offset="0" style="stop-color:#5E779A"/>
		<stop  offset="1" style="stop-color:#212B34"/>
	</linearGradient>
	<rect fill="url(#SVGID_1_)" width="2250" height="1800"/>
	<g>
		<linearGradient id="SVGID_2_" gradientUnits="userSpaceOnUse" x1="-491.6553" y1="736.7246" x2="928.8508" y2="736.7246">
			<stop  offset="0" style="stop-color:#5E779A"/>
			<stop  offset="1" style="stop-color:#212B34"/>
		</linearGradient>
		<path fill="url(#SVGID_2_)" d="M174.562,978.369c15.051-34.46,12.537-75.206,30.726-108.119
			c17.22-31.16,50.73-50.394,85.107-59.651s70.364-9.999,105.818-13.237c185.217-16.914,362.863-106.244,486.894-244.836
			c30.453-34.028,59.154-81.706,39.031-122.699c-10.951-22.309-34.733-36.364-59.214-40.642
			c-24.481-4.278-49.682,0.026-73.637,6.639c-58.601,16.179-112.522,45.897-169.91,65.958s-122.195,29.922-178.042,5.902
			c-41.583-17.884-74.547-53.026-117.479-67.371c-55.277-18.469-116.427,1.198-166.678,30.72s-94.591,68.806-146.779,94.751
			c-3.437,1.708-6.907,3.347-10.399,4.939v555.25c15.131-3.756,30.139-8.009,44.981-12.787
			C97.54,1056.267,152.462,1028.969,174.562,978.369z"/>
		<linearGradient id="SVGID_3_" gradientUnits="userSpaceOnUse" x1="-332.3296" y1="1107.957" x2="2855.9878" y2="1107.957">
			<stop  offset="0" style="stop-color:#5E779A"/>
			<stop  offset="1" style="stop-color:#212B34"/>
		</linearGradient>
		<path fill="url(#SVGID_3_)" d="M1739.692,987.504c157.958-85.699,334.874-128.66,510.308-173.935V415.913
			c-101.592,25.543-197.47,72.706-285.625,128.728c-62.896,39.97-122.539,84.924-179.791,132.578
			c-192.241,160.013-368.176,347.658-595.439,452.12c-286.692,131.778-619.711,114.965-919.89,212.179
			C174.604,1372.17,82.61,1415.568,0,1471.442V1800h746.87c158.306-99.541,364.01-127.59,555.751-138.93
			c246.281-14.565,509.37-18.442,713.022-157.697c59.819-40.902,117.19-112.787,88.645-179.395
			c-22.901-53.437-91.987-72.33-149.085-61.385c-57.097,10.944-107.242,43.627-160.581,66.754
			c-53.338,23.128-117.21,36.153-168.043,7.941c-65.765-36.499-80.794-130.723-49.438-199.089
			C1608.498,1069.833,1673.582,1023.372,1739.692,987.504z"/>
	</g>
	<linearGradient id="SVGID_4_" gradientUnits="userSpaceOnUse" x1="1722.7266" y1="615.8848" x2="1995.9111" y2="615.8848">
		<stop  offset="0" style="stop-color:#5E779A"/>
		<stop  offset="1" style="stop-color:#212B34"/>
	</linearGradient>
	<path fill="url(#SVGID_4_)" d="M1911.471,507.785c-31.361-0.356-61.948,9.991-90.635,23.021
		c-29.741,13.509-59.066,30.807-78.495,57.61c-19.428,26.803-26.864,64.963-11.001,94.142c12.866,23.665,38.891,37.607,65.092,40.67
		s52.632-3.452,77.41-12.728c35.17-13.167,69.051-32.628,93.14-62.081C2020,583.594,1999.37,508.784,1911.471,507.785z"/>
	<linearGradient id="SVGID_5_" gradientUnits="userSpaceOnUse" x1="152.5576" y1="1540.6719" x2="352.6475" y2="1540.6719">
		<stop  offset="0" style="stop-color:#5E779A"/>
		<stop  offset="1" style="stop-color:#212B34"/>
	</linearGradient>
	<path fill="url(#SVGID_5_)" d="M288.247,1567.819c20.783-10.979,42.459-22.754,55.316-42.431
		c12.858-19.676,13.076-49.741-5.893-63.622c-15.694-11.485-37.649-7.989-55.974-1.475c-53.786,19.122-99.197,60.677-123.005,112.56
		c-13.145,28.645-5.987,64.771,29.504,51.345C221.248,1611.693,256.294,1584.7,288.247,1567.819z"/>
	<linearGradient id="SVGID_6_" gradientUnits="userSpaceOnUse" x1="285.7417" y1="432.7534" x2="500.8042" y2="432.7534">
		<stop  offset="0" style="stop-color:#5E779A"/>
		<stop  offset="1" style="stop-color:#212B34"/>
	</linearGradient>
	<path fill="url(#SVGID_6_)" d="M408.008,503.958c26.858-3.617,53.625-13.81,71.998-33.072
		c18.373-19.263,26.708-48.598,16.176-72.817c-13.212-30.38-52.04-44.346-85.658-39.342c-33.619,5.003-62.752,24.767-88.845,45.836
		c-28.939,23.368-56.561,65.342-14.119,92.489C332.119,512.76,380.962,507.601,408.008,503.958z"/>
	<linearGradient id="SVGID_7_" gradientUnits="userSpaceOnUse" x1="1601.707" y1="160.2764" x2="2597.9583" y2="160.2764">
		<stop  offset="0" style="stop-color:#5E779A"/>
		<stop  offset="1" style="stop-color:#212B34"/>
	</linearGradient>
	<path fill="url(#SVGID_7_)" d="M1777.903,0c-47.127,36.406-90.215,77.814-127.859,124.497
		c-18.126,22.479-35.195,46.616-43.488,74.275c-8.294,27.66-6.645,59.612,10.399,82.922c19.404,26.539,54.38,36.892,87.213,38.565
		c55.873,2.848,112.568-15.182,156.532-49.78c38.132-30.008,66.366-71.403,105.703-99.813
		c74.803-54.022,174.892-52.109,267.056-47.669c5.488,0.265,11.005,0.522,16.541,0.762V0H1777.903z"/>
</g>
</svg>
