<svg width="1920" height="1080" viewBox="0 0 1920 1080" fill="none" xmlns="http://www.w3.org/2000/svg">
<path d="M1177 227C1070.6 168.6 1043.33 44.6667 1043 -10H1928V524C1904.8 464 1881 427.667 1872 417C1804 326 1745 305 1695 284C1655 267.2 1547 277 1498 284C1435.33 289.333 1283.4 285.4 1177 227Z" fill="url(#paint0_linear_2_255)"/>
<path d="M115.5 878.5C68.7 788.5 14.3333 754.667 -7 749V1088H573.5C578.5 1051.5 572.6 970.2 509 937C445.4 903.8 362.833 926.833 329.5 942.5C277.667 958.667 162.3 968.5 115.5 878.5Z" fill="url(#paint1_linear_2_255)"/>
<defs>
<linearGradient id="paint0_linear_2_255" x1="1058" y1="78" x2="1928" y2="78" gradientUnits="userSpaceOnUse">
<stop stop-color="#8594FF"/>
<stop offset="1" stop-color="#79B8ED"/>
</linearGradient>
<linearGradient id="paint1_linear_2_255" x1="8" y1="1018" x2="575" y2="1018" gradientUnits="userSpaceOnUse">
<stop stop-color="#8594FF"/>
<stop offset="1" stop-color="#79B8ED"/>
</linearGradient>
</defs>
</svg>
