<svg width="132" height="129" viewBox="0 0 132 129" fill="none" xmlns="http://www.w3.org/2000/svg">
<path d="M131.205 67.1545C131.205 56.8303 128.502 47.1134 123.832 38.6111C144.106 -6.32953 102.33 0.350835 99.8728 0.350835C91.2719 2.05129 82.671 4.78417 75.2988 8.24581C47.0387 7.91179 22.4648 22.8212 14.4782 53.7938C29.2226 37.3965 39.6665 30.7161 45.81 28.2869C44.5199 29.4408 43.2298 30.6554 41.9396 31.87C32.11 41.5869 24.1235 51.3038 17.3657 61.628C12.1437 70.7376 6.30736 78.6326 3.23561 88.9568C-13.3518 148.473 38.8679 123.573 46.2401 119.322C54.2266 123.209 62.8275 125.334 72.6571 125.334C98.4598 125.334 120.576 108.937 128.563 86.4668H97.2311C82.4867 109.544 47.4688 99.2202 46.2401 74.3207H131.02C131.34 71.8307 131.512 69.3408 131.512 67.033L131.205 67.1545ZM120.146 9.46042C125.245 12.8613 129.362 17.9627 122.297 36.1819C115.539 25.2504 105.709 16.7481 93.4222 12.497C98.8899 9.88554 112.467 4.60198 120.454 9.46042H120.146ZM11.4065 119.383C7.22888 115.192 6.49166 104.807 15.7069 85.981C20.3145 99.3417 29.837 110.273 41.5096 116.954C35.5504 120.172 20.0074 127.278 11.4065 118.958V119.383ZM45.81 58.6522C46.2831 45.2915 58.097 34.36 72.8414 34.36C87.5858 34.36 99.2585 45.2915 99.8728 58.6522H46.4244H45.81Z" fill="#1EBBEE"/>
</svg>
