<svg width="536" height="519" viewBox="0 0 536 519" fill="none" xmlns="http://www.w3.org/2000/svg">
<g clip-path="url(#clip0_2_18)">
<path d="M443.975 444.342L523.922 402.489C530.525 399.032 530.538 389.58 523.945 386.105L258.719 246.267L443.975 444.342Z" fill="#BEC8F7"/>
<path d="M446.423 154.7L188.586 5.6035C184.908 3.47806 181.574 3.29004 179.166 4.69982C179.132 4.71887 179.095 4.73792 179.061 4.7578C179.026 4.77768 178.991 4.7959 178.956 4.81661C178.921 4.83649 178.886 4.85471 178.851 4.87542C178.816 4.89447 178.78 4.91352 178.746 4.93423C178.711 4.95328 178.675 4.97233 178.641 4.99221C178.606 5.01209 178.57 5.03031 178.536 5.05102C178.501 5.0709 178.465 5.08912 178.43 5.10983C178.396 5.12971 178.36 5.14793 178.325 5.16864C178.291 5.18769 178.255 5.20674 178.22 5.22745C178.185 5.2465 178.15 5.26555 178.115 5.28543C178.08 5.30531 178.045 5.32353 178.01 5.34424C177.975 5.36412 177.94 5.38234 177.905 5.40305C177.87 5.4221 177.835 5.44115 177.8 5.46186C177.765 5.48091 177.729 5.49996 177.695 5.51984C177.66 5.53972 177.624 5.55794 177.59 5.57865C177.555 5.59853 177.519 5.61675 177.484 5.63746C177.45 5.65651 177.414 5.67556 177.379 5.69627C177.345 5.71532 177.309 5.73437 177.274 5.75508C177.239 5.77413 177.204 5.79318 177.169 5.81306C177.134 5.83211 177.099 5.85116 177.064 5.87187C177.029 5.89175 176.994 5.90997 176.959 5.93068C176.924 5.94973 176.888 5.96878 176.854 5.98949C176.819 6.00854 176.783 6.02759 176.749 6.04747C176.714 6.06735 176.678 6.08557 176.643 6.10628C176.609 6.12616 176.573 6.14438 176.538 6.16426C176.504 6.18414 176.468 6.20319 176.433 6.22307C176.398 6.24212 176.363 6.26118 176.328 6.28106C176.293 6.30093 176.258 6.31916 176.223 6.33986C176.188 6.35974 176.153 6.37797 176.118 6.39867C176.083 6.41773 176.048 6.43678 176.013 6.45666C175.978 6.47654 175.942 6.49476 175.908 6.51547C175.873 6.53535 175.836 6.55357 175.802 6.57428C175.767 6.59416 175.731 6.61238 175.697 6.63309C175.662 6.65214 175.626 6.67119 175.591 6.69107C175.557 6.71095 175.521 6.72917 175.486 6.74988C175.452 6.76893 175.416 6.78798 175.381 6.80786C175.346 6.82774 175.311 6.84596 175.276 6.86667C175.241 6.88572 175.206 6.90477 175.171 6.92548C175.136 6.94453 175.101 6.96358 175.066 6.98346C175.031 7.00334 174.996 7.02156 174.961 7.04227C174.926 7.06215 174.89 7.08037 174.856 7.10108C174.821 7.12096 174.785 7.13918 174.751 7.15989C174.716 7.17894 174.68 7.19799 174.645 7.2187C174.611 7.23775 174.575 7.2568 174.54 7.27668C174.506 7.29656 174.47 7.31478 174.435 7.33549C174.4 7.35454 174.364 7.37359 174.329 7.3943C174.294 7.41418 174.259 7.4324 174.224 7.45311C174.189 7.47216 174.154 7.49121 174.119 7.51109C174.084 7.53097 174.049 7.54919 174.014 7.5699C173.979 7.58978 173.944 7.608 173.909 7.62871C173.874 7.64776 173.838 7.66681 173.804 7.68752C173.769 7.70657 173.733 7.72562 173.699 7.7455C173.664 7.76538 173.628 7.7836 173.593 7.80431C173.559 7.82419 173.523 7.84241 173.488 7.86312C173.454 7.883 173.418 7.90122 173.383 7.92193C173.348 7.94098 173.313 7.96003 173.278 7.97991C173.243 7.99979 173.208 8.01802 173.173 8.03872C173.138 8.05777 173.103 8.07683 173.068 8.0967C173.033 8.11576 172.997 8.13481 172.963 8.15551C172.928 8.17457 172.892 8.19362 172.858 8.21432C172.823 8.23338 172.787 8.25243 172.752 8.27231C172.718 8.29219 172.682 8.31041 172.647 8.33112C172.613 8.35099 172.576 8.36922 172.541 8.38993C172.507 8.40898 172.471 8.42803 172.436 8.44874C172.402 8.46779 172.366 8.48684 172.331 8.50755C172.296 8.5266 172.261 8.54565 172.226 8.56553C172.191 8.58541 172.156 8.60363 172.121 8.62434C172.086 8.64339 172.051 8.66244 172.016 8.68315C171.981 8.7022 171.945 8.72125 171.911 8.74113C171.876 8.76101 171.84 8.77923 171.806 8.79994C171.771 8.81982 171.735 8.83804 171.7 8.85875C171.666 8.87863 171.63 8.89685 171.595 8.91756C171.561 8.93661 171.525 8.95566 171.49 8.97554C171.455 8.99542 171.42 9.01364 171.385 9.03435C171.35 9.05423 171.315 9.07245 171.28 9.09316C171.245 9.11304 171.21 9.13126 171.175 9.15197C171.14 9.17102 171.104 9.19007 171.07 9.20995C171.035 9.22983 170.999 9.24805 170.965 9.26876C170.93 9.28864 170.894 9.30686 170.86 9.32757C170.825 9.34745 170.789 9.36567 170.754 9.38638C170.72 9.40543 170.684 9.42448 170.649 9.44519C170.615 9.46424 170.579 9.48329 170.544 9.50317C170.509 9.52305 170.474 9.54127 170.439 9.56198C170.404 9.58186 170.369 9.60008 170.334 9.62079C170.299 9.63984 170.264 9.65889 170.229 9.6796C170.194 9.69865 170.158 9.7177 170.124 9.73841C170.089 9.75746 170.053 9.77651 170.019 9.79639C169.984 9.81627 169.948 9.83449 169.913 9.8552C169.879 9.87508 169.843 9.8933 169.808 9.91401C169.774 9.93306 169.738 9.95211 169.703 9.97199C169.668 9.99187 169.633 10.0101 169.598 10.0308C169.563 10.0507 169.528 10.0689 169.493 10.0896C169.458 10.1095 169.423 10.1277 169.388 10.1484C169.353 10.1675 169.318 10.1865 169.283 10.2072C169.248 10.2263 169.212 10.2453 169.178 10.2652C169.143 10.2851 169.107 10.3033 169.073 10.324C169.038 10.3439 169.002 10.3621 168.967 10.3828C168.933 10.4019 168.897 10.4209 168.862 10.4416C168.828 10.4607 168.792 10.4797 168.757 10.4996C168.722 10.5195 168.687 10.5377 168.652 10.5584C166.203 11.9301 164.682 14.922 164.682 19.1977L164.679 270.856C164.679 279.322 170.639 289.652 177.964 293.884L435.784 442.976C439.463 445.102 442.797 445.291 445.205 443.881C445.24 443.862 445.276 443.843 445.31 443.823C445.345 443.803 445.381 443.784 445.416 443.764C445.45 443.745 445.486 443.726 445.521 443.706C445.556 443.687 445.591 443.668 445.626 443.647C445.661 443.628 445.697 443.609 445.732 443.589C445.767 443.57 445.802 443.551 445.837 443.531C445.872 443.511 445.907 443.492 445.942 443.473C445.978 443.453 446.013 443.434 446.048 443.415C446.083 443.395 446.118 443.376 446.153 443.357C446.188 443.337 446.224 443.318 446.258 443.298C446.294 443.279 446.329 443.26 446.363 443.24C446.399 443.22 446.435 443.201 446.469 443.181C446.504 443.162 446.54 443.143 446.574 443.123C446.609 443.104 446.645 443.085 446.68 443.065C446.715 443.045 446.751 443.026 446.786 443.006C446.82 442.987 446.856 442.968 446.891 442.948C446.925 442.928 446.961 442.909 446.996 442.89C447.031 442.87 447.066 442.851 447.101 442.831C447.136 442.812 447.172 442.793 447.207 442.773C447.242 442.754 447.277 442.735 447.312 442.715C447.347 442.696 447.382 442.677 447.417 442.657C447.453 442.638 447.488 442.619 447.523 442.599C447.558 442.579 447.593 442.56 447.628 442.54C447.663 442.521 447.698 442.502 447.733 442.482C447.769 442.463 447.804 442.443 447.838 442.423C447.874 442.404 447.91 442.385 447.944 442.365C447.979 442.346 448.015 442.327 448.049 442.307C448.084 442.287 448.12 442.268 448.155 442.248C448.19 442.229 448.226 442.21 448.26 442.19C448.295 442.171 448.331 442.152 448.366 442.131C448.4 442.112 448.436 442.093 448.471 442.073C448.506 442.054 448.542 442.035 448.576 442.016C448.611 441.996 448.647 441.977 448.682 441.957C448.717 441.938 448.752 441.919 448.787 441.899C448.822 441.88 448.857 441.861 448.892 441.841C448.928 441.821 448.963 441.802 448.998 441.782C449.033 441.763 449.068 441.744 449.103 441.724C449.138 441.705 449.173 441.686 449.208 441.665C449.244 441.646 449.279 441.627 449.313 441.607C449.349 441.588 449.384 441.569 449.419 441.549C449.454 441.529 449.49 441.51 449.524 441.49C449.559 441.471 449.595 441.452 449.63 441.432C449.665 441.413 449.701 441.394 449.735 441.374C449.77 441.355 449.806 441.335 449.841 441.316C449.876 441.297 449.911 441.277 449.946 441.258C449.981 441.239 450.017 441.22 450.051 441.199C450.086 441.18 450.122 441.161 450.157 441.141C450.191 441.122 450.227 441.103 450.262 441.083C450.297 441.063 450.332 441.044 450.368 441.024C450.403 441.005 450.438 440.986 450.473 440.966C450.508 440.947 450.543 440.928 450.578 440.907C450.613 440.888 450.648 440.869 450.683 440.849C450.719 440.83 450.754 440.811 450.789 440.791C450.824 440.771 450.859 440.752 450.894 440.732C450.929 440.713 450.965 440.694 450.999 440.674C451.035 440.655 451.07 440.636 451.104 440.617C451.14 440.597 451.176 440.578 451.21 440.558C451.245 440.539 451.281 440.52 451.316 440.5C451.35 440.48 451.386 440.462 451.421 440.441C451.456 440.422 451.492 440.403 451.527 440.383C451.561 440.364 451.597 440.345 451.632 440.324C451.666 440.305 451.702 440.286 451.737 440.266C451.772 440.247 451.808 440.228 451.843 440.208C451.877 440.188 451.913 440.17 451.948 440.149C451.983 440.13 452.018 440.111 452.053 440.091C452.088 440.072 452.123 440.053 452.158 440.033C452.194 440.014 452.229 439.994 452.264 439.975C452.299 439.955 452.334 439.936 452.369 439.917C452.404 439.898 452.44 439.878 452.474 439.858C452.51 439.839 452.545 439.82 452.579 439.8C452.615 439.781 452.651 439.762 452.685 439.742C452.72 439.723 452.756 439.703 452.79 439.683C452.826 439.664 452.862 439.645 452.896 439.625C452.931 439.606 452.967 439.587 453.002 439.567C453.036 439.547 453.072 439.528 453.107 439.508C453.141 439.489 453.177 439.47 453.212 439.45C453.247 439.431 453.282 439.412 453.317 439.391C453.352 439.372 453.388 439.353 453.423 439.333C453.458 439.314 453.493 439.295 453.528 439.275C453.563 439.256 453.599 439.237 453.633 439.217C453.669 439.198 453.704 439.179 453.739 439.159C453.774 439.14 453.809 439.121 453.844 439.1C453.879 439.081 453.915 439.062 453.949 439.042C453.985 439.023 454.02 439.004 454.055 438.984C454.09 438.965 454.126 438.946 454.16 438.926C454.195 438.906 454.231 438.887 454.265 438.867C454.301 438.848 454.337 438.829 454.371 438.809C454.406 438.789 454.442 438.77 454.476 438.75C454.511 438.731 454.547 438.712 454.582 438.692C454.616 438.673 454.652 438.654 454.687 438.634C454.722 438.614 454.758 438.595 454.792 438.576C454.827 438.557 454.863 438.537 454.898 438.518C454.933 438.498 454.968 438.479 455.003 438.46C455.038 438.44 455.074 438.421 455.108 438.401C455.144 438.382 455.179 438.363 455.214 438.343C455.249 438.323 455.284 438.304 455.319 438.284C455.354 438.265 455.389 438.246 455.424 438.226C455.46 438.207 455.495 438.187 455.529 438.168C455.565 438.148 455.601 438.129 455.635 438.109C455.67 438.09 455.706 438.071 455.74 438.051C458.19 436.68 459.711 433.687 459.711 429.412L459.714 177.753C459.709 169.263 453.75 158.932 446.423 154.7Z" fill="#A7D9F5"/>
<path d="M177.947 293.88C170.621 289.648 164.662 279.318 164.662 270.852L164.664 19.1935C164.664 10.7282 170.624 7.28496 177.95 11.5176L435.787 160.614C443.113 164.846 449.073 175.177 449.073 183.642L449.07 435.3C449.07 443.766 443.111 447.21 435.784 442.977L177.947 293.88Z" fill="#E3F5FF"/>
<path d="M447.41 410.836L447.412 204.345C447.412 197.562 442.654 189.314 436.784 185.922L178.946 36.8257C173.076 33.4338 168.317 36.1838 168.317 42.9668L168.314 249.458L447.41 410.836Z" fill="#45B8FF"/>
<path d="M312.108 361.132L287.857 347.12C285.381 345.69 283.374 342.21 283.374 339.349V331.312C283.374 328.45 285.381 327.291 287.857 328.721L312.108 342.732C314.585 344.163 316.592 347.642 316.592 350.504V358.541C316.592 361.402 314.585 362.563 312.108 361.132Z" fill="#C3DAE8"/>
<path d="M224.137 244.962L131.989 191.703L131.991 56.6645L224.139 109.923L224.137 244.962Z" fill="#6ED9FF"/>
<path d="M224.139 124.364L131.99 71.1044L131.991 56.6645L224.139 109.923V124.364Z" fill="white"/>
<path d="M203.142 205.231L139.645 168.546L139.646 82.1623L203.143 118.849L203.142 205.231Z" fill="#00578A"/>
<path d="M191.181 124.037L144.403 97.0097C143.517 96.4978 142.799 95.2529 142.799 94.2291C142.799 93.2053 143.517 92.7903 144.403 93.3022L191.181 120.328C192.068 120.84 192.785 122.085 192.785 123.109C192.785 124.133 192.067 124.548 191.181 124.037Z" fill="#80D5FF"/>
<path d="M156.814 110.62L143.98 103.205C143.094 102.694 142.376 101.449 142.376 100.425C142.376 99.401 143.094 98.986 143.98 99.4979L156.814 106.913C157.701 107.425 158.418 108.67 158.418 109.694C158.419 110.717 157.701 111.132 156.814 110.62Z" fill="#80D5FF"/>
<path d="M186.03 127.501L162.81 114.085C161.924 113.573 161.206 112.328 161.206 111.305C161.206 110.281 161.925 109.866 162.81 110.378L186.03 123.794C186.916 124.306 187.635 125.551 187.635 126.574C187.635 127.597 186.916 128.012 186.03 127.501Z" fill="#80D5FF"/>
<path d="M150.735 117.256L144.571 113.695C143.685 113.183 142.967 111.938 142.967 110.914C142.967 109.891 143.685 109.476 144.571 109.988L150.735 113.549C151.62 114.06 152.339 115.305 152.339 116.329C152.34 117.353 151.621 117.768 150.735 117.256Z" fill="#80D5FF"/>
<path d="M170.747 128.818L156.9 120.817C156.013 120.305 155.295 119.06 155.295 118.036C155.295 117.012 156.014 116.598 156.9 117.109L170.747 125.11C171.633 125.622 172.351 126.867 172.351 127.891C172.351 128.914 171.633 129.329 170.747 128.818Z" fill="#80D5FF"/>
<path d="M197.852 144.38L175.56 131.501C174.674 130.989 173.956 129.744 173.956 128.721C173.956 127.697 174.674 127.282 175.56 127.794L197.852 140.673C198.738 141.185 199.456 142.43 199.456 143.454C199.456 144.477 198.737 144.892 197.852 144.38Z" fill="#80D5FF"/>
<path d="M161.712 131.989L144.909 122.281C144.023 121.769 143.305 120.525 143.305 119.501C143.305 118.477 144.023 118.062 144.909 118.574L161.712 128.282C162.598 128.794 163.316 130.039 163.316 131.063C163.316 132.086 162.598 132.501 161.712 131.989Z" fill="#80D5FF"/>
<path d="M175.813 140.331L167.538 135.55C166.652 135.038 165.934 133.793 165.934 132.769C165.934 131.746 166.652 131.331 167.538 131.843L175.813 136.623C176.699 137.135 177.417 138.38 177.417 139.404C177.417 140.428 176.699 140.843 175.813 140.331Z" fill="#80D5FF"/>
<path d="M173.702 147.6L145.078 131.062C144.192 130.55 143.473 129.305 143.473 128.282C143.473 127.258 144.192 126.843 145.078 127.355L173.702 143.893C174.587 144.405 175.306 145.65 175.306 146.673C175.306 147.697 174.588 148.112 173.702 147.6Z" fill="#80D5FF"/>
<path d="M156.73 147.031L145.19 140.364C144.304 139.852 143.586 138.607 143.586 137.584C143.586 136.56 144.304 136.145 145.19 136.657L156.73 143.324C157.616 143.836 158.334 145.081 158.334 146.104C158.334 147.128 157.616 147.543 156.73 147.031Z" fill="#80D5FF"/>
<path d="M222.111 237.936L183.382 215.561L183.383 173.28L222.111 195.655V237.936Z" fill="#4DDBFF"/>
<path d="M217.326 199.916L186.816 182.289C185.977 181.804 185.296 180.624 185.296 179.654C185.296 178.684 185.977 178.291 186.816 178.776L217.326 196.403C218.165 196.888 218.845 198.067 218.845 199.037C218.846 200.008 218.166 200.402 217.326 199.916Z" fill="#80D5FF"/>
<path d="M197.737 193.282L186.816 186.973C185.977 186.488 185.296 185.308 185.296 184.338C185.296 183.368 185.977 182.975 186.816 183.46L197.737 189.769C198.576 190.254 199.256 191.433 199.256 192.403C199.256 193.374 198.576 193.767 197.737 193.282Z" fill="#80D5FF"/>
<path d="M205.842 207.592L187.153 196.794C186.314 196.31 185.633 195.129 185.633 194.159C185.633 193.189 186.314 192.796 187.153 193.281L205.842 204.079C206.682 204.564 207.362 205.744 207.362 206.714C207.362 207.684 206.682 208.077 205.842 207.592Z" fill="#80D5FF"/>
<path d="M217.101 214.097L209.445 209.674C208.606 209.189 207.926 208.009 207.926 207.039C207.926 206.069 208.606 205.675 209.445 206.161L217.101 210.584C217.941 211.068 218.62 212.248 218.62 213.219C218.62 214.189 217.94 214.582 217.101 214.097Z" fill="#80D5FF"/>
<path d="M195.147 208.568L187.49 204.145C186.651 203.66 185.971 202.48 185.971 201.51C185.971 200.54 186.651 200.146 187.49 200.632L195.146 205.055C195.985 205.54 196.666 206.719 196.666 207.69C196.666 208.66 195.986 209.053 195.147 208.568Z" fill="#80D5FF"/>
<path d="M215.187 220.277L200.888 212.016C200.049 211.531 199.369 210.351 199.369 209.381C199.369 208.411 200.049 208.018 200.888 208.503L215.187 216.764C216.026 217.248 216.707 218.428 216.707 219.399C216.707 220.368 216.026 220.761 215.187 220.277Z" fill="#80D5FF"/>
<path d="M201.564 220.471L187.266 212.211C186.427 211.726 185.747 210.546 185.747 209.576C185.747 208.606 186.427 208.212 187.266 208.698L201.565 216.959C202.404 217.443 203.084 218.623 203.084 219.593C203.084 220.563 202.403 220.957 201.564 220.471Z" fill="#80D5FF"/>
<path d="M168.367 88.0665L76.2187 34.8071V20.3664L168.367 73.6258V88.0665Z" fill="#EBD812"/>
<path d="M420.464 383.332L302.811 315.087L302.813 176.355L420.466 244.599L420.464 383.332Z" fill="#4AE2FF"/>
<path d="M365.477 336.066L311.889 305.105L311.89 192.427L365.478 223.388L365.477 336.066Z" fill="#6ECEFA"/>
<path d="M350.014 221.429L314.908 201.146C314.132 200.697 313.501 199.605 313.501 198.707C313.501 197.809 314.132 197.444 314.908 197.894L350.014 218.177C350.791 218.626 351.421 219.718 351.421 220.616C351.421 221.514 350.791 221.878 350.014 221.429Z" fill="#589EBF"/>
<path d="M334.129 218.342L315.275 207.449C314.498 207 313.868 205.908 313.868 205.009C313.868 204.112 314.498 203.747 315.275 204.196L334.129 215.089C334.906 215.538 335.536 216.631 335.536 217.528C335.536 218.426 334.906 218.791 334.129 218.342Z" fill="#589EBF"/>
<path d="M349.794 227.646L338.773 221.278C337.997 220.829 337.366 219.737 337.366 218.839C337.366 217.941 337.997 217.576 338.773 218.025L349.794 224.393C350.571 224.842 351.202 225.935 351.202 226.833C351.203 227.732 350.572 228.095 349.794 227.646Z" fill="#589EBF"/>
<path d="M321.829 217.834L315.348 214.089C314.571 213.64 313.94 212.548 313.94 211.65C313.94 210.751 314.571 210.388 315.348 210.837L321.829 214.581C322.607 215.03 323.237 216.123 323.237 217.021C323.237 217.919 322.607 218.283 321.829 217.834Z" fill="#589EBF"/>
<path d="M348.697 233.61L326.109 220.56C325.331 220.111 324.702 219.019 324.702 218.121C324.702 217.223 325.331 216.858 326.109 217.307L348.697 230.357C349.473 230.806 350.104 231.899 350.104 232.797C350.104 233.695 349.474 234.06 348.697 233.61Z" fill="#589EBF"/>
<path d="M334.494 231.919L316.007 221.237C315.229 220.788 314.599 219.695 314.599 218.797C314.599 217.899 315.229 217.535 316.007 217.984L334.494 228.666C335.271 229.115 335.902 230.207 335.902 231.105C335.902 232.004 335.271 232.368 334.494 231.919Z" fill="#589EBF"/>
<path d="M354.846 243.762L341.263 235.914C340.486 235.465 339.855 234.372 339.855 233.474C339.855 232.576 340.486 232.212 341.263 232.661L354.846 240.509C355.623 240.958 356.253 242.05 356.253 242.948C356.253 243.846 355.623 244.211 354.846 243.762Z" fill="#589EBF"/>
<path d="M355.814 272.791L315.55 249.528L315.551 227.026L355.814 250.289V272.791Z" fill="#9BDCFA"/>
<path d="M332.681 243.098L318.553 234.935C318.108 234.678 317.747 234.053 317.747 233.54C317.747 233.025 318.108 232.817 318.553 233.074L332.681 241.237C333.126 241.494 333.487 242.118 333.487 242.633C333.486 243.147 333.126 243.355 332.681 243.098Z" fill="#9BDCFA"/>
<path d="M341.832 252.277L327.703 244.114C327.258 243.857 326.897 243.232 326.897 242.718C326.897 242.204 327.258 241.996 327.703 242.253L341.832 250.416C342.276 250.672 342.637 251.297 342.637 251.811C342.637 252.325 342.276 252.534 341.832 252.277Z" fill="#9BDCFA"/>
<path d="M327.849 249.781L318.553 244.41C318.107 244.153 317.746 243.528 317.746 243.014C317.746 242.499 318.108 242.292 318.553 242.548L327.849 247.92C328.294 248.177 328.655 248.801 328.655 249.316C328.654 249.83 328.294 250.039 327.849 249.781Z" fill="#9BDCFA"/>
<path d="M335.316 254.096L331.363 251.812C330.918 251.555 330.558 250.931 330.558 250.416C330.558 249.902 330.918 249.694 331.363 249.951L335.316 252.235C335.76 252.491 336.121 253.116 336.121 253.63C336.121 254.144 335.76 254.352 335.316 254.096Z" fill="#9BDCFA"/>
<path d="M405.056 368.972L367.575 347.317L367.576 295.546L405.057 317.201L405.056 368.972Z" fill="#6ECEFA"/>
<path d="M388.756 313.084L371.089 302.876C370.523 302.549 370.064 301.755 370.064 301.1C370.064 300.446 370.524 300.181 371.089 300.507L388.756 310.715C389.323 311.042 389.781 311.837 389.781 312.491C389.781 313.147 389.322 313.412 388.756 313.084Z" fill="#589EBF"/>
<path d="M355.032 324.166L315.793 301.496L315.794 256.379L355.033 279.05L355.032 324.166Z" fill="#9BDCFA"/>
<path d="M331.265 270.62L319.357 263.739C318.79 263.412 318.332 262.617 318.332 261.962C318.332 261.309 318.791 261.044 319.357 261.37L331.265 268.251C331.831 268.578 332.29 269.372 332.29 270.027C332.29 270.681 331.831 270.946 331.265 270.62Z" fill="#9BDCFA"/>
<path d="M325.213 272.65L319.552 269.379C318.985 269.052 318.527 268.257 318.527 267.602C318.527 266.948 318.986 266.683 319.552 267.01L325.213 270.28C325.779 270.608 326.238 271.402 326.238 272.058C326.238 272.711 325.779 272.977 325.213 272.65Z" fill="#9BDCFA"/>
<path d="M339.464 281.108L328.581 274.821C328.015 274.494 327.556 273.698 327.556 273.044C327.556 272.39 328.016 272.125 328.581 272.452L339.464 278.74C340.031 279.067 340.489 279.862 340.489 280.516C340.489 281.171 340.03 281.436 339.464 281.108Z" fill="#9BDCFA"/>
<path d="M330.338 280.235L319.455 273.946C318.889 273.619 318.43 272.825 318.43 272.169C318.43 271.516 318.889 271.251 319.455 271.577L330.338 277.866C330.904 278.193 331.363 278.987 331.363 279.642C331.363 280.296 330.904 280.562 330.338 280.235Z" fill="#9BDCFA"/>
<path d="M337.317 284.323L333.997 282.406C333.431 282.079 332.973 281.284 332.973 280.63C332.973 279.975 333.432 279.711 333.997 280.037L337.317 281.954C337.883 282.282 338.341 283.077 338.341 283.731C338.341 284.385 337.883 284.65 337.317 284.323Z" fill="#9BDCFA"/>
<path d="M348.542 290.921L341.27 286.72C340.703 286.393 340.246 285.599 340.246 284.944C340.246 284.29 340.704 284.025 341.27 284.351L348.542 288.552C349.108 288.88 349.566 289.675 349.566 290.329C349.566 290.984 349.107 291.249 348.542 290.921Z" fill="#9BDCFA"/>
<path d="M323.017 281.588L319.6 279.614C319.034 279.287 318.576 278.493 318.576 277.838C318.576 277.183 319.035 276.919 319.6 277.245L323.017 279.219C323.583 279.546 324.042 280.341 324.042 280.996C324.042 281.65 323.583 281.915 323.017 281.588Z" fill="#9BDCFA"/>
<path d="M334.876 288.552L326.58 283.759C326.013 283.432 325.556 282.638 325.556 281.982C325.556 281.329 326.014 281.064 326.58 281.39L334.876 286.184C335.443 286.511 335.901 287.306 335.901 287.96C335.901 288.615 335.443 288.88 334.876 288.552Z" fill="#9BDCFA"/>
<path d="M324.774 287.566L319.747 284.662C319.181 284.335 318.722 283.54 318.722 282.885C318.723 282.231 319.182 281.966 319.747 282.293L324.774 285.197C325.341 285.524 325.798 286.319 325.798 286.974C325.798 287.628 325.34 287.893 324.774 287.566Z" fill="#9BDCFA"/>
<path d="M339.22 296.025L327.458 289.23C326.892 288.903 326.433 288.108 326.433 287.453C326.433 286.799 326.892 286.535 327.458 286.861L339.22 293.656C339.786 293.984 340.244 294.778 340.244 295.433C340.244 296.088 339.786 296.352 339.22 296.025Z" fill="#9BDCFA"/>
<path d="M379.459 311.943L370.796 306.938C370.229 306.61 369.771 305.816 369.771 305.161C369.771 304.507 370.23 304.242 370.796 304.569L379.459 309.573C380.025 309.901 380.484 310.696 380.484 311.351C380.484 312.004 380.025 312.269 379.459 311.943Z" fill="#589EBF"/>
<path d="M383.413 319.048L370.87 311.801C370.304 311.474 369.845 310.68 369.845 310.025C369.845 309.371 370.305 309.106 370.87 309.432L383.413 316.679C383.979 317.007 384.437 317.801 384.437 318.456C384.437 319.11 383.978 319.375 383.413 319.048Z" fill="#589EBF"/>
<path d="M384.762 318.09L379.1 314.819C378.534 314.492 378.077 313.697 378.077 313.042C378.077 312.389 378.535 312.124 379.1 312.45L384.762 315.721C385.329 316.048 385.787 316.842 385.787 317.498C385.787 318.153 385.329 318.417 384.762 318.09Z" fill="#589EBF"/>
<path d="M374.847 318.837L371.162 316.708C370.596 316.381 370.137 315.586 370.137 314.932C370.138 314.277 370.597 314.012 371.162 314.339L374.847 316.468C375.413 316.795 375.872 317.59 375.872 318.245C375.872 318.898 375.413 319.163 374.847 318.837Z" fill="#589EBF"/>
<path d="M392.051 328.776L379.215 321.361C378.649 321.033 378.19 320.239 378.19 319.584C378.19 318.93 378.649 318.665 379.215 318.991L392.051 326.407C392.617 326.735 393.074 327.529 393.074 328.184C393.074 328.838 392.617 329.103 392.051 328.776Z" fill="#589EBF"/>
<path d="M383.924 330.257L371.089 322.841C370.522 322.514 370.064 321.719 370.064 321.064C370.064 320.41 370.524 320.145 371.089 320.472L383.924 327.888C384.491 328.215 384.949 329.009 384.949 329.665C384.949 330.318 384.49 330.583 383.924 330.257Z" fill="#589EBF"/>
<path d="M375.067 329.622L371.089 327.325C370.522 326.997 370.064 326.202 370.064 325.547C370.064 324.894 370.523 324.629 371.089 324.955L375.067 327.253C375.633 327.581 376.092 328.375 376.092 329.029C376.092 329.684 375.632 329.95 375.067 329.622Z" fill="#589EBF"/>
<path d="M385.169 335.459L378.775 331.765C378.209 331.437 377.75 330.643 377.75 329.989C377.75 329.334 378.21 329.069 378.775 329.396L385.169 333.09C385.735 333.417 386.194 334.212 386.194 334.866C386.194 335.521 385.734 335.787 385.169 335.459Z" fill="#589EBF"/>
<path d="M377.628 335.671L371.235 331.976C370.668 331.649 370.21 330.855 370.21 330.2C370.21 329.546 370.669 329.281 371.235 329.608L377.628 333.302C378.195 333.629 378.653 334.423 378.653 335.078C378.654 335.732 378.195 335.998 377.628 335.671Z" fill="#589EBF"/>
<path d="M394.573 254.477L373.978 242.577V239.983L394.573 251.882V254.477Z" fill="#9BDCFA"/>
<path d="M384.812 253.349L373.978 247.089V244.495L384.812 250.754V253.349Z" fill="#9BDCFA"/>
<path d="M408.189 282.702L372.025 261.808V258.762L408.189 279.656V282.702Z" fill="#9BDCFA"/>
<path d="M379.98 272.608L372.367 268.209V265.164L379.98 269.563V272.608Z" fill="#9BDCFA"/>
<path d="M399.551 283.971L381.932 273.792V270.746L399.551 280.925V283.971Z" fill="#9BDCFA"/>
<path d="M383.055 281.434L372.562 275.371V272.325L383.055 278.388V281.434Z" fill="#9BDCFA"/>
<path d="M350.688 242.603L269.357 195.613C265.408 193.332 262.208 187.784 262.208 183.221V173.223C262.208 168.661 265.409 166.811 269.357 169.092L350.689 216.081C354.638 218.363 357.839 223.911 357.838 228.474V238.471C357.838 243.035 354.637 244.884 350.688 242.603Z" fill="#0995D6"/>
<path d="M14.8456 306.536C0.932818 314.575 0.932818 327.607 14.8456 335.647C28.7584 343.686 51.3157 343.685 65.2285 335.647C79.1413 327.608 79.1413 314.575 65.2285 306.536C51.3157 298.496 28.7584 298.497 14.8456 306.536Z" fill="#BEC8F7"/>
<path d="M74.4036 168.112C74.4036 168.112 81.9274 165.817 82.6913 165.817C83.4553 165.817 84.3964 170.523 82.5738 172.758C80.752 174.993 77.6953 179.993 76.2262 179.405C74.757 178.817 68.4673 173.052 68.4673 173.052L74.4036 168.112Z" fill="#FDC6AA"/>
<path d="M20.7074 146.263C20.7074 146.263 46.5424 163.289 50.7752 164.701C55.0072 166.112 75.2859 167.347 75.2859 167.347L73.6992 176.7C73.6992 176.7 59.2401 177.759 51.1286 177.23C43.0172 176.7 21.8571 168.054 21.8571 168.054C21.8571 168.054 20.44 149.178 20.7074 146.263Z" fill="#C5E1F0"/>
<path d="M115.781 84.7541C115.781 86.4761 138.607 99.6123 140.098 98.7516C141.588 97.8902 142.796 95.7962 142.796 94.0742C142.796 92.3513 119.97 79.2152 118.479 80.0766C116.99 80.9372 115.781 83.032 115.781 84.7541Z" fill="#32434F"/>
<path d="M141.605 102.233C141.584 102.221 141.561 102.208 141.54 102.196C141.518 102.183 141.496 102.171 141.475 102.158C141.453 102.146 141.431 102.134 141.409 102.121C141.387 102.109 141.365 102.096 141.344 102.084C141.321 102.071 141.3 102.059 141.278 102.047C141.256 102.034 141.235 102.022 141.213 102.009C141.191 101.997 141.169 101.985 141.148 101.972C141.126 101.96 141.104 101.947 141.082 101.935C141.061 101.922 141.038 101.91 141.017 101.898C140.994 101.885 140.973 101.873 140.951 101.86C140.929 101.848 140.908 101.835 140.886 101.823C140.864 101.811 140.842 101.798 140.821 101.786C140.799 101.773 140.777 101.761 140.755 101.748C140.734 101.736 140.711 101.724 140.69 101.711C140.668 101.699 140.646 101.686 140.624 101.674C140.602 101.661 140.581 101.649 140.559 101.637C140.537 101.624 140.515 101.612 140.494 101.599C140.472 101.587 140.45 101.575 140.429 101.561C140.407 101.55 140.385 101.537 140.364 101.524C140.342 101.512 140.32 101.5 140.298 101.487C140.277 101.474 140.255 101.462 140.233 101.449C140.211 101.437 140.189 101.425 140.168 101.411C140.145 101.4 140.124 101.386 140.102 101.374C140.08 101.362 140.058 101.35 140.037 101.337C140.015 101.324 139.993 101.313 139.971 101.3C139.95 101.287 139.928 101.275 139.906 101.262C139.885 101.25 139.862 101.237 139.841 101.225C139.818 101.213 139.797 101.2 139.775 101.188C139.753 101.175 139.731 101.163 139.71 101.15C139.688 101.138 139.666 101.126 139.645 101.113C139.623 101.101 139.601 101.088 139.579 101.076C139.558 101.063 139.535 101.051 139.514 101.039C139.491 101.026 139.47 101.014 139.448 101.001C139.426 100.989 139.404 100.976 139.383 100.964C139.361 100.952 139.339 100.939 139.318 100.927C139.295 100.914 139.274 100.902 139.252 100.889C139.231 100.877 139.208 100.865 139.187 100.852C139.165 100.84 139.143 100.827 139.121 100.815C139.1 100.803 139.078 100.79 139.056 100.778C139.034 100.765 139.012 100.753 138.991 100.74C138.968 100.728 138.947 100.716 138.925 100.703C138.904 100.691 138.881 100.678 138.861 100.666C138.838 100.653 138.817 100.641 138.795 100.629C138.774 100.616 138.751 100.604 138.73 100.591C138.708 100.579 138.686 100.566 138.664 100.554C138.642 100.542 138.621 100.529 138.599 100.517C138.578 100.504 138.555 100.492 138.535 100.479C138.512 100.467 138.491 100.455 138.469 100.442C138.448 100.43 116.807 87.9795 116.786 87.9654C116.764 87.9538 116.742 87.9414 116.721 87.9281C116.699 87.9165 116.677 87.9033 116.655 87.8909C116.634 87.8793 116.611 87.866 116.59 87.8536C116.567 87.842 116.546 87.8296 116.524 87.8163C116.502 87.8047 116.48 87.7915 116.459 87.779C116.437 87.7666 116.415 87.755 116.394 87.7418C116.372 87.7302 116.35 87.7169 116.328 87.7045C116.307 87.6921 116.284 87.6796 116.263 87.6672C116.24 87.6548 116.219 87.6424 116.197 87.63C116.176 87.6175 116.154 87.6051 116.132 87.5927C116.11 87.5803 116.088 87.5678 116.067 87.5554C116.044 87.543 116.023 87.5306 116.001 87.5181C115.98 87.5057 115.957 87.4933 115.936 87.4809C115.914 87.4684 115.892 87.456 115.87 87.4436C115.849 87.4312 115.827 87.4187 115.805 87.4063C115.784 87.3939 115.761 87.3815 115.74 87.369C115.717 87.3566 115.696 87.3442 115.674 87.3318C115.653 87.3193 115.63 87.3069 115.609 87.2945C115.587 87.2821 115.565 87.2696 115.544 87.2572C115.522 87.2448 115.5 87.2324 115.478 87.2199C115.457 87.2075 115.434 87.1951 115.413 87.1827C115.39 87.1702 115.369 87.1578 115.347 87.1454C115.325 87.133 115.304 87.1205 115.282 87.1081C115.26 87.0957 115.239 87.0833 115.217 87.0708C115.195 87.0584 115.173 87.046 115.151 87.0336C115.13 87.0211 115.107 87.0087 115.086 86.9963C115.064 86.9839 115.042 86.9715 115.02 86.9582C114.998 86.9466 114.977 86.9342 114.955 86.9209C114.933 86.9093 114.911 86.8969 114.89 86.8836C114.225 86.5192 113.812 85.7124 113.812 84.5553C113.812 82.2791 115.409 79.5117 117.379 78.3744C118.379 77.7963 119.285 77.7507 119.932 78.1442C119.954 78.1566 119.975 78.169 119.997 78.1815C120.019 78.1939 120.041 78.2063 120.063 78.2187C120.084 78.2311 120.107 78.2436 120.128 78.256C120.15 78.2684 120.172 78.2809 120.194 78.2933C120.216 78.3057 120.237 78.3181 120.259 78.3305C120.281 78.343 120.303 78.3554 120.324 78.3678C120.347 78.3802 120.368 78.3927 120.39 78.4051C120.411 78.4175 120.434 78.4299 120.455 78.4424C120.477 78.4548 120.499 78.4672 120.52 78.4796C120.543 78.4921 120.564 78.5045 120.586 78.5177C120.608 78.5293 120.63 78.5418 120.651 78.555C120.674 78.5674 120.695 78.5799 120.717 78.5931C120.739 78.6047 120.761 78.6171 120.782 78.6304C120.804 78.642 120.826 78.6544 120.847 78.6677C120.869 78.6801 120.891 78.6925 120.913 78.7058C120.934 78.7182 120.957 78.7298 120.978 78.743C121.001 78.7546 121.022 78.7671 121.044 78.7803C121.066 78.7919 121.087 78.8043 121.109 78.8176C121.131 78.83 121.153 78.8416 121.174 78.8549C121.196 78.8665 121.217 78.8789 121.239 78.8921C121.26 78.9037 121.283 78.917 121.304 78.9294C121.326 78.9418 121.348 78.9543 121.37 78.9667C121.391 78.9791 121.414 78.9907 121.435 79.004C121.457 79.0164 121.479 79.0288 121.5 79.0412C121.523 79.0537 121.544 79.0661 121.566 79.0785C121.587 79.0909 121.61 79.1034 121.631 79.1158C121.653 79.1282 121.675 79.1406 121.697 79.1531C121.718 79.1655 121.741 79.1779 121.762 79.1903C121.784 79.2028 121.806 79.2152 121.827 79.2276C121.85 79.24 121.871 79.2525 121.893 79.2649C121.914 79.2773 121.937 79.2897 121.958 79.3021C121.98 79.3146 122.002 79.327 122.024 79.3394C122.045 79.3519 122.067 79.3643 122.089 79.3767C122.111 79.3891 122.133 79.4015 122.154 79.414C122.176 79.4264 122.198 79.4388 122.22 79.4512C122.242 79.4637 122.264 79.4761 122.285 79.4885C122.307 79.5009 122.329 79.5134 122.351 79.5258C122.372 79.5382 122.394 79.5506 122.416 79.5631C122.437 79.5755 122.46 79.5879 122.481 79.6003C122.503 79.6128 122.525 79.6252 122.547 79.6376C122.569 79.65 122.591 79.6625 122.612 79.6749C122.634 79.6873 122.656 79.6997 122.677 79.7122C122.7 79.7246 122.721 79.737 122.743 79.7503C122.764 79.7619 122.787 79.7743 122.808 79.7875C122.83 79.8 122.852 79.8124 122.874 79.8256C122.895 79.8372 122.918 79.8497 122.939 79.8629C122.961 79.8753 122.983 79.8878 123.004 79.901C123.027 79.9134 123.048 79.925 123.07 79.9383C123.092 79.9499 123.114 79.9623 123.135 79.9756C123.157 79.9872 123.179 79.9996 123.201 80.0128C123.222 80.0244 123.244 80.0369 123.266 80.0501C123.287 80.0617 123.31 80.0741 123.331 80.0874C123.354 80.0998 123.375 80.1122 123.397 80.1247C123.419 80.1371 145.058 92.5874 145.08 92.6006C145.102 92.613 145.124 92.6255 145.145 92.6379C145.168 92.6503 145.189 92.6628 145.211 92.6752C145.232 92.6876 145.254 92.7 145.276 92.7124C145.298 92.7249 145.32 92.7373 145.342 92.7497C145.363 92.7621 145.385 92.7746 145.407 92.787C145.429 92.7994 145.451 92.8118 145.472 92.8243C145.495 92.8367 145.516 92.8491 145.538 92.8615C145.56 92.874 145.582 92.8864 145.603 92.8988C145.625 92.9112 145.647 92.9237 145.668 92.9361C145.69 92.9485 145.712 92.9609 145.734 92.9734C145.755 92.9858 145.778 92.9982 145.799 93.0106C145.821 93.0231 145.843 93.0355 145.865 93.0479C145.887 93.0603 145.909 93.0728 145.93 93.0852C145.952 93.0976 145.974 93.11 145.995 93.1225C146.018 93.1349 146.039 93.1473 146.061 93.1597C146.082 93.1722 146.105 93.1846 146.126 93.197C146.148 93.2094 146.17 93.2219 146.192 93.2351C146.213 93.2467 146.235 93.2591 146.257 93.2724C146.279 93.284 146.301 93.2964 146.322 93.3097C146.345 93.3221 146.366 93.3345 146.388 93.3478C146.409 93.3594 146.432 93.3718 146.453 93.385C146.475 93.3975 146.497 93.4099 146.519 93.4231C146.54 93.4356 146.562 93.4472 146.584 93.4604C146.605 93.472 146.628 93.4844 146.649 93.4977C146.672 93.5093 146.693 93.5225 146.715 93.535C146.736 93.5474 146.759 93.5598 146.779 93.5722C147.444 93.9367 147.857 94.7435 147.857 95.9006C147.857 98.1768 146.26 100.944 144.29 102.081C143.29 102.66 142.384 102.705 141.737 102.312C141.715 102.299 141.693 102.287 141.672 102.274C141.648 102.259 141.627 102.245 141.605 102.233Z" fill="#FAE211"/>
<path d="M86.8066 65.7817L185.828 122.992V119.537L86.8066 62.3276V65.7817Z" fill="#FFEE4A"/>
<path d="M140.724 100.017C140.724 102.293 142.32 103.215 144.29 102.077C146.259 100.939 147.856 98.1718 147.856 95.8965C147.856 93.6211 146.259 92.6984 144.29 93.8365C142.32 94.9737 140.724 97.7411 140.724 100.017Z" fill="#C9A800"/>
<path d="M142.081 99.2329C142.081 100.642 143.07 101.213 144.289 100.508C145.509 99.8036 146.497 98.0906 146.497 96.6809C146.497 95.2711 145.509 94.7004 144.289 95.4053C143.07 96.1102 142.081 97.8239 142.081 99.2329Z" fill="#8F5600"/>
<path d="M112.779 118.952C113.003 118.952 113.221 118.841 113.348 118.637L124.75 100.428C125.454 99.3049 126.906 98.9388 128.058 99.594L142.604 107.879C143.583 108.435 144.823 108.171 145.488 107.263L148.839 102.694C149.202 102.199 149.344 101.57 149.23 100.967C149.116 100.364 148.752 99.8293 148.232 99.5029L144.415 97.1025C144.102 96.9053 143.687 96.9998 143.489 97.3137C143.292 97.6284 143.386 98.0426 143.7 98.2406L147.518 100.641C147.725 100.772 147.864 100.976 147.911 101.217C147.957 101.459 147.902 101.7 147.757 101.898L144.405 106.467C144.144 106.825 143.655 106.929 143.269 106.71L128.722 98.4253C126.943 97.4123 124.699 97.978 123.612 99.7141L112.21 117.924C112.013 118.238 112.108 118.653 112.422 118.85C112.534 118.919 112.657 118.952 112.779 118.952Z" fill="#DFE9F7"/>
<path d="M74.493 181.341C75.0128 181.341 75.5218 181.081 75.8198 180.609L114.105 119.117C114.567 118.385 114.348 117.417 113.617 116.955C112.885 116.492 111.917 116.711 111.456 117.443L73.1703 178.935C72.7084 179.667 72.9278 180.636 73.6586 181.098C73.9177 181.262 74.2074 181.341 74.493 181.341Z" fill="#3A434F"/>
<path d="M49.7232 311.487C49.7232 311.487 54.12 309.468 56.9623 309.42C59.8046 309.372 61.748 309.857 62.7918 312.119C63.8363 314.379 63.2536 318.318 63.2536 318.318C63.2536 318.318 62.7678 320.943 58.2502 322.911C53.7318 324.881 51.3265 324.759 49.6024 325.488C47.8783 326.218 47.1491 327.118 47.1491 327.118L46.9306 328.138C46.9306 328.138 43.0437 330.034 40.7112 330.837C38.3796 331.639 37.335 331.736 35.683 331.152C34.0309 330.569 32.9383 328.746 32.9383 328.746L33.1088 322.766L34.4124 316.688L38.2993 312.929L49.7232 311.487Z" fill="#422D04"/>
<path d="M63.6178 313.844C63.6178 313.844 64.6864 317.247 61.4559 319.605C58.2253 321.963 55.9417 322.773 53.6581 323.187C51.3753 323.6 49.8201 323.761 48.2168 324.734C46.6136 325.707 42.7515 327.676 39.4962 328.064C36.2408 328.453 34.9297 327.675 34.2494 326.897C33.5698 326.12 32.8166 324.758 32.695 324.758C32.5733 324.758 31.9178 327.651 31.9178 327.651L33.958 333.023C33.958 333.023 53.9743 335.487 54.2979 335.227C54.6224 334.968 70.4273 326.864 70.4273 325.179C70.4273 323.494 70.1682 319.086 69.6501 318.307C69.1319 317.532 63.6178 313.844 63.6178 313.844Z" fill="#876014"/>
<path d="M32.0717 299.721C32.0717 299.721 36.4684 297.703 39.3108 297.655C42.1531 297.606 44.0965 298.092 45.1411 300.353C46.1856 302.614 45.6029 306.552 45.6029 306.552C45.6029 306.552 45.1171 309.177 40.5987 311.146C36.0803 313.115 33.6758 312.993 31.9509 313.723C30.2268 314.452 29.4976 315.352 29.4976 315.352L29.279 316.372C29.279 316.372 25.3922 318.268 23.0605 319.071C20.7289 319.873 19.6835 319.97 18.0323 319.387C16.381 318.804 15.2876 316.981 15.2876 316.981L15.4581 311L16.7617 304.922L20.6486 301.163L32.0717 299.721Z" fill="#422D04"/>
<path d="M45.9663 302.078C45.9663 302.078 47.0357 305.481 43.8043 307.84C40.573 310.198 38.2902 311.008 36.0066 311.421C33.723 311.834 32.1685 311.996 30.5653 312.969C28.962 313.941 25.1 315.91 21.8446 316.299C18.5893 316.688 17.2774 315.91 16.5979 315.133C15.9175 314.355 15.1651 312.993 15.0434 312.993C14.9218 312.993 14.2662 315.886 14.2662 315.886L16.3065 321.258C16.3065 321.258 36.3228 323.722 36.6464 323.462C36.97 323.203 52.7758 315.1 52.7758 313.414C52.7758 311.729 52.5167 307.321 51.9986 306.542C51.4804 305.766 45.9663 302.078 45.9663 302.078Z" fill="#876014"/>
<path d="M10.9786 213.698C10.9786 213.698 10.1037 219.192 12.2574 228.073C14.2695 236.368 14.2008 244.927 14.2654 251.41C14.33 257.892 15.1726 259.967 14.4591 262.819C13.7473 265.67 12.6456 278.571 12.9692 287.776C13.2937 296.981 14.33 309.039 14.33 309.039C14.33 309.039 12.9692 313.123 20.6784 314.29C28.3868 315.457 35.707 305.928 35.707 305.928C35.707 305.928 34.7998 288.36 34.0871 278.507C33.3745 268.653 33.5036 251.604 33.5036 251.086C33.5036 250.568 30.3302 224.184 30.2003 223.989C30.0703 223.795 21.2611 220.23 21.2611 220.23L10.9786 213.698Z" fill="#213F70"/>
<path d="M56.1768 214.394C56.1768 214.394 56.2414 231.249 57.0186 240.454C57.7958 249.658 58.573 253.094 57.7958 262.364C57.0186 271.633 55.0751 286.998 54.1034 292.961C53.1317 298.925 50.4756 314.094 50.4756 314.094C50.4756 314.094 50.7347 320.772 45.8115 324.142C40.8884 327.513 37.1314 326.411 34.8635 325.439C32.5956 324.466 30.394 319.539 30.394 319.539C30.394 319.539 31.6463 301.335 32.8771 294.983C34.1078 288.63 35.2525 284.08 35.188 281.942C35.1234 279.802 34.9943 266.384 33.18 257.762C31.3665 249.14 25.2126 232.026 21.3257 224.636C17.4396 217.246 29.6821 211.865 33.6981 211.282C37.715 210.699 56.1768 214.394 56.1768 214.394Z" fill="#2F5596"/>
<path d="M27.0103 148.637C27.0103 148.637 23.8526 146.133 18.735 146.004C13.6173 145.874 9.73126 148.727 8.88866 151.514C8.04689 154.301 9.79582 166.294 10.4431 169.341C11.0903 172.387 15.8198 181.528 16.0135 185.741C16.208 189.955 11.2195 212.385 11.2195 212.385C11.2195 212.385 9.92412 217.376 16.4671 222.497C23.0092 227.619 25.2117 229.822 31.8193 230.471C38.4259 231.119 46.6533 228.98 50.7347 225.868C54.8161 222.757 56.4673 216.533 56.0137 213.551C55.5602 210.569 54.8475 204.702 54.2648 193.488C53.6813 182.272 54.6207 168.627 53.2608 165.126C51.9009 161.626 42.8318 156.44 42.8318 156.44L27.0103 148.637Z" fill="#DEF0FA"/>
<path d="M42.3145 156.878C42.3145 156.878 41.9743 156.1 42.2176 153.799C42.461 151.498 43.1405 148.856 43.7721 147.949C44.4036 147.042 46.0714 146.28 47.1888 145.583C48.307 144.887 49.4079 143.12 49.4079 141.515C49.4079 139.911 50.1851 136.653 50.1362 135.681C50.0874 134.708 50.4036 132.084 50.4764 131.354C50.5493 130.624 49.0188 124.352 48.5818 123.891C48.1448 123.429 45.2296 118.778 42.0554 118.551C38.882 118.324 33.8124 118.032 30.1688 120.269C26.5253 122.505 25.3102 124.839 24.922 127.124C24.5338 129.408 24.7275 133.347 25.3591 136.216C25.9906 139.084 27.3505 140.251 27.3993 142.683C27.4482 145.114 26.2819 148.201 26.2819 148.201C26.2819 148.201 24.0472 148.492 23.8526 149.975C23.659 151.458 26.0634 152.989 27.108 153.719C28.1525 154.449 31.3591 156.052 33.3993 156.272C35.4396 156.49 36.97 155.907 38.4764 156.101C39.982 156.295 42.3145 156.878 42.3145 156.878Z" fill="#FDC6AA"/>
<path d="M47.9826 137.479C47.9826 137.479 47.918 135.114 48.0148 134.335C48.1117 133.557 49.0842 130.867 49.0842 130.867C49.0842 130.867 47.9826 128.436 47.8212 127.269C47.6598 126.103 48.8574 123.574 48.8574 123.574C48.8574 123.574 50.9623 119.944 43.8052 118.583C36.648 117.222 28.3884 119.101 26.4442 122.019C24.5007 124.936 24.0472 128.533 24.4039 132.682C24.7598 136.831 26.7355 139.457 27.0592 141.66C27.3836 143.865 27.1568 145.518 27.1568 145.518C27.1568 145.518 29.942 148.337 32.6304 148.889C35.3188 149.44 36.8732 148.564 38.0071 146.458C39.1411 144.352 40.6301 141.24 42.6067 139.327C44.5832 137.415 45.8132 138.614 45.8132 138.614C45.8132 138.614 47.6912 137.998 47.9826 137.479Z" fill="#5C3419"/>
<path d="M45.0351 139.424C45.0351 139.424 45.2536 137.503 43.6752 137.552C42.096 137.601 42.2176 141.028 42.4602 142.73C42.7027 144.431 43.6504 145.258 44.2339 145.063C44.8166 144.868 45.2056 144.431 44.8406 143.337C44.4764 142.244 45.5698 140.105 45.0351 139.424Z" fill="#FFCFB5"/>
<path d="M84.6314 168.465C84.6314 168.465 91.8614 164.113 92.978 163.054C94.0954 161.995 95.4031 155.686 95.3435 154.686C95.2848 153.687 94.976 150.716 94.6822 150.187C94.3884 149.657 93.1096 151.172 92.1693 152.525C91.2282 153.878 90.3161 156.419 87.9811 157.349C84.1017 158.893 81.9274 163.937 81.9274 163.937L84.6314 168.465Z" fill="#FDC6AA"/>
<path d="M41.9718 173.022C41.9718 173.022 45.1452 185.374 47.9668 191.639C50.7885 197.903 53.8741 200.551 56.4309 202.404C58.9877 204.256 58.7236 193.315 58.7236 193.315C58.7236 193.315 52.376 181.581 52.2874 181.228C52.1989 180.874 41.9718 173.022 41.9718 173.022Z" fill="#C5E1F0"/>
<path d="M52.8908 163.642C52.8908 163.642 59.8559 178.995 61.3549 181.377C62.8538 183.759 81.1046 162.231 81.1046 162.231C81.1046 162.231 87.3645 165.848 87.5408 171.583C87.5408 171.583 70.1177 194.197 64.7642 197.053C59.4106 199.907 52.7145 195.406 48.4825 189.406C45.9605 185.831 41.1938 174.73 41.0762 170.965C40.9587 167.2 46.208 157.657 52.8908 163.642Z" fill="#DEF0FA"/>
<path d="M83.1615 162.053C83.1615 162.053 84.1017 161.26 83.7491 159.759C83.3965 158.259 85.1157 155.127 85.7323 154.421C86.3489 153.716 88.7302 153.628 88.7302 153.628C88.7302 153.628 88.1864 154.613 87.54 155.701C86.8894 156.795 88.1575 157.863 89.524 157.951C90.8905 158.039 90.3169 160.466 90.0529 160.686C89.788 160.906 86.9664 162.848 86.7024 162.98C86.4383 163.112 83.1615 162.053 83.1615 162.053Z" fill="#FDC6AA"/>
<path d="M194.262 412.097C191.662 407.989 187.613 404.327 182.226 401.215L182.131 401.161L175.164 405.217C172.482 403.676 169.529 402.387 166.395 401.35L171.311 396.389C164.826 394.243 157.447 392.915 149.969 392.548L149.132 398.244C145.457 398.063 141.749 398.162 138.111 398.539L136.363 392.913C128.874 393.69 121.93 395.364 115.726 397.891L121.424 402.563C119.481 403.354 117.626 404.251 115.888 405.256C114.979 405.781 114.124 406.325 113.316 406.884L105.721 403.221C100.849 406.592 97.3921 410.453 95.4437 414.695L105.005 416.162C104.056 418.23 103.587 420.357 103.599 422.483L93.7063 422.502C93.7312 426.836 95.4172 431.193 98.5832 435.102L107.544 432.68C109.08 434.576 111.067 436.382 113.5 438.045L105.948 441.737C106.879 442.373 107.87 442.995 108.894 443.586C113.214 446.082 118.191 448.096 123.69 449.574L127.861 444.391C131.238 445.299 134.78 445.931 138.388 446.291L136.706 451.924C144.079 452.659 151.792 452.458 159.011 451.341L156.453 445.82C159.981 445.274 163.409 444.457 166.641 443.371L171.615 448.312C175.475 447.016 179.045 445.426 182.227 443.587C184.366 442.351 186.326 441.004 188.051 439.582L179.951 436.3C182.105 434.526 183.797 432.622 185.032 430.644L194.34 432.583C196.873 428.524 197.868 424.1 197.218 419.789L187.361 420.285C187.043 418.171 186.246 416.078 184.97 414.062L194.262 412.097ZM162.046 431.925C152.942 437.186 138.179 437.186 129.075 431.925C119.97 426.664 119.97 418.136 129.075 412.875C138.179 407.613 152.942 407.613 162.046 412.875C171.151 418.136 171.151 426.664 162.046 431.925Z" fill="#BEC8F7"/>
<path d="M191.638 408.544C189.039 404.436 184.989 400.775 179.603 397.663L179.507 397.608L172.54 401.664C169.859 400.123 166.906 398.834 163.771 397.797L168.688 392.836C162.203 390.69 154.823 389.362 147.345 388.996L146.508 394.692C142.833 394.511 139.126 394.609 135.487 394.987L133.74 389.36C126.251 390.137 119.307 391.811 113.102 394.338L118.801 399.011C116.857 399.802 115.003 400.699 113.264 401.703C112.355 402.229 111.5 402.773 110.692 403.332L103.097 399.668C98.2248 403.04 94.7675 406.9 92.8191 411.143L102.381 412.609C101.431 414.678 100.963 416.804 100.974 418.931L91.0825 418.95C91.1074 423.283 92.7942 427.64 95.9593 431.549L104.92 429.127C106.456 431.024 108.443 432.83 110.876 434.492L103.324 438.185C104.255 438.821 105.247 439.443 106.27 440.033C110.589 442.53 115.567 444.543 121.065 446.021L125.236 440.838C128.613 441.746 132.155 442.378 135.763 442.739L134.081 448.371C141.454 449.107 149.166 448.905 156.386 447.788L153.828 442.267C157.356 441.721 160.784 440.905 164.016 439.819L168.991 444.76C172.85 443.463 176.421 441.873 179.603 440.035C181.741 438.798 183.701 437.452 185.426 436.03L177.326 432.748C179.48 430.973 181.173 429.07 182.408 427.091L191.715 429.03C194.249 424.972 195.244 420.547 194.594 416.236L184.738 416.733C184.419 414.618 183.621 412.525 182.346 410.509L191.638 408.544ZM159.422 428.373C150.318 433.634 135.556 433.634 126.451 428.373C117.346 423.112 117.346 414.584 126.451 409.322C135.556 404.062 150.318 404.062 159.422 409.322C168.527 414.584 168.527 423.112 159.422 428.373Z" fill="#4F4E94"/>
<path d="M91.0834 408.446V418.95L95.9602 431.548V421.045L91.0834 408.446Z" fill="#4F4E94"/>
<path d="M168.991 434.256V444.759C168.991 444.759 180.756 440.759 185.426 436.029V425.526L170.548 430.682L168.991 434.256Z" fill="#3D3C7A"/>
<path d="M191.715 418.526V429.028C191.715 429.028 195.489 423.683 194.594 416.234L194.761 408.168L191.983 408.202L191.715 418.526Z" fill="#3D3C7A"/>
<path d="M191.638 398.041V410.741L180.459 408.476V400.445L181.591 397.151L186.118 396.533L191.638 398.041Z" fill="#3D3C7A"/>
<path d="M182.408 416.587V428.553L172.401 422.787L174.115 418.326L179.534 415.855L182.408 416.587Z" fill="#3D3C7A"/>
<path d="M164.016 429.315V439.818C164.016 439.818 158.028 441.771 153.828 442.266L152.715 429.033L164.016 429.315Z" fill="#3D3C7A"/>
<path d="M156.386 437.284V447.787C156.386 447.787 146.108 449.587 134.082 448.37V437.867L156.386 437.284Z" fill="#444287"/>
<path d="M95.9602 421.045L104.92 418.623V429.126L95.9602 431.548V421.045Z" fill="#3D3C7A"/>
<path d="M103.324 427.681V438.184L121.066 446.02L121.096 435.348L115.9 428.759L103.324 427.681Z" fill="#4F4E94"/>
<path d="M92.8199 400.64V414.55L104.772 410.363L105.047 403.5L104.909 399.518L92.8199 400.64Z" fill="#4F4E94"/>
<path d="M113.102 383.835V401.269L126.24 393.959C126.24 393.959 125.211 388.296 125.108 387.884C125.006 387.472 113.102 383.835 113.102 383.835Z" fill="#46458A"/>
<path d="M168.688 382.333V395.812L158.751 386.752L160.192 384.144L168.688 382.333Z" fill="#46458A"/>
<path d="M113.276 415.168L125.416 392.724C125.416 392.724 148.873 389.841 149.491 389.841C150.108 389.841 157.515 392.517 157.515 392.517C157.515 392.517 165.54 393.752 166.157 395.606C166.775 397.46 170.067 407.138 170.067 407.138L170.89 410.227L170.479 413.109L161.218 415.58L138.996 412.698L113.276 415.168Z" fill="#46458A"/>
<path d="M191.638 398.041C189.039 393.933 184.989 390.272 179.603 387.16L179.507 387.105L172.54 391.162C169.859 389.62 166.906 388.331 163.771 387.294L168.688 382.333C162.203 380.187 154.823 378.86 147.345 378.493L146.508 384.189C142.833 384.008 139.126 384.106 135.487 384.484L133.74 378.857C126.251 379.634 119.307 381.308 113.102 383.835L118.801 388.508C116.857 389.299 115.003 390.196 113.264 391.2C112.355 391.726 111.5 392.27 110.692 392.829L103.097 389.165C98.2248 392.537 94.7675 396.397 92.8191 400.64L102.381 402.106C101.431 404.175 100.963 406.301 100.974 408.428L91.0825 408.447C91.1074 412.78 92.7942 417.137 95.9593 421.046L104.92 418.624C106.456 420.521 108.443 422.327 110.876 423.989L103.324 427.682C104.255 428.318 105.247 428.94 106.27 429.53C110.589 432.027 115.567 434.041 121.065 435.518L125.236 430.336C128.613 431.243 132.155 431.875 135.763 432.236L134.081 437.868C141.454 438.604 149.166 438.402 156.386 437.285L153.828 431.764C157.356 431.218 160.784 430.401 164.016 429.316L168.991 434.257C172.85 432.96 176.421 431.37 179.603 429.531C181.741 428.295 183.701 426.949 185.426 425.527L177.326 422.245C179.48 420.47 181.173 418.566 182.408 416.588L191.715 418.527C194.249 414.469 195.244 410.044 194.594 405.733L184.738 406.23C184.419 404.115 183.621 402.022 182.346 400.006L191.638 398.041ZM159.422 417.87C150.318 423.131 135.556 423.131 126.451 417.87C117.346 412.609 117.346 404.081 126.451 398.819C135.556 393.559 150.318 393.559 159.422 398.819C168.527 404.081 168.527 412.61 159.422 417.87Z" fill="#6362B3"/>
<path d="M121.066 435.517V446.02L125.237 440.838V430.335L121.066 435.517Z" fill="#3D3C7A"/>
<path d="M95.5952 379.945C94.0225 377.459 91.5717 375.243 88.3114 373.36L88.2535 373.326L84.0363 375.782C82.414 374.848 80.627 374.069 78.73 373.442L81.7055 370.439C77.7806 369.141 73.3143 368.337 68.7901 368.114L68.2836 371.561C66.0595 371.452 63.8165 371.512 61.614 371.74L60.557 368.335C56.0245 368.805 51.8223 369.819 48.0678 371.348L51.5168 374.175C50.3407 374.655 49.2183 375.198 48.1663 375.806C47.6159 376.124 47.0986 376.452 46.6102 376.79L42.0132 374.573C39.0649 376.614 36.9725 378.95 35.7939 381.518L41.5803 382.405C41.0059 383.656 40.722 384.943 40.7294 386.23L34.7435 386.242C34.7584 388.865 35.779 391.501 37.6943 393.867L43.1165 392.401C44.0469 393.549 45.2487 394.641 46.7212 395.647L42.1514 397.882C42.7151 398.267 43.3143 398.643 43.9343 399.001C46.5482 400.511 49.5602 401.731 52.8883 402.624L55.412 399.489C57.4556 400.037 59.5993 400.42 61.7828 400.638L60.7647 404.047C65.2269 404.491 69.8943 404.37 74.2629 403.694L72.7142 400.352C74.8497 400.023 76.9239 399.528 78.8798 398.871L81.8901 401.861C84.2259 401.076 86.3862 400.114 88.3122 399.001C89.6068 398.254 90.7928 397.438 91.8366 396.578L86.9349 394.592C88.2386 393.518 89.2624 392.365 90.0098 391.168L95.6423 392.342C97.1761 389.885 97.7778 387.208 97.3838 384.598L91.4186 384.899C91.2257 383.619 90.7432 382.353 89.9709 381.132L95.5952 379.945ZM76.0987 391.945C70.5887 395.129 61.6553 395.129 56.1453 391.945C50.6353 388.761 50.6353 383.6 56.1453 380.416C61.6553 377.233 70.5887 377.233 76.0987 380.416C81.6087 383.599 81.6087 388.761 76.0987 391.945Z" fill="#BEC8F7"/>
<path d="M94.0068 377.794C92.4342 375.309 89.9833 373.093 86.723 371.209L86.6651 371.176L82.448 373.631C80.8257 372.699 79.0387 371.919 77.1416 371.291L80.1172 368.289C76.1922 366.991 71.726 366.186 67.2017 365.964L66.6952 369.411C64.4712 369.302 62.2281 369.361 60.0256 369.59L58.9678 366.186C54.4353 366.655 50.2339 367.669 46.4786 369.198L49.9277 372.026C48.7515 372.505 47.6291 373.047 46.5763 373.655C46.0267 373.973 45.5086 374.302 45.0202 374.641L40.4232 372.424C37.4749 374.464 35.3825 376.8 34.2039 379.367L39.9903 380.254C39.4159 381.506 39.1312 382.793 39.1394 384.079L33.1527 384.092C33.1684 386.714 34.1881 389.352 36.1034 391.716L41.5265 390.25C42.456 391.398 43.6578 392.491 45.1311 393.497L40.5614 395.731C41.1251 396.116 41.7243 396.493 42.3443 396.851C44.9582 398.361 47.9702 399.58 51.2983 400.474L53.822 397.338C55.8656 397.887 58.0093 398.27 60.1928 398.488L59.1747 401.896C63.6368 402.341 68.3042 402.219 72.6728 401.544L71.1242 398.202C73.2597 397.872 75.3339 397.378 77.2897 396.72L80.3001 399.71C82.6359 398.926 84.797 397.964 86.7222 396.851C88.0167 396.103 89.2028 395.287 90.2466 394.428L85.3449 392.442C86.6485 391.368 87.6732 390.216 88.4198 389.018L94.0523 390.192C95.5852 387.735 96.1878 385.058 95.7938 382.449L89.8286 382.748C89.6357 381.47 89.1532 380.202 88.3809 378.982L94.0068 377.794ZM74.5103 389.795C69.0003 392.979 60.067 392.979 54.557 389.795C49.047 386.612 49.047 381.45 54.557 378.266C60.067 375.082 69.0003 375.082 74.5103 378.266C80.0203 381.45 80.0203 386.612 74.5103 389.795Z" fill="#4F4E94"/>
<path d="M33.1535 377.736V384.092L36.1043 391.716V385.36L33.1535 377.736Z" fill="#4F4E94"/>
<path d="M80.3009 393.356V399.711C80.3009 399.711 87.4208 397.29 90.2474 394.428V388.072L81.2437 391.192L80.3009 393.356Z" fill="#3D3C7A"/>
<path d="M94.0532 383.835V390.192C94.0532 390.192 96.3376 386.957 95.7946 382.449L95.8956 377.566L94.2146 377.586L94.0532 383.835Z" fill="#3D3C7A"/>
<path d="M94.0068 371.44V379.125L87.242 377.754V372.894L87.9265 370.899L90.6662 370.526L94.0068 371.44Z" fill="#3D3C7A"/>
<path d="M88.4207 382.661V389.904L82.3644 386.415L83.4023 383.714L86.6817 382.219L88.4207 382.661Z" fill="#3D3C7A"/>
<path d="M77.2906 390.365V396.72C77.2906 396.72 73.6661 397.903 71.125 398.202L70.4521 390.194L77.2906 390.365Z" fill="#3D3C7A"/>
<path d="M72.6737 395.188V401.544C72.6737 401.544 66.4527 402.633 59.1756 401.897V395.542L72.6737 395.188Z" fill="#444287"/>
<path d="M36.1043 385.36L41.5273 383.895V390.251L36.1043 391.716V385.36Z" fill="#3D3C7A"/>
<path d="M40.5614 389.377V395.732L51.2983 400.474L51.3165 394.016L48.1721 390.028L40.5614 389.377Z" fill="#4F4E94"/>
<path d="M34.2047 373.011V381.43L41.4371 378.896L41.6035 374.742L41.5207 372.333L34.2047 373.011Z" fill="#4F4E94"/>
<path d="M46.4786 362.842V373.392L54.4295 368.968C54.4295 368.968 53.8071 365.541 53.7442 365.292C53.6821 365.043 46.4786 362.842 46.4786 362.842Z" fill="#46458A"/>
<path d="M80.118 361.932V370.09L74.1048 364.607L74.9763 363.028L80.118 361.932Z" fill="#46458A"/>
<path d="M46.5846 381.803L53.9312 368.221C53.9312 368.221 68.1271 366.476 68.5012 366.476C68.8754 366.476 73.3574 368.096 73.3574 368.096C73.3574 368.096 78.2143 368.844 78.5876 369.966C78.9617 371.088 80.9532 376.944 80.9532 376.944L81.4514 378.814L81.2023 380.558L75.5979 382.053L62.1495 380.31L46.5846 381.803Z" fill="#46458A"/>
<path d="M94.0068 371.44C92.4342 368.953 89.9833 366.737 86.723 364.854L86.6651 364.821L82.448 367.276C80.8257 366.343 79.0387 365.564 77.1416 364.936L80.1172 361.933C76.1922 360.635 71.726 359.832 67.2017 359.609L66.6952 363.056C64.4712 362.947 62.2281 363.006 60.0256 363.235L58.9678 359.83C54.4353 360.3 50.2339 361.314 46.4786 362.843L49.9277 365.67C48.7515 366.149 47.6291 366.692 46.5763 367.3C46.0267 367.619 45.5086 367.947 45.0202 368.285L40.4232 366.068C37.4749 368.109 35.3825 370.445 34.2039 373.012L39.9903 373.899C39.4159 375.151 39.1312 376.438 39.1394 377.725L33.1527 377.736C33.1684 380.359 34.1881 382.996 36.1034 385.361L41.5265 383.895C42.456 385.044 43.6578 386.136 45.1311 387.142L40.5614 389.377C41.1251 389.761 41.7243 390.138 42.3443 390.496C44.9582 392.006 47.9702 393.225 51.2983 394.119L53.822 390.983C55.8656 391.532 58.0093 391.914 60.1928 392.133L59.1747 395.542C63.6368 395.986 68.3042 395.865 72.6728 395.188L71.1242 391.847C73.2597 391.517 75.3339 391.022 77.2897 390.366L80.3001 393.356C82.6359 392.571 84.797 391.609 86.7222 390.496C88.0167 389.748 89.2028 388.932 90.2466 388.072L85.3449 386.087C86.6485 385.012 87.6732 383.86 88.4198 382.662L94.0523 383.836C95.5852 381.38 96.1878 378.703 95.7938 376.093L89.8286 376.393C89.6357 375.114 89.1532 373.847 88.3809 372.627L94.0068 371.44ZM74.5103 383.439C69.0003 386.622 60.067 386.622 54.557 383.439C49.047 380.255 49.047 375.094 54.557 371.91C60.067 368.726 69.0003 368.726 74.5103 371.91C80.0203 375.094 80.0203 380.255 74.5103 383.439Z" fill="#6362B3"/>
<path d="M51.2983 394.119V400.474L53.822 397.338V390.982L51.2983 394.119Z" fill="#3D3C7A"/>
<path d="M297.61 473.945C278.113 457.75 259.001 448.608 254.922 453.526C250.843 458.444 263.342 475.559 282.839 491.753C302.336 507.948 321.448 517.09 325.527 512.172C329.605 507.255 317.106 490.14 297.61 473.945Z" fill="#BEC8F7"/>
<path d="M284.403 468.992C284.388 469.094 284.247 472.538 282.553 473.477C280.859 474.416 277.758 473.972 276.455 472.356C275.152 470.739 273.25 467.141 273.25 466.932C273.25 466.723 273.537 466.071 273.459 465.628C273.38 465.185 271.713 462.837 269.394 461.612C267.075 460.386 264.677 458.013 263.009 455.456C261.341 452.901 261.785 449.59 262.201 448.546C262.618 447.502 264.546 446.381 266.267 446.459C267.988 446.537 274.527 451.101 274.814 451.518C275.1 451.936 284.768 466.306 284.403 468.992Z" fill="black"/>
<path d="M315.327 398.018C315.327 398.018 297.746 422.998 295.383 427.727C293.02 432.456 289.129 458.326 289.129 458.326L284.056 470.356C284.056 470.356 279.469 471.886 275.16 467.575C270.852 463.263 270.644 457.56 270.644 457.56C270.644 457.56 275.578 447.964 276.134 439.549C276.69 431.135 278.844 407.282 278.844 407.282C278.844 407.282 308.447 392.734 315.327 398.018Z" fill="#007A99"/>
<path d="M323.248 497.861L324.743 502.763C324.743 502.763 323.839 505.232 319.948 505.405C316.056 505.579 313.416 504.988 313.416 504.988C313.416 504.988 311.643 503.632 311.122 503.632C310.602 503.632 307.057 504.815 303.584 504.71C300.109 504.606 297.398 501.65 296.981 500.781C296.564 499.912 296.946 497.235 297.746 496.261C298.545 495.287 300.247 494.939 301.672 494.696C303.097 494.452 304.416 494.452 304.416 494.452L306.223 492.366C306.223 492.367 316.543 490.141 323.248 497.861Z" fill="black"/>
<path d="M299.58 403.409C299.58 403.409 302.192 437.601 304.138 442.887C306.085 448.172 318.731 477.519 320.676 483.082C322.623 488.645 323.734 497.825 323.734 497.825C323.734 497.825 322.97 502.136 316.09 501.162C309.21 500.189 305.945 494.904 305.945 494.904C305.945 494.904 305.597 487.602 303.86 484.333C302.122 481.064 286.14 454.708 284.263 450.953C282.386 447.197 272.561 403.657 272.561 403.657L299.58 403.409Z" fill="#008AAD"/>
<path d="M327.166 384.732C327.166 384.732 327.738 388.931 327.87 390.704C328 392.478 327.922 394.199 327.426 395.555C326.931 396.911 324.743 400.015 324.169 400.119C323.596 400.223 323.309 399.858 323.205 399.414C323.101 398.97 322.971 398.345 323.414 397.927C323.856 397.511 325.55 393.755 325.394 393.077C325.238 392.4 324.143 391.07 323.283 390.6C322.424 390.131 321.121 389.296 320.912 388.853C320.704 388.41 320.157 386.193 319.792 386.141C319.427 386.089 318.15 387.055 317.602 388.254C317.054 389.454 317.185 390.993 316.769 391.357C316.352 391.722 315.987 391.827 315.622 391.696C315.258 391.566 314.892 387.654 315.022 386.429C315.152 385.204 317.472 383.665 317.602 382.491C317.733 381.316 325.446 381.656 327.166 384.732Z" fill="#F7BC92"/>
<path d="M323.179 390.105C323.179 390.105 323.283 393.651 323.179 394.199C323.075 394.746 321.225 398.241 321.198 398.737C321.172 399.233 322.241 399.337 322.605 399.285C322.97 399.233 325.211 396.416 325.523 395.06C325.836 393.704 324.663 390.236 324.429 389.974C324.196 389.714 323.57 389.558 323.179 390.105Z" fill="#F7BC92"/>
<path d="M323.544 390.131C323.544 390.131 323.076 393 322.789 393.912C322.502 394.825 320.287 397.094 319.87 397.145C319.453 397.197 318.958 396.546 319.219 395.633C319.48 394.72 320.913 393.365 321.095 392.504C321.278 391.644 321.043 388.279 321.043 388.279C321.043 388.279 323.127 387.445 323.544 390.131Z" fill="#F7BC92"/>
<path d="M297.363 318.233C297.363 318.233 300.108 319.833 300.873 319.902C301.637 319.972 305.844 322.439 308.241 322.96C310.638 323.481 314.892 325.013 315.327 326.692C315.662 327.986 320.597 335.935 322.786 343.446C324.976 350.957 326.68 357.907 326.888 359.784C327.097 361.663 328.808 383.638 328.808 383.638C328.808 383.638 327.244 385.725 323.179 385.62C319.114 385.517 317.133 382.874 317.133 382.874C317.133 382.874 315.813 368.479 315.048 364.724C314.283 360.969 312.199 353.11 312.199 353.11C312.199 353.11 310.74 358.535 310.809 361.872C310.879 365.21 315.048 375.502 315.257 382.387C315.465 389.272 315.244 397.629 315.244 397.629C315.244 397.629 312.117 405.035 299.921 408.582C287.725 412.13 282.45 410.511 278.28 409.05C274.11 407.589 272.561 404.82 272.561 404.82C272.561 404.82 269.809 388.75 269.392 383.221C268.975 377.693 265.434 342.451 265.434 342.451C265.434 342.451 277.036 329.048 278.999 327.449C280.963 325.85 283.881 323.346 285.132 323.346C286.384 323.345 295.418 323.553 297.363 318.233Z" fill="#FFDD00"/>
<path d="M281.016 323.449L279.765 317.347C279.765 317.347 277.68 317.034 277.106 315.73C276.534 314.426 275.647 308.845 275.439 307.541C275.23 306.238 275.594 304.256 275.334 303.421C275.074 302.586 274.344 300.552 274.396 298.466C274.449 296.38 276.377 290.33 283.152 288.557C289.927 286.783 296.285 289.443 299.256 294.815C302.227 300.188 302.383 305.143 300.716 308.481C299.048 311.818 297.328 315.313 297.068 316.252C296.807 317.191 297.172 318.703 297.172 318.703C297.172 318.703 295.712 321.677 293.159 322.563C290.605 323.449 282.058 322.772 281.016 323.449Z" fill="#F7BC92"/>
<path d="M297.398 317.746C297.398 317.746 297.85 318.651 297.954 319.502C298.059 320.354 296.791 322.336 294.584 322.962C292.378 323.588 287.496 323.31 285.532 323.535C283.57 323.761 279 327.447 279 327.447C279 327.447 280.755 323.535 280.877 323.362C280.998 323.188 282.789 322.093 284.212 321.85C285.636 321.606 289.649 321.85 291.856 321.206C294.063 320.563 296.043 319.92 297.398 317.746Z" fill="#FFF47A"/>
<path d="M279.018 310.793C279.018 310.793 278.636 309.158 279.365 309.089C280.095 309.019 282.005 309.75 282.423 311.975C282.84 314.199 281.832 315.694 280.998 316.112C280.164 316.529 279.469 316.008 279.33 315.555C279.191 315.103 279.573 315.034 279.573 313.991C279.573 312.947 279.886 311.384 279.018 310.793Z" fill="#FFC8A1"/>
<path d="M287.481 283.233C287.481 283.233 278.033 282.735 274.386 288.21C270.74 293.683 272.563 295.508 272.563 295.508C272.563 295.508 275.127 298.084 276.287 297.006C277.447 295.928 276.246 298.375 276.246 298.375C276.246 298.375 276.743 301.899 277.158 302.852C277.572 303.806 278.07 305.465 278.11 306.378C278.151 307.29 277.861 309.239 277.861 309.239L279.56 309.488C279.56 309.488 280.223 308.037 280.804 307.953C281.384 307.869 283.337 309.773 283.999 311.266C284.206 311.729 284.748 312.527 285.402 313.408C287.585 316.357 291.293 317.794 294.87 316.985C295.106 316.933 295.286 316.879 295.389 316.828C296.218 316.413 296.265 318.15 298.502 315.994C300.74 313.837 302.398 299.654 302.232 298.742C302.066 297.83 302.605 293.352 300.989 288.873C300.447 287.372 293.78 281.367 287.481 283.233Z" fill="#995B32"/>
<path d="M242.437 373.303C242.437 373.303 240.262 370.359 239.019 368.492C237.777 366.626 236.782 367.062 236.16 364.325C235.538 361.588 236.284 359.847 236.533 359.1C236.782 358.354 242.936 357.607 244.117 358.167C245.298 358.727 246.416 362.148 246.727 362.832C247.038 363.516 244.738 363.848 243.931 364.968C243.123 366.088 245.919 368.555 245.919 368.555L242.437 373.303Z" fill="#F7BC92"/>
<path d="M247.037 364.678C247.037 364.678 239.329 368.907 241.442 375.004C241.442 375.004 255.863 389.642 260.96 390.139C262.088 390.25 263.24 390.335 264.378 390.25L259.254 374.764L247.037 364.678Z" fill="#FFDD00"/>
<path d="M337.924 412.709C335.119 411.821 330.464 410.387 328.329 409.779C327.231 409.465 326.071 408.505 325.18 407.183C323.885 405.264 322.169 402.365 321.639 399.808C321.116 397.292 320.922 394.232 321.187 392.136C323.761 392.619 327.531 393.456 329.695 393.945C329.856 393.982 329.988 393.96 330.093 393.898C330.111 393.891 330.125 393.881 330.14 393.873C330.158 393.865 330.172 393.855 330.188 393.847C330.205 393.839 330.22 393.83 330.236 393.821C330.253 393.814 330.267 393.804 330.283 393.796C330.3 393.788 330.314 393.778 330.331 393.77C330.347 393.762 330.362 393.752 330.378 393.744C330.394 393.737 330.409 393.728 330.425 393.719C330.442 393.712 330.457 393.702 330.472 393.693C330.49 393.686 330.505 393.676 330.52 393.668C330.537 393.661 330.552 393.651 330.567 393.642C330.585 393.635 330.599 393.625 330.615 393.617C330.632 393.609 330.646 393.599 330.663 393.591C330.679 393.583 330.694 393.574 330.71 393.565C330.727 393.558 330.741 393.548 330.757 393.54C330.774 393.532 330.788 393.522 330.805 393.514C330.822 393.506 330.836 393.497 330.852 393.488C330.869 393.481 330.884 393.472 330.899 393.463C330.917 393.456 330.931 393.446 330.947 393.437C330.964 393.43 330.979 393.42 330.995 393.412C331.011 393.405 331.026 393.395 331.042 393.386C331.059 393.379 331.073 393.369 331.089 393.361C331.106 393.353 331.12 393.343 331.136 393.335C331.153 393.328 331.168 393.318 331.184 393.309C331.201 393.302 331.216 393.292 331.231 393.284C331.249 393.276 331.263 393.266 331.279 393.258C331.296 393.251 331.311 393.241 331.326 393.232C331.343 393.225 331.358 393.215 331.374 393.207C331.391 393.199 331.405 393.19 331.421 393.181C331.438 393.174 331.452 393.164 331.469 393.155C331.485 393.149 331.5 393.139 331.516 393.13C331.533 393.123 331.547 393.113 331.563 393.105C331.581 393.097 331.595 393.087 331.611 393.079C331.628 393.072 331.643 393.062 331.658 393.053C331.675 393.046 331.69 393.036 331.706 393.028C331.723 393.02 331.737 393.01 331.753 393.002C331.77 392.995 331.785 392.985 331.801 392.976C331.817 392.969 331.832 392.959 331.848 392.951C331.865 392.943 331.879 392.934 331.895 392.925C331.912 392.918 331.927 392.908 331.943 392.899C331.96 392.893 331.975 392.883 331.99 392.874C332.008 392.867 332.022 392.857 332.037 392.849C332.055 392.841 332.069 392.831 332.085 392.823C332.102 392.816 332.117 392.806 332.133 392.797C332.15 392.79 332.164 392.78 332.18 392.772C332.197 392.764 332.211 392.754 332.227 392.746C332.244 392.739 332.259 392.729 332.275 392.72C332.292 392.713 332.306 392.703 332.322 392.695C332.34 392.687 332.354 392.677 332.369 392.669C332.387 392.662 332.401 392.652 332.417 392.643C332.434 392.637 332.449 392.627 332.465 392.618C332.482 392.611 332.496 392.601 332.512 392.593C332.529 392.585 332.543 392.575 332.559 392.567C332.576 392.56 332.591 392.55 332.607 392.541C332.623 392.534 332.638 392.524 332.654 392.516C332.671 392.508 332.686 392.498 332.701 392.49C332.719 392.483 332.733 392.473 332.749 392.464C332.766 392.457 332.781 392.447 332.796 392.439C332.814 392.431 332.828 392.421 332.844 392.413C332.861 392.406 332.875 392.396 332.891 392.387C332.908 392.38 332.923 392.371 332.939 392.362C332.955 392.354 332.97 392.345 332.986 392.337C333.003 392.329 333.017 392.319 333.033 392.311C333.051 392.304 333.065 392.294 333.081 392.286C333.098 392.278 333.113 392.268 333.128 392.26C333.146 392.252 333.16 392.242 333.176 392.234C333.193 392.227 333.207 392.217 333.224 392.209C333.24 392.201 333.255 392.191 333.271 392.183C333.287 392.175 333.302 392.165 333.318 392.157C333.335 392.15 333.349 392.14 333.365 392.131C333.382 392.124 333.397 392.114 333.413 392.106C333.43 392.099 333.445 392.089 333.46 392.08C333.478 392.073 333.492 392.064 333.507 392.055C333.525 392.048 333.539 392.038 333.555 392.03C333.572 392.022 333.587 392.012 333.603 392.004C333.62 391.996 333.634 391.987 333.65 391.978C333.667 391.971 333.681 391.961 333.697 391.953C333.714 391.945 333.729 391.935 333.745 391.927C333.762 391.919 333.776 391.909 333.792 391.901C333.81 391.894 333.824 391.884 333.839 391.876C333.857 391.868 333.871 391.858 333.887 391.85C334.326 391.661 334.342 390.816 333.81 390.077C332.145 387.761 328.991 383.996 324.21 380.755C316.684 375.655 315.144 376.27 311.53 377.605C307.915 378.941 303.115 378.975 295.116 374.832C287.117 370.69 250.119 349.314 239.276 343.187C228.433 337.059 227.781 334.765 224.403 331.033C221.026 327.302 216.997 318.948 213.383 316.792C209.768 314.635 205.502 314.155 200.821 316.176C200.554 316.291 200.306 316.414 200.072 316.543C200.057 316.553 200.041 316.561 200.025 316.569C200.009 316.578 199.994 316.587 199.978 316.595C199.962 316.604 199.947 316.612 199.931 316.621C199.915 316.629 199.899 316.638 199.884 316.646C199.868 316.655 199.852 316.664 199.836 316.672C199.821 316.68 199.805 316.689 199.789 316.698C199.774 316.706 199.757 316.715 199.742 316.723C199.726 316.732 199.711 316.741 199.695 316.749C199.679 316.757 199.663 316.766 199.648 316.775C199.632 316.783 199.616 316.792 199.601 316.8C199.585 316.809 199.569 316.818 199.553 316.825C199.537 316.834 199.521 316.843 199.506 316.851C199.49 316.86 199.475 316.868 199.459 316.876C199.443 316.886 199.427 316.894 199.412 316.902C199.396 316.911 199.38 316.92 199.365 316.928C199.349 316.936 199.333 316.945 199.317 316.953C199.302 316.963 199.285 316.971 199.27 316.979C199.255 316.988 199.239 316.997 199.223 317.005C199.207 317.013 199.192 317.022 199.176 317.031C199.16 317.039 199.144 317.048 199.129 317.056C199.113 317.064 199.097 317.074 199.082 317.081C199.066 317.09 199.05 317.098 199.034 317.107C199.019 317.116 199.003 317.124 198.987 317.132C198.972 317.142 198.956 317.15 198.94 317.158C198.924 317.167 198.909 317.175 198.893 317.184C198.877 317.192 198.861 317.201 198.846 317.209C198.83 317.219 198.814 317.227 198.799 317.235C198.783 317.243 198.767 317.253 198.751 317.261C198.736 317.269 198.72 317.278 198.704 317.286C198.688 317.295 198.673 317.304 198.657 317.312C198.641 317.32 198.626 317.33 198.61 317.338C198.594 317.346 198.578 317.355 198.563 317.363C198.546 317.372 198.53 317.38 198.515 317.388C198.499 317.397 198.483 317.406 198.467 317.414C198.452 317.423 198.436 317.431 198.42 317.44C198.405 317.448 198.389 317.457 198.373 317.465C198.357 317.474 198.342 317.483 198.326 317.491C198.31 317.5 198.294 317.508 198.279 317.517C198.263 317.525 198.247 317.534 198.232 317.542C198.216 317.551 198.2 317.56 198.184 317.568C198.169 317.576 198.153 317.585 198.137 317.594C198.121 317.602 198.106 317.611 198.09 317.619C198.074 317.628 198.059 317.636 198.043 317.644C198.027 317.653 198.011 317.662 197.996 317.67C197.98 317.679 197.964 317.687 197.948 317.696C197.933 317.705 197.916 317.713 197.901 317.721C197.886 317.73 197.87 317.739 197.854 317.747C197.838 317.755 197.823 317.764 197.807 317.773C197.791 317.782 197.775 317.79 197.76 317.798C197.744 317.807 197.728 317.816 197.713 317.824C197.697 317.832 197.681 317.841 197.665 317.85C197.65 317.858 197.634 317.867 197.618 317.875C197.602 317.884 197.587 317.893 197.571 317.9C197.555 317.909 197.54 317.918 197.524 317.926C197.508 317.935 197.492 317.943 197.477 317.952C197.461 317.961 197.444 317.969 197.429 317.977C197.414 317.986 197.398 317.995 197.382 318.003C197.367 318.012 197.351 318.02 197.335 318.029C197.319 318.038 197.304 318.046 197.288 318.054C197.272 318.063 197.257 318.072 197.241 318.08C197.225 318.089 197.208 318.097 197.194 318.106C197.178 318.114 197.162 318.123 197.146 318.131C197.131 318.14 197.115 318.149 197.099 318.157C197.084 318.165 197.068 318.174 197.052 318.182C197.036 318.191 197.02 318.199 197.005 318.208C196.989 318.217 196.973 318.225 196.958 318.233C196.942 318.242 196.926 318.251 196.911 318.259C196.895 318.268 196.879 318.276 196.863 318.285C196.848 318.294 196.832 318.302 196.816 318.31C196.8 318.319 196.785 318.328 196.769 318.336C196.753 318.344 196.738 318.353 196.722 318.362C196.706 318.37 196.69 318.379 196.675 318.387C196.659 318.396 196.642 318.405 196.627 318.413C196.612 318.421 196.596 318.43 196.58 318.439C196.565 318.447 196.549 318.456 196.533 318.463C196.517 318.473 196.502 318.481 196.486 318.489C196.47 318.498 196.454 318.507 196.439 318.515C196.423 318.524 196.406 318.532 196.392 318.541C196.376 318.55 196.36 318.558 196.344 318.566C196.328 318.575 196.312 318.584 196.297 318.592C194.687 319.477 193.837 320.688 193.396 321.809C192.924 323.009 194.084 325.161 195.407 325.564L204.102 328.206C205.034 328.489 206.014 329.366 206.701 330.533C210.029 336.178 209.982 340.702 209.415 343.415L202.298 341.624C202.109 341.576 201.953 341.597 201.827 341.664C201.81 341.672 201.796 341.682 201.78 341.69C201.763 341.698 201.748 341.707 201.733 341.716C201.715 341.723 201.701 341.733 201.686 341.741C201.668 341.749 201.654 341.759 201.638 341.767C201.622 341.774 201.607 341.784 201.591 341.793C201.574 341.799 201.56 341.81 201.544 341.818C201.527 341.825 201.513 341.836 201.497 341.844C201.479 341.851 201.465 341.862 201.45 341.87C201.432 341.876 201.418 341.887 201.402 341.895C201.385 341.902 201.371 341.912 201.355 341.92C201.338 341.928 201.324 341.938 201.308 341.946C201.292 341.953 201.277 341.963 201.261 341.972C201.244 341.979 201.229 341.989 201.214 341.997C201.197 342.005 201.182 342.015 201.167 342.023C201.15 342.03 201.135 342.04 201.119 342.049C201.102 342.055 201.088 342.066 201.072 342.074C201.055 342.081 201.041 342.092 201.025 342.1C201.008 342.107 200.994 342.117 200.978 342.126C200.961 342.132 200.946 342.143 200.931 342.151C200.913 342.158 200.899 342.169 200.883 342.176C200.866 342.184 200.852 342.194 200.836 342.202C200.82 342.209 200.805 342.219 200.789 342.228C200.772 342.235 200.758 342.245 200.742 342.253C200.725 342.261 200.711 342.271 200.695 342.279C200.678 342.286 200.663 342.296 200.648 342.305C200.63 342.312 200.616 342.322 200.6 342.33C200.583 342.337 200.569 342.348 200.553 342.356C200.536 342.363 200.522 342.373 200.506 342.382C200.489 342.388 200.475 342.399 200.459 342.407C200.442 342.414 200.427 342.425 200.412 342.432C200.394 342.44 200.38 342.45 200.365 342.458C200.348 342.465 200.333 342.475 200.317 342.484C200.3 342.491 200.286 342.501 200.27 342.509C200.254 342.517 200.239 342.527 200.223 342.535C200.206 342.542 200.192 342.552 200.176 342.561C200.159 342.567 200.144 342.578 200.129 342.586C200.111 342.593 200.097 342.604 200.081 342.612C200.064 342.619 200.05 342.629 200.034 342.638C200.018 342.644 200.003 342.655 199.987 342.663C199.97 342.67 199.956 342.681 199.94 342.689C199.923 342.696 199.908 342.706 199.893 342.714C199.876 342.721 199.861 342.731 199.846 342.74C199.828 342.747 199.814 342.757 199.798 342.765C199.781 342.773 199.767 342.783 199.751 342.791C199.734 342.798 199.72 342.808 199.704 342.817C199.687 342.824 199.673 342.834 199.657 342.842C199.639 342.849 199.625 342.86 199.61 342.868C199.592 342.875 199.578 342.885 199.562 342.894C199.546 342.9 199.531 342.911 199.515 342.919C199.498 342.926 199.484 342.937 199.468 342.945C199.452 342.952 199.437 342.962 199.421 342.97C199.404 342.977 199.389 342.987 199.374 342.995C199.356 343.003 199.342 343.013 199.327 343.021C199.309 343.029 199.295 343.039 199.279 343.047C199.262 343.054 199.248 343.064 199.232 343.072C199.216 343.08 199.201 343.09 199.185 343.098C199.168 343.105 199.154 343.116 199.138 343.124C199.12 343.13 199.106 343.141 199.091 343.15C199.074 343.156 199.059 343.167 199.044 343.175C199.026 343.182 199.012 343.193 198.996 343.201C198.98 343.208 198.965 343.218 198.949 343.227C198.932 343.233 198.918 343.244 198.902 343.251C198.885 343.259 198.871 343.269 198.855 343.277C198.837 343.285 198.823 343.294 198.808 343.303C198.79 343.31 198.776 343.32 198.76 343.328C198.744 343.336 198.729 343.346 198.713 343.354C198.696 343.362 198.682 343.372 198.666 343.38C198.65 343.387 198.635 343.397 198.619 343.405C198.602 343.412 198.587 343.423 198.572 343.431C198.554 343.438 198.54 343.449 198.525 343.457C198.507 343.463 198.493 343.474 198.477 343.483C198.46 343.489 198.446 343.5 198.43 343.508C198.414 343.515 198.399 343.526 198.383 343.534C198.366 343.54 198.352 343.551 198.336 343.559C198.318 343.566 198.304 343.576 198.289 343.584C198.272 343.592 198.257 343.602 198.241 343.61C198.224 343.618 198.21 343.627 198.194 343.636C198.178 343.643 198.163 343.653 198.147 343.661C198.13 343.668 198.116 343.679 198.1 343.687C198.083 343.694 198.068 343.705 198.053 343.713C197.54 343.922 197.503 344.885 198.103 345.75C200.533 349.254 205.484 355.406 211.79 358.002C216.061 359.76 218.218 358.839 220.167 357.769C220.183 357.761 220.199 357.752 220.214 357.743C220.23 357.735 220.246 357.726 220.262 357.718C220.277 357.71 220.293 357.7 220.309 357.693C220.325 357.684 220.339 357.676 220.354 357.668C220.371 357.659 220.387 357.651 220.403 357.642C220.419 357.632 220.435 357.624 220.45 357.616C220.466 357.608 220.482 357.599 220.497 357.59C220.513 357.582 220.529 357.573 220.545 357.565C220.56 357.556 220.576 357.547 220.592 357.539C220.608 357.531 220.623 357.521 220.639 357.513C220.655 357.505 220.67 357.497 220.685 357.488C220.701 357.479 220.717 357.471 220.733 357.463C220.749 357.454 220.765 357.445 220.781 357.437C220.796 357.428 220.812 357.42 220.828 357.411C220.843 357.402 220.859 357.394 220.875 357.386C220.891 357.377 220.906 357.368 220.922 357.36C220.938 357.351 220.953 357.343 220.968 357.335C220.985 357.326 221.001 357.318 221.016 357.309C221.032 357.3 221.048 357.291 221.064 357.283C221.079 357.275 221.095 357.266 221.111 357.257C221.127 357.249 221.142 357.24 221.158 357.232C221.174 357.223 221.189 357.214 221.205 357.206C221.221 357.198 221.236 357.189 221.252 357.181C221.267 357.173 221.284 357.164 221.3 357.155C221.315 357.146 221.331 357.138 221.347 357.13C221.362 357.121 221.378 357.112 221.394 357.104C221.41 357.095 221.425 357.087 221.441 357.078C221.455 357.071 221.468 357.063 221.482 357.056C223.231 356.154 225.159 355.593 228.637 357.198C236.874 360.999 285.129 389.426 291.706 393.09C298.283 396.753 301.97 399.941 306.591 406.309C309.417 410.203 312.505 419.21 322.044 422.668C325.435 423.897 328.222 423.348 330.406 422.131C330.423 422.122 330.437 422.114 330.454 422.105C330.47 422.096 330.485 422.088 330.501 422.08C330.517 422.071 330.533 422.062 330.548 422.054C330.565 422.045 330.58 422.037 330.596 422.028C330.612 422.019 330.628 422.011 330.644 422.003C330.659 421.994 330.675 421.985 330.691 421.977C330.707 421.969 330.722 421.96 330.739 421.951C330.755 421.943 330.77 421.934 330.786 421.927C330.802 421.917 330.817 421.909 330.833 421.901C330.849 421.892 330.865 421.883 330.88 421.875C330.897 421.866 330.912 421.858 330.928 421.849C330.944 421.84 330.96 421.832 330.976 421.824C330.991 421.816 331.007 421.806 331.023 421.798C331.039 421.789 331.054 421.781 331.071 421.772C331.086 421.764 331.101 421.755 331.117 421.748C331.134 421.738 331.149 421.73 331.165 421.721C331.182 421.713 331.197 421.704 331.212 421.695C331.229 421.687 331.244 421.678 331.26 421.671C331.276 421.661 331.292 421.653 331.307 421.645C331.323 421.636 331.339 421.627 331.355 421.619C331.371 421.61 331.386 421.602 331.403 421.594C331.418 421.584 331.433 421.576 331.449 421.568C331.466 421.559 331.481 421.55 331.497 421.542C331.514 421.533 331.528 421.525 331.545 421.517C331.561 421.507 331.576 421.499 331.592 421.491C331.608 421.483 331.624 421.473 331.639 421.465C331.656 421.457 331.671 421.448 331.687 421.439C331.703 421.431 331.718 421.422 331.734 421.415C331.75 421.405 331.766 421.397 331.782 421.389C331.797 421.38 331.813 421.372 331.829 421.363C331.845 421.354 331.86 421.346 331.877 421.338C331.893 421.328 331.908 421.32 331.924 421.312C331.94 421.304 331.956 421.295 331.971 421.286C331.987 421.278 332.003 421.269 332.018 421.261C332.035 421.252 332.05 421.243 332.066 421.235C332.082 421.226 332.098 421.217 332.114 421.209C332.13 421.201 332.145 421.192 332.161 421.184C332.177 421.175 332.192 421.166 332.209 421.158C332.225 421.15 332.24 421.14 332.256 421.133C332.272 421.124 332.287 421.116 332.303 421.106C332.319 421.098 332.335 421.09 332.35 421.082C332.367 421.073 332.382 421.064 332.398 421.056C332.414 421.047 332.43 421.039 332.445 421.03C332.462 421.021 332.477 421.013 332.493 421.005C332.509 420.995 332.524 420.987 332.541 420.979C332.556 420.97 332.572 420.962 332.588 420.953C332.604 420.945 332.619 420.936 332.635 420.928C332.651 420.919 332.667 420.911 332.683 420.902C332.699 420.894 332.714 420.884 332.73 420.876C332.746 420.868 332.762 420.859 332.777 420.851C332.794 420.842 332.809 420.834 332.825 420.826C332.841 420.817 332.857 420.808 332.873 420.8C332.888 420.791 332.904 420.783 332.92 420.774C332.935 420.766 332.951 420.757 332.967 420.749C332.983 420.74 332.998 420.731 333.015 420.723C333.031 420.714 333.046 420.706 333.062 420.697C333.078 420.689 333.094 420.68 333.109 420.672C333.126 420.663 333.141 420.654 333.157 420.646C333.173 420.638 333.189 420.629 333.204 420.62C333.22 420.612 333.236 420.603 333.252 420.595C333.267 420.586 333.283 420.578 333.3 420.57C333.315 420.561 333.33 420.552 333.347 420.544C333.363 420.535 333.378 420.527 333.394 420.518C333.411 420.509 333.425 420.501 333.441 420.493C333.458 420.484 333.473 420.475 333.489 420.467C333.505 420.458 333.52 420.45 333.536 420.441C333.552 420.433 333.568 420.424 333.584 420.416C333.6 420.407 333.615 420.398 333.632 420.39C333.647 420.382 333.663 420.373 333.679 420.364C333.695 420.356 333.71 420.347 333.726 420.339C333.742 420.33 333.757 420.321 333.773 420.314C333.79 420.305 333.805 420.296 333.821 420.288C333.837 420.279 333.852 420.271 333.868 420.262C333.884 420.253 333.9 420.245 333.915 420.237C333.932 420.228 333.947 420.219 333.964 420.211C333.979 420.202 333.995 420.194 334.011 420.185C334.026 420.177 334.042 420.168 334.058 420.16C334.074 420.151 334.089 420.142 334.105 420.134C334.122 420.126 334.136 420.117 334.152 420.109C334.169 420.1 334.184 420.092 334.2 420.083C336.543 418.791 338.198 416.728 339.165 415.244C339.576 414.545 338.84 412.999 337.924 412.709Z" fill="#445B9E"/>
<path d="M323.339 411.393C323.339 411.393 332.197 406.175 331.946 406.489C331.695 406.803 323.025 391.147 323.025 391.147L312.721 391.399L311.905 403.219C311.905 403.219 314.984 406.049 315.171 406.112C315.361 406.175 323.339 411.393 323.339 411.393Z" fill="#344885"/>
<path d="M195.388 325.565L204.084 328.207C205.015 328.49 205.996 329.367 206.683 330.534C210.695 337.34 209.803 342.518 209.007 344.854C208.711 345.726 207.989 346.113 207.076 345.882L198.464 343.715C197.578 343.492 197.353 344.703 198.091 345.768C200.52 349.272 205.471 355.423 211.778 358.019C220.843 361.751 220.386 353.41 228.623 357.209C236.859 361.009 285.115 389.437 291.692 393.101C298.269 396.763 301.956 399.952 306.577 406.32C309.403 410.213 312.49 419.221 322.03 422.679C329.019 425.212 333.444 420.193 335.309 417.328C335.76 416.635 335.025 415.09 334.108 414.8C331.303 413.912 326.648 412.478 324.513 411.868C323.415 411.555 322.256 410.595 321.364 409.274C320.07 407.354 318.353 404.455 317.823 401.898C316.934 397.619 316.993 391.765 318.653 391.765C319.905 391.765 326.525 393.228 329.697 393.945C330.455 394.117 330.62 393.053 329.972 392.151C328.306 389.835 325.152 386.07 320.371 382.83C312.846 377.729 311.305 378.345 307.691 379.68C304.076 381.015 299.277 381.049 291.277 376.907C283.278 372.764 246.28 351.389 235.437 345.261C224.595 339.133 223.942 336.839 220.565 333.107C217.187 329.376 213.158 321.022 209.544 318.866C205.929 316.709 201.663 316.23 196.982 318.25C194.908 319.145 193.88 320.537 193.38 321.81C192.906 323.01 194.066 325.162 195.388 325.565Z" fill="#728DDB"/>
<path d="M195.716 323.13C196.281 322.181 197.174 321.438 198.383 320.917C202.356 319.202 206.202 319.339 209.506 321.31C210.95 322.172 213.086 325.436 214.971 328.316C216.505 330.661 218.091 333.086 219.678 334.838C220.218 335.436 220.684 335.995 221.178 336.589C223.662 339.575 226.008 342.398 235.46 347.739C238.721 349.582 244.35 352.805 250.867 356.537C266.407 365.437 285.748 376.512 291.387 379.433C298.659 383.198 304.268 384.131 309.042 382.367L309.107 382.344C312.536 381.077 313.571 380.695 320.186 385.179C322.847 386.983 324.935 388.96 326.459 390.644C321.533 389.558 318.59 389.009 317.698 389.009C315.987 389.01 315.119 391.062 315.119 395.111C315.119 397.106 315.354 399.383 315.764 401.358C316.445 404.638 318.471 408.116 320.05 410.456C321.474 412.567 323.291 414.063 325.035 414.56C326.57 414.998 329.553 415.906 332.202 416.731C330.078 419.25 326.546 421.809 321.638 420.03C315.281 417.725 312.493 412.883 310.033 408.611C309.278 407.299 308.566 406.061 307.791 404.994C302.878 398.226 298.806 394.597 291.652 390.613C289.794 389.579 284.477 386.489 277.745 382.579C260.484 372.551 234.4 357.398 228.408 354.633C223.59 352.41 221.197 353.748 219.085 354.927C217.088 356.043 215.365 357.006 211.473 355.404C207.184 353.638 203.58 349.962 201.177 346.959L207.654 348.59C209.251 348.992 210.514 348.321 211.034 346.795C211.394 345.738 211.823 344.003 211.823 341.747C211.823 337.872 210.559 333.679 208.167 329.619C206.951 327.557 205.241 326.025 203.593 325.524L195.716 323.13Z" fill="#4762B0"/>
<path d="M271.708 377.285L251.705 365.728C250.094 364.798 248.788 362.534 248.788 360.672C248.788 358.81 250.094 358.056 251.705 358.987L271.708 370.543C273.319 371.474 274.625 373.737 274.624 375.599C274.624 377.461 273.319 378.216 271.708 377.285Z" fill="#728DDB"/>
<path d="M276.5 345.851C274.635 341.496 271.676 340.279 267.934 340.452C267.934 340.452 263.198 342.865 262.825 349.334C262.687 351.725 262.111 352.802 259.344 374.837L259.254 374.763L264.378 390.249C268.387 389.948 272.229 387.526 274.262 376.578C276.873 362.521 278.364 350.205 276.5 345.851Z" fill="#FFDD00"/>
<path d="M240.757 365.218C240.192 364.396 240.568 361.657 240.662 360.992C240.757 360.327 240.568 358.808 240.092 358.428C239.618 358.048 238.574 358 238.574 358C238.574 358 239.144 359.472 238.526 360.802C237.91 362.131 237.008 362.273 236.913 363.889C236.818 365.502 238.195 366.357 238.906 366.452C239.619 366.548 241.801 366.738 240.757 365.218Z" fill="#F7BC92"/>
</g>
<defs>
<clipPath id="clip0_2_18">
<rect width="536" height="519" fill="white"/>
</clipPath>
</defs>
</svg>
