<?xml version="1.0" encoding="utf-8"?>
<!-- Generator: Adobe Illustrator 16.0.0, SVG Export Plug-In . SVG Version: 6.00 Build 0)  -->
<!DOCTYPE svg PUBLIC "-//W3C//DTD SVG 1.1//EN" "http://www.w3.org/Graphics/SVG/1.1/DTD/svg11.dtd">
<svg version="1.1" id="Layer_1" xmlns="http://www.w3.org/2000/svg" xmlns:xlink="http://www.w3.org/1999/xlink" x="0px" y="0px"
	 width="439.773px" height="154.302px" viewBox="0 0 439.773 154.302" enable-background="new 0 0 439.773 154.302"
	 xml:space="preserve">
<g>
	<g>
		<g>
			<g>
				<path fill="#3C3C3B" d="M84.956,94.133H49.92c-1.57,0-2.366,0.813-2.366,2.417c0,1.56,0.858,2.418,2.417,2.418h14.823v4.585
					H54.571c-1.522,0-2.468,0.947-2.468,2.472c0,1.535,1.246,2.364,2.417,2.364h22.002v10.305c0,1.978,1.379,2.683,2.669,2.683
					c1.291,0,2.67-0.705,2.67-2.683v-11.605c0-1.836-0.391-3.535-3.227-3.535h-8.502v-4.585h14.923c2.036,0,2.316-1.188,2.316-2.472
					C87.373,94.906,86.583,94.133,84.956,94.133z"/>
				<path fill="#3C3C3B" d="M54.167,80.922h22.406v3.492c0,2.338-0.111,3.333-0.542,4.845c-0.47,1.703,0.005,2.783,1.492,3.396
					c0.321,0.135,0.645,0.202,0.964,0.202c0.359,0,0.713-0.085,1.05-0.256c0.723-0.366,1.313-1.119,1.505-1.918
					c0.599-2.365,0.818-5.156,0.871-11.062c0-1.836-0.391-3.535-3.226-3.535H54.117c-1.601,0-2.519,0.861-2.519,2.364
					C51.598,79.976,52.582,80.922,54.167,80.922z"/>
				<path fill="#3C3C3B" d="M213.884,97.7h-14.266v-4.783c0-1.472-1.198-2.67-2.67-2.67s-2.67,1.198-2.67,2.67V97.7h-15.43
					c-1.571,0-2.367,0.813-2.367,2.416c0,1.561,0.858,2.419,2.417,2.419h34.986c2.143,0,2.417-1.321,2.417-2.472
					C216.301,98.472,215.51,97.7,213.884,97.7z"/>
				<path fill="#3C3C3B" d="M181.69,93.13c0.351,0,0.717-0.057,1.084-0.134c5.994-1.314,11.512-5.29,13.728-8.597
					c2.262,3.17,8.021,7.157,14.061,8.49l0.006,0.002c1.706,0.347,2.598-0.083,3.079-1.478c0.322-0.894,0.275-1.741-0.132-2.389
					c-0.324-0.515-0.858-0.846-1.463-0.906c-5.347-0.559-10.68-4.519-11.975-7.675h9.305c2.098,0,2.367-1.35,2.367-2.525
					c0-1.015-0.246-2.364-2.367-2.364h-25.228c-1.125,0-2.619,0.251-2.619,2.418c0,2.215,1.437,2.472,2.518,2.472h9.163
					c-1.272,3.284-6.73,7.382-11.922,7.833c-0.887,0.064-1.349,0.494-1.579,0.844c-0.397,0.602-0.445,1.474-0.129,2.396
					C180.03,92.776,180.81,93.13,181.69,93.13z"/>
				<path fill="#3C3C3B" d="M209.739,115.531h-20.587v-8.655c0-0.754-0.24-1.387-0.676-1.782c-0.358-0.325-0.831-0.475-1.384-0.418
					c-0.013,0.001-1.3,0.156-2.076,0.156c-0.773,0-1.959-0.155-1.982-0.157c-0.685-0.071-1.269,0.095-1.688,0.474
					c-0.305,0.275-0.668,0.809-0.668,1.781c0,1.367,0.844,2.151,2.316,2.151h0.817v7.164c0,3.678,2.296,4.174,4.542,4.174h21.436
					c1.173,0,2.519-0.287,2.519-2.524C212.307,116.816,211.861,115.531,209.739,115.531z"/>
				<path fill="#3C3C3B" d="M256.858,95.038h-35.035c-1.571,0-2.367,0.813-2.367,2.416c0,1.561,0.858,2.419,2.417,2.419h14.822
					v3.102c-5.172,0.905-8.493,4.476-8.493,9.172c0,5.585,4.507,9.338,11.214,9.338s11.214-3.753,11.214-9.338
					c0-4.771-3.283-8.26-8.594-9.173v-3.101h14.721c1.694,0,2.519-0.809,2.519-2.471C259.276,95.811,258.485,95.038,256.858,95.038z
					 M245.442,112.146c0,2.832-2.365,4.662-6.025,4.662c-3.661,0-6.026-1.83-6.026-4.662c0-2.865,2.365-4.716,6.026-4.716
					C243.077,107.43,245.442,109.281,245.442,112.146z"/>
				<path fill="#3C3C3B" d="M224.722,92.766c0.34,0,0.681-0.043,1.001-0.083c5.52-0.809,11.641-4.895,13.874-8.25
					c2.382,3.096,8.025,6.852,13.942,8.138l0.006,0.002c1.705,0.347,2.598-0.084,3.079-1.478c0.322-0.895,0.274-1.742-0.133-2.389
					c-0.324-0.515-0.858-0.846-1.458-0.906c-5.251-0.597-10.284-4.234-11.915-7.355h9.241c2.098,0,2.366-1.35,2.366-2.525
					c0-1.015-0.245-2.364-2.366-2.364h-25.229c-1.124,0-2.618,0.251-2.618,2.418c0,2.215,1.437,2.472,2.518,2.472h9.123
					c-1.524,3.313-6.774,7.166-11.882,7.514c-0.887,0.065-1.348,0.494-1.579,0.843c-0.397,0.602-0.445,1.474-0.13,2.397
					C223.018,92.491,223.863,92.766,224.722,92.766z"/>
				<path fill="#3C3C3B" d="M125.581,73.21c-1.458,0-2.645,1.187-2.645,2.646v9.069h-3.305v-9.069c0-1.459-1.186-2.646-2.645-2.646
					s-2.645,1.187-2.645,2.646v22.292c0,2.019,1.353,2.737,2.62,2.737c1.291,0,2.67-0.732,2.67-2.79v-8.229h3.305v10.784
					c0,2.018,1.354,2.736,2.62,2.736c1.291,0,2.669-0.732,2.669-2.79v-24.74C128.225,74.396,127.039,73.21,125.581,73.21z"/>
				<path fill="#3C3C3B" d="M108.473,98.809c1.821,1.04,2.917,0.889,3.908-0.542c0.415-0.584,0.57-1.456,0.394-2.222
					c-0.161-0.7-0.582-1.269-1.181-1.596c-4.597-2.603-6.928-7.286-6.928-13.922v-1.49c0-1.451-0.725-2.291-2.108-2.362
					c-0.014,0.002-1.404,0.157-2.282,0.157c-0.823,0-2.061-0.155-2.102-0.158c-0.845-0.053-1.491,0.14-1.923,0.551
					c-0.409,0.387-0.616,0.962-0.616,1.706c0,1.533,0.864,2.311,2.569,2.311h0.916c-0.124,6.056-3.067,12.061-7.244,14.708
					c-0.902,0.57-1.186,1.288-1.264,1.79c-0.117,0.744,0.133,1.568,0.661,2.198c0.51,0.637,1.138,0.959,1.829,0.959
					c0.55,0,1.139-0.205,1.739-0.616c2.599-1.808,5.435-5.489,6.88-8.851C103.117,94.145,106.072,97.416,108.473,98.809z"/>
				<path fill="#3C3C3B" d="M116.809,101.637c-7.051,0-11.265,5.154-11.265,10.137c0,4.931,3.748,9.922,10.912,9.922
					c7.196,0,10.961-4.991,10.961-9.922C127.417,106.891,124.097,101.637,116.809,101.637z M116.456,117.074
					c-3.647,0-5.824-1.981-5.824-5.3c0-3.386,2.177-5.407,5.824-5.407c3.677,0,5.874,2.021,5.874,5.407
					C122.329,115.092,120.133,117.074,116.456,117.074z"/>
				<path fill="#3C3C3B" d="M156.944,94.42v-13.2c0-2.516-1.025-3.589-3.429-3.589h-18.554c-1.45,0-2.215,0.799-2.215,2.311
					c0,1.314,0.79,2.099,2.114,2.099h1.172v12.38c0,2.981,1.425,4.494,4.237,4.494h12.336
					C155.444,98.915,156.944,97.361,156.944,94.42z M151.604,82.519v11.507h-10.231V82.519H151.604z"/>
				<path fill="#3C3C3B" d="M167.723,73.21c-1.472,0-2.67,1.198-2.67,2.671v6.594h-4.661c-1.545,0-2.467,0.864-2.467,2.311
					c0,1.469,0.899,2.312,2.467,2.312h4.661v3.362h-4.661c-1.545,0-2.467,0.864-2.467,2.312c0,1.47,0.899,2.312,2.467,2.312h4.661
					v4.835c0,1.472,1.198,2.669,2.67,2.669s2.67-1.197,2.67-2.669V75.881C170.393,74.408,169.195,73.21,167.723,73.21z"/>
				<path fill="#3C3C3B" d="M159.052,101.637c-7.052,0-11.265,5.154-11.265,10.137c0,4.931,3.748,9.922,10.912,9.922
					c7.196,0,10.961-4.991,10.961-9.922C169.66,106.891,166.34,101.637,159.052,101.637z M164.572,111.774
					c0,3.318-2.196,5.3-5.874,5.3c-3.646,0-5.824-1.981-5.824-5.3c0-3.386,2.177-5.407,5.824-5.407
					C162.376,106.367,164.572,108.388,164.572,111.774z"/>
				<path fill="#3C3C3B" d="M30.696,80.847c0-0.571,0-2.312-2.417-2.312h-7.643v-2.639c0-1.437-1.049-2.364-2.671-2.364
					c-1.608,0-2.568,0.884-2.568,2.364v2.639H7.752c-1.568,0-2.468,0.862-2.468,2.364s0.949,2.472,2.417,2.472h20.577
					C29.882,83.372,30.696,82.522,30.696,80.847z"/>
				<path fill="#3C3C3B" d="M44.356,89.927h-4.863V75.881c0-1.473-1.198-2.671-2.67-2.671s-2.67,1.198-2.67,2.671v30.356
					c0,1.639,0.973,2.578,2.669,2.578c1.697,0,2.67-0.958,2.67-2.63V94.869h4.863c1.522,0,2.468-0.946,2.468-2.471
					C46.824,90.897,45.855,89.927,44.356,89.927z"/>
				<path fill="#3C3C3B" d="M39.351,115.531H19.473v-8.602c0-0.753-0.24-1.387-0.675-1.782c-0.359-0.326-0.835-0.474-1.386-0.419
					c-0.013,0.001-1.3,0.156-2.076,0.156c-0.772,0-1.958-0.155-1.983-0.157c-0.686-0.075-1.269,0.096-1.688,0.475
					c-0.442,0.401-0.667,1.001-0.667,1.781c0,1.367,0.844,2.151,2.316,2.151h0.818v7.11c0,3.678,2.295,4.174,4.541,4.174h20.729
					c1.173,0,2.519-0.287,2.519-2.524C41.92,116.816,41.474,115.531,39.351,115.531z"/>
				<path fill="#3C3C3B" d="M17.915,102.8c5.471,0,9.596-3.9,9.596-9.071c0-5.287-3.993-9.125-9.495-9.125
					c-5.442,0-9.546,3.9-9.546,9.071C8.47,98.877,12.53,102.8,17.915,102.8z M13.457,93.675c0-2.556,1.854-4.342,4.508-4.342
					c2.685,0,4.56,1.808,4.56,4.396c0,2.557-1.917,4.342-4.661,4.342C15.31,98.071,13.457,96.223,13.457,93.675z"/>
			</g>
			<g>
				<g>
					<path fill="#EC6606" d="M266.164,84.276h22.751c2.085,0,2.366-1.222,2.366-2.418c0-1.051-0.27-2.258-2.366-2.258h-22.751
						c-1.472,0-2.316,0.843-2.316,2.313C263.848,83.371,264.735,84.276,266.164,84.276z"/>
				</g>
				<g>
					<path fill="#EC6606" d="M267.337,94.633c0,5.504,4.27,9.498,10.152,9.498s10.152-3.994,10.152-9.498
						c0-5.502-4.27-9.496-10.152-9.496S267.337,89.131,267.337,94.633z M272.524,94.688c0-2.704,2.181-4.822,4.965-4.822
						c2.83,0,4.964,2.05,4.964,4.768c0,2.674-2.181,4.769-4.964,4.769C274.659,99.402,272.524,97.375,272.524,94.688z"/>
				</g>
				<g>
					<path fill="#EC6606" d="M297.156,73.211c-1.472,0-2.67,1.198-2.67,2.67v26.989c-4.193,3.721-14.382,4.58-17.642,4.464
						l-11.678-0.374c-1.78-0.03-2.665,0.702-2.783,2.388c-0.054,0.671,0.124,1.257,0.513,1.695c0.438,0.493,1.107,0.771,1.94,0.807
						l11.174,0.372c5.489,0.165,13.44-1.002,18.476-3.521v9.94c0,2.018,1.379,2.736,2.67,2.736s2.67-0.732,2.67-2.79V75.881
						C299.826,74.409,298.628,73.211,297.156,73.211z"/>
				</g>
				<g>
					<path fill="#EC6606" d="M345.188,86.521h-4.863v-10.64c0-1.472-1.198-2.67-2.67-2.67s-2.67,1.198-2.67,2.67v24.022
						c0,1.639,0.973,2.578,2.669,2.578c1.697,0,2.671-0.959,2.671-2.631v-8.388h4.863c1.521,0,2.468-0.946,2.468-2.471
						C347.655,87.491,346.686,86.521,345.188,86.521z"/>
				</g>
				<g>
					<path fill="#EC6606" d="M328.847,93.675V81.219c0-2.516-1.024-3.588-3.428-3.588h-18.554c-1.449,0-2.216,0.799-2.216,2.312
						c0,1.313,0.791,2.099,2.115,2.099h1.171v11.634c0,2.981,1.426,4.494,4.237,4.494h12.336
						C327.347,98.169,328.847,96.616,328.847,93.675z M313.275,93.281V82.52h10.232v10.761H313.275z"/>
				</g>
				<g>
					<path fill="#EC6606" d="M329.211,101.637c-7.052,0-11.266,5.153-11.266,10.137c0,4.931,3.749,9.922,10.912,9.922
						c7.195,0,10.961-4.991,10.961-9.922C339.818,106.891,336.499,101.637,329.211,101.637z M334.73,111.774
						c0,3.318-2.195,5.3-5.873,5.3c-3.647,0-5.824-1.981-5.824-5.3c0-3.386,2.177-5.407,5.824-5.407
						C332.535,106.367,334.73,108.388,334.73,111.774z"/>
				</g>
			</g>
			<g>
				<path fill="#EC6606" d="M277.489,76.042h-2.732c-1.107,0-1.799-1.198-1.245-2.156l1.366-2.367l1.366-2.367
					c0.553-0.958,1.937-0.958,2.49,0l1.366,2.367l1.366,2.367c0.554,0.958-0.139,2.156-1.245,2.156H277.489z"/>
			</g>
			<g>
				<g>
					<path fill="#F28B52" d="M317.473,29.361c-3.497,2.32-10.589,3.105-12.767-0.177c-2.178-3.282,1.382-9.389,4.879-11.708
						c3.498-2.32,8.099-1.541,10.276,1.742S320.97,27.041,317.473,29.361z"/>
				</g>
				<g>
					<path fill="#FDC300" d="M300.179,7.436c0.518,2.589-0.716,6.905-3.146,7.39c-2.43,0.485-5.136-3.044-5.652-5.633
						c-0.518-2.589,1.033-5.082,3.463-5.567C297.273,3.141,299.662,4.847,300.179,7.436z"/>
				</g>
				<g>
					<path fill="#D70C3F" d="M299.728,37.784c-0.454-1.458-1.047-2.855-1.764-4.175s-1.558-2.563-2.507-3.712
						c-1.424-1.725-3.091-3.242-4.949-4.497c-3.716-2.511-8.196-3.977-13.019-3.977c-4.823,0-9.303,1.466-13.02,3.977
						c-1.858,1.255-3.525,2.772-4.949,4.497c-0.949,1.15-1.79,2.393-2.507,3.712s-1.31,2.716-1.764,4.175
						c-0.68,2.188-1.047,4.513-1.047,6.924c0,1.109,0.104,2.191,0.254,3.259c0.003,0.02,0.007,0.039,0.01,0.058
						c0.113,0.8,0.269,1.586,0.462,2.358c0.007,0.027,0.014,0.053,0.021,0.08c0.196,0.769,0.429,1.521,0.699,2.257
						c0.007,0.02,0.015,0.041,0.022,0.061c0.277,0.75,0.591,1.481,0.941,2.192c0,0,0,0,0,0.001l0,0
						c3.04,6.169,8.723,10.778,15.575,12.373c1.445,0.336,2.817-0.815,2.817-2.299v0c0-0.714-0.344-1.369-0.887-1.834
						c-3.198-2.741-5.228-6.823-5.228-11.383c0-1.507,0.222-2.962,0.634-4.334c1.055-3.51,3.892-5.434,6.911-5.798
						c0.35-0.042,0.701-0.076,1.054-0.076c3.394,0,6.787,1.958,7.964,5.875c0.412,1.372,0.634,2.827,0.634,4.333
						c0,4.561-2.029,8.643-5.228,11.383c-0.543,0.465-0.886,1.12-0.886,1.834c0,1.484,1.371,2.635,2.816,2.298
						c6.813-1.588,12.464-6.163,15.513-12.282c0.02-0.031,0.043-0.058,0.063-0.089c0.041-0.083,0.069-0.172,0.109-0.255
						c0.303-0.633,0.588-1.276,0.833-1.939c0.007-0.019,0.014-0.039,0.021-0.058c0.27-0.736,0.503-1.491,0.699-2.26
						c0.007-0.026,0.014-0.053,0.021-0.079c0.193-0.771,0.349-1.559,0.463-2.359c0.002-0.02,0.006-0.039,0.009-0.058
						c0.149-1.067,0.254-2.15,0.254-3.259C300.774,42.297,300.408,39.972,299.728,37.784z"/>
				</g>
			</g>
		</g>
		<g>
			<path fill="#9D9D9C" d="M28.068,146.443c-0.037,0.026-0.079,0.039-0.122,0.039h-1.878c-0.033,0-0.067-0.013-0.106-0.039
				c-0.039-0.027-0.057-0.062-0.057-0.104v-11.672c0-0.031,0.018-0.066,0.057-0.104c0.039-0.037,0.073-0.057,0.106-0.057h1.878
				c0.043,0,0.085,0.02,0.122,0.057c0.039,0.037,0.058,0.072,0.058,0.104l-0.016,4.178l5.321-4.514
				c0.088-0.063,0.17-0.058,0.246,0.017l1.175,1.275c0.055,0.063,0.049,0.127-0.016,0.192l-5.241,4.448l5.567,4.975
				c0.055,0.054,0.055,0.117,0,0.191l-1.241,1.228c-0.065,0.085-0.142,0.085-0.228,0l-5.567-5.055v4.736
				C28.126,146.381,28.107,146.416,28.068,146.443z"/>
			<path fill="#9D9D9C" d="M48.698,140.502c0,0.861-0.166,1.667-0.498,2.416c-0.332,0.75-0.787,1.406-1.363,1.969
				c-0.578,0.564-1.253,1.008-2.026,1.332c-0.773,0.325-1.6,0.486-2.481,0.486c-0.882,0-1.708-0.161-2.481-0.486
				c-0.773-0.324-1.448-0.768-2.026-1.332c-0.576-0.563-1.03-1.219-1.363-1.969c-0.332-0.749-0.497-1.555-0.497-2.416
				c0-0.86,0.165-1.669,0.497-2.423c0.333-0.755,0.787-1.414,1.363-1.978c0.578-0.563,1.253-1.008,2.026-1.331
				c0.773-0.324,1.6-0.486,2.481-0.486c0.881,0,1.708,0.162,2.481,0.486c0.773,0.323,1.448,0.769,2.026,1.331
				c0.576,0.563,1.031,1.223,1.363,1.978C48.532,138.833,48.698,139.642,48.698,140.502z M46.493,140.502
				c0-0.616-0.108-1.188-0.326-1.713c-0.217-0.526-0.514-0.986-0.889-1.381c-0.375-0.393-0.816-0.7-1.323-0.924
				c-0.506-0.223-1.048-0.335-1.625-0.335c-0.577,0-1.119,0.112-1.625,0.335c-0.506,0.224-0.947,0.531-1.323,0.924
				c-0.375,0.395-0.672,0.854-0.889,1.381c-0.217,0.525-0.326,1.097-0.326,1.713c0,0.617,0.109,1.191,0.326,1.723
				s0.514,0.994,0.889,1.387c0.375,0.395,0.816,0.702,1.323,0.926c0.506,0.223,1.048,0.335,1.625,0.335
				c0.576,0,1.118-0.112,1.625-0.335c0.507-0.224,0.948-0.531,1.323-0.926c0.375-0.393,0.672-0.855,0.889-1.387
				C46.385,141.694,46.493,141.12,46.493,140.502z"/>
			<path fill="#9D9D9C" d="M59.229,138.207c0,0.829-0.201,1.533-0.603,2.112c-0.404,0.581-0.931,1.004-1.585,1.269l2.155,4.258
				c0.043,0.106,0.01,0.175-0.098,0.207l-1.6,0.637c-0.099,0.043-0.164,0.028-0.195-0.047l-2.401-4.769h-1.958v4.466
				c0,0.042-0.02,0.076-0.058,0.104c-0.037,0.026-0.079,0.039-0.122,0.039h-1.878c-0.033,0-0.067-0.013-0.105-0.039
				c-0.039-0.027-0.057-0.062-0.057-0.104v-11.672c0-0.031,0.018-0.066,0.057-0.104s0.073-0.057,0.105-0.057h4.556
				c0.533,0,1.031,0.086,1.494,0.256c0.461,0.17,0.862,0.414,1.2,0.733c0.337,0.319,0.604,0.706,0.8,1.163
				C59.131,137.118,59.229,137.633,59.229,138.207z M57.008,138.207c0-0.658-0.198-1.132-0.596-1.419
				c-0.397-0.286-0.934-0.43-1.608-0.43h-1.86v3.682h1.86c0.674,0,1.211-0.142,1.608-0.43
				C56.81,139.323,57.008,138.856,57.008,138.207z"/>
			<path fill="#9D9D9C" d="M68.748,146.443c-0.033,0.026-0.065,0.039-0.098,0.039h-7.232c-0.033,0-0.068-0.013-0.106-0.039
				c-0.039-0.027-0.058-0.062-0.058-0.104v-11.672c0-0.031,0.02-0.066,0.058-0.104c0.038-0.037,0.073-0.057,0.106-0.057h7.07
				c0.043,0,0.081,0.02,0.113,0.057s0.049,0.072,0.049,0.104v1.529c0,0.106-0.054,0.161-0.163,0.161h-5.013v3.077h4.702
				c0.033,0,0.068,0.014,0.107,0.04c0.037,0.026,0.057,0.061,0.057,0.104v1.531c0,0.041-0.02,0.078-0.057,0.11
				c-0.039,0.031-0.075,0.048-0.107,0.048h-4.702v3.365h5.176c0.033,0,0.065,0.015,0.098,0.047c0.033,0.033,0.049,0.074,0.049,0.129
				v1.53C68.797,146.381,68.78,146.416,68.748,146.443z"/>
			<path fill="#9D9D9C" d="M72.634,143.581l-1.159,3.045c-0.043,0.096-0.121,0.123-0.229,0.08l-1.666-0.558
				c-0.098-0.063-0.129-0.149-0.098-0.256l4.246-10.971c0.076-0.19,0.221-0.334,0.432-0.43c0.213-0.095,0.441-0.144,0.687-0.144
				c0.244,0,0.474,0.049,0.685,0.144c0.213,0.096,0.356,0.239,0.434,0.43l4.245,10.971c0.033,0.106,0,0.192-0.098,0.256
				l-1.665,0.558c-0.121,0.043-0.197,0.016-0.229-0.08l-1.159-3.045H72.634z M76.34,141.731l-1.502-3.891l-1.485,3.891H76.34z"/>
			<path fill="#9D9D9C" d="M94.234,136.358H89.37v3.221h4.538c0.109,0,0.164,0.053,0.164,0.159v1.53
				c0,0.032-0.017,0.066-0.049,0.104c-0.033,0.038-0.071,0.056-0.115,0.056H89.37v4.912c0,0.042-0.019,0.076-0.058,0.104
				c-0.037,0.026-0.079,0.039-0.122,0.039h-1.878c-0.033,0-0.067-0.013-0.106-0.039c-0.039-0.027-0.057-0.062-0.057-0.104v-11.672
				c0-0.031,0.018-0.066,0.057-0.104c0.039-0.037,0.073-0.057,0.106-0.057h6.923c0.044,0,0.079,0.02,0.107,0.057
				c0.027,0.037,0.041,0.072,0.041,0.104v1.529C94.382,136.303,94.333,136.358,94.234,136.358z"/>
			<path fill="#9D9D9C" d="M108.21,140.502c0,0.861-0.166,1.667-0.498,2.416c-0.332,0.75-0.786,1.406-1.363,1.969
				c-0.578,0.564-1.252,1.008-2.025,1.332c-0.773,0.325-1.6,0.486-2.481,0.486c-0.881,0-1.708-0.161-2.481-0.486
				c-0.773-0.324-1.448-0.768-2.026-1.332c-0.576-0.563-1.031-1.219-1.363-1.969c-0.332-0.749-0.498-1.555-0.498-2.416
				c0-0.86,0.166-1.669,0.498-2.423c0.332-0.755,0.787-1.414,1.363-1.978c0.578-0.563,1.252-1.008,2.026-1.331
				c0.773-0.324,1.6-0.486,2.481-0.486c0.882,0,1.708,0.162,2.481,0.486c0.773,0.323,1.448,0.769,2.025,1.331
				c0.577,0.563,1.031,1.223,1.363,1.978C108.045,138.833,108.21,139.642,108.21,140.502z M106.006,140.502
				c0-0.616-0.109-1.188-0.326-1.713c-0.217-0.526-0.514-0.986-0.889-1.381c-0.375-0.393-0.816-0.7-1.323-0.924
				c-0.506-0.223-1.048-0.335-1.625-0.335c-0.576,0-1.118,0.112-1.625,0.335c-0.506,0.224-0.947,0.531-1.322,0.924
				c-0.375,0.395-0.672,0.854-0.889,1.381c-0.218,0.525-0.326,1.097-0.326,1.713c0,0.617,0.108,1.191,0.326,1.723
				c0.217,0.531,0.514,0.994,0.889,1.387c0.375,0.395,0.816,0.702,1.322,0.926c0.507,0.223,1.049,0.335,1.625,0.335
				c0.577,0,1.119-0.112,1.625-0.335c0.506-0.224,0.947-0.531,1.323-0.926c0.375-0.393,0.672-0.855,0.889-1.387
				S106.006,141.12,106.006,140.502z"/>
			<path fill="#9D9D9C" d="M119.167,144.107c-0.24,0.532-0.569,0.983-0.988,1.355c-0.418,0.371-0.911,0.662-1.477,0.869
				s-1.175,0.311-1.829,0.311c-0.652,0-1.263-0.104-1.829-0.311c-0.566-0.207-1.056-0.498-1.468-0.869
				c-0.414-0.372-0.74-0.823-0.98-1.355s-0.359-1.122-0.359-1.771v-7.669c0-0.031,0.018-0.066,0.057-0.104
				c0.039-0.037,0.073-0.057,0.105-0.057h1.878c0.043,0,0.085,0.02,0.123,0.057c0.039,0.037,0.058,0.072,0.058,0.104v7.669
				c0,0.766,0.221,1.369,0.662,1.811c0.441,0.44,1.024,0.662,1.754,0.662c0.74,0,1.333-0.222,1.78-0.662
				c0.447-0.441,0.669-1.045,0.669-1.811v-7.669c0-0.031,0.016-0.066,0.049-0.104s0.066-0.057,0.099-0.057h1.895
				c0.043,0,0.082,0.02,0.113,0.057c0.033,0.037,0.049,0.072,0.049,0.104v7.669C119.525,142.985,119.406,143.575,119.167,144.107z"
				/>
			<path fill="#9D9D9C" d="M131.64,146.395c-0.185,0.121-0.402,0.196-0.652,0.223c-0.25,0.027-0.5,0.005-0.75-0.063
				c-0.252-0.069-0.441-0.193-0.572-0.375l-5.274-7.766v7.926c0,0.042-0.019,0.076-0.056,0.104
				c-0.039,0.026-0.079,0.039-0.123,0.039h-1.878c-0.033,0-0.069-0.013-0.106-0.039c-0.039-0.027-0.058-0.062-0.058-0.104v-11.226
				c0-0.213,0.095-0.383,0.286-0.51c0.19-0.129,0.411-0.206,0.661-0.232c0.25-0.026,0.5-0.003,0.751,0.072
				c0.25,0.074,0.436,0.201,0.555,0.383l5.291,7.749v-7.908c0-0.031,0.016-0.066,0.049-0.104c0.033-0.037,0.07-0.057,0.113-0.057
				h1.878c0.043,0,0.082,0.02,0.115,0.057c0.033,0.037,0.049,0.072,0.049,0.104v11.225
				C131.918,146.105,131.826,146.273,131.64,146.395z"/>
			<path fill="#9D9D9C" d="M144.491,140.502c0,0.915-0.161,1.741-0.481,2.479c-0.322,0.739-0.762,1.366-1.322,1.882
				c-0.562,0.516-1.22,0.915-1.977,1.196c-0.756,0.282-1.565,0.422-2.425,0.422h-3.543c-0.033,0-0.067-0.013-0.106-0.039
				c-0.039-0.027-0.057-0.062-0.057-0.104v-11.672c0-0.031,0.018-0.066,0.057-0.104c0.039-0.037,0.073-0.057,0.106-0.057h3.543
				c0.859,0,1.668,0.141,2.425,0.423c0.757,0.282,1.415,0.683,1.977,1.203c0.56,0.521,1,1.151,1.322,1.891
				C144.33,138.763,144.491,139.589,144.491,140.502z M142.286,140.502c0-1.36-0.381-2.392-1.142-3.094
				c-0.763-0.7-1.825-1.051-3.185-1.051h-1.159v8.275h1.159c1.36,0,2.422-0.352,3.185-1.053
				C141.905,142.878,142.286,141.853,142.286,140.502z"/>
			<path fill="#9D9D9C" d="M148.475,143.581l-1.16,3.045c-0.043,0.096-0.119,0.123-0.228,0.08l-1.665-0.558
				c-0.098-0.063-0.131-0.149-0.098-0.256l4.245-10.971c0.076-0.19,0.221-0.334,0.434-0.43c0.211-0.095,0.44-0.144,0.685-0.144
				c0.246,0,0.474,0.049,0.687,0.144c0.211,0.096,0.356,0.239,0.432,0.43l4.245,10.971c0.033,0.106,0,0.192-0.098,0.256
				l-1.666,0.558c-0.119,0.043-0.195,0.016-0.228-0.08l-1.159-3.045H148.475z M152.18,141.731l-1.501-3.891l-1.487,3.891H152.18z"/>
			<path fill="#9D9D9C" d="M161.863,146.443c-0.033,0.026-0.065,0.039-0.098,0.039h-1.895c-0.099,0-0.146-0.047-0.146-0.143v-9.981
				h-3.086c-0.033,0-0.066-0.017-0.099-0.049c-0.033-0.031-0.049-0.069-0.049-0.112v-1.529c0-0.031,0.013-0.066,0.04-0.104
				c0.028-0.037,0.063-0.057,0.107-0.057h8.327c0.043,0,0.081,0.02,0.113,0.057c0.033,0.037,0.049,0.072,0.049,0.104v1.529
				c0,0.106-0.054,0.161-0.162,0.161h-3.053v9.981C161.912,146.381,161.896,146.416,161.863,146.443z"/>
			<path fill="#9D9D9C" d="M168.898,146.482h-1.876c-0.098,0-0.147-0.047-0.147-0.143v-11.672c0-0.031,0.013-0.066,0.04-0.104
				c0.028-0.037,0.063-0.057,0.107-0.057h1.876c0.055,0,0.096,0.02,0.124,0.057c0.027,0.037,0.04,0.072,0.04,0.104v11.672
				C169.063,146.435,169.007,146.482,168.898,146.482z"/>
			<path fill="#9D9D9C" d="M183.921,140.502c0,0.861-0.167,1.667-0.499,2.416c-0.333,0.75-0.787,1.406-1.363,1.969
				c-0.577,0.564-1.251,1.008-2.024,1.332c-0.773,0.325-1.601,0.486-2.482,0.486c-0.88,0-1.708-0.161-2.481-0.486
				c-0.773-0.324-1.448-0.768-2.024-1.332c-0.578-0.563-1.032-1.219-1.365-1.969c-0.332-0.749-0.497-1.555-0.497-2.416
				c0-0.86,0.165-1.669,0.497-2.423c0.333-0.755,0.787-1.414,1.365-1.978c0.576-0.563,1.251-1.008,2.024-1.331
				c0.773-0.324,1.601-0.486,2.481-0.486c0.881,0,1.709,0.162,2.482,0.486c0.773,0.323,1.448,0.769,2.024,1.331
				c0.576,0.563,1.03,1.223,1.363,1.978C183.754,138.833,183.921,139.642,183.921,140.502z M181.716,140.502
				c0-0.616-0.109-1.188-0.326-1.713c-0.219-0.526-0.515-0.986-0.891-1.381c-0.375-0.393-0.816-0.7-1.323-0.924
				c-0.506-0.223-1.047-0.335-1.625-0.335c-0.577,0-1.117,0.112-1.624,0.335c-0.506,0.224-0.947,0.531-1.323,0.924
				c-0.375,0.395-0.673,0.854-0.891,1.381c-0.217,0.525-0.326,1.097-0.326,1.713c0,0.617,0.109,1.191,0.326,1.723
				s0.515,0.994,0.891,1.387c0.375,0.395,0.816,0.702,1.323,0.926c0.506,0.223,1.047,0.335,1.624,0.335
				c0.578,0,1.118-0.112,1.625-0.335c0.506-0.224,0.947-0.531,1.323-0.926c0.375-0.393,0.672-0.855,0.891-1.387
				C181.607,141.694,181.716,141.12,181.716,140.502z"/>
			<path fill="#9D9D9C" d="M195.414,146.395c-0.185,0.121-0.402,0.196-0.652,0.223c-0.25,0.027-0.5,0.005-0.75-0.063
				c-0.252-0.069-0.441-0.193-0.572-0.375l-5.274-7.766v7.926c0,0.042-0.02,0.076-0.057,0.104c-0.039,0.026-0.079,0.039-0.122,0.039
				h-1.878c-0.033,0-0.068-0.013-0.105-0.039c-0.039-0.027-0.058-0.062-0.058-0.104v-11.226c0-0.213,0.095-0.383,0.286-0.51
				c0.191-0.129,0.411-0.206,0.662-0.232c0.25-0.026,0.5-0.003,0.75,0.072c0.25,0.074,0.437,0.201,0.556,0.383l5.29,7.749v-7.908
				c0-0.031,0.017-0.066,0.049-0.104s0.07-0.057,0.113-0.057h1.878c0.043,0,0.082,0.02,0.115,0.057s0.049,0.072,0.049,0.104v11.225
				C195.693,146.105,195.601,146.273,195.414,146.395z"/>
			<path fill="#9D9D9C" d="M210.926,136.358h-4.866v3.221h4.54c0.109,0,0.162,0.053,0.162,0.159v1.53
				c0,0.032-0.016,0.066-0.049,0.104c-0.033,0.038-0.07,0.056-0.113,0.056h-4.54v4.912c0,0.042-0.02,0.076-0.057,0.104
				c-0.039,0.026-0.079,0.039-0.122,0.039h-1.878c-0.033,0-0.068-0.013-0.105-0.039c-0.039-0.027-0.058-0.062-0.058-0.104v-11.672
				c0-0.031,0.019-0.066,0.058-0.104c0.037-0.037,0.073-0.057,0.105-0.057h6.923c0.043,0,0.079,0.02,0.105,0.057
				c0.027,0.037,0.042,0.072,0.042,0.104v1.529C211.074,136.303,211.024,136.358,210.926,136.358z"/>
			<path fill="#9D9D9C" d="M224.902,140.502c0,0.861-0.167,1.667-0.499,2.416c-0.332,0.75-0.786,1.406-1.362,1.969
				c-0.576,0.564-1.251,1.008-2.024,1.332c-0.773,0.325-1.601,0.486-2.482,0.486c-0.88,0-1.708-0.161-2.481-0.486
				c-0.773-0.324-1.448-0.768-2.024-1.332c-0.578-0.563-1.032-1.219-1.364-1.969c-0.332-0.749-0.497-1.555-0.497-2.416
				c0-0.86,0.165-1.669,0.497-2.423c0.333-0.755,0.787-1.414,1.364-1.978c0.577-0.563,1.251-1.008,2.024-1.331
				c0.773-0.324,1.601-0.486,2.481-0.486c0.881,0,1.709,0.162,2.482,0.486c0.773,0.323,1.448,0.769,2.024,1.331
				c0.576,0.563,1.03,1.223,1.362,1.978C224.735,138.833,224.902,139.642,224.902,140.502z M222.698,140.502
				c0-0.616-0.108-1.188-0.326-1.713c-0.219-0.526-0.516-0.986-0.891-1.381c-0.375-0.393-0.816-0.7-1.323-0.924
				c-0.506-0.223-1.047-0.335-1.625-0.335c-0.577,0-1.117,0.112-1.624,0.335c-0.506,0.224-0.947,0.531-1.323,0.924
				c-0.375,0.395-0.673,0.854-0.891,1.381c-0.217,0.525-0.326,1.097-0.326,1.713c0,0.617,0.109,1.191,0.326,1.723
				c0.218,0.531,0.516,0.994,0.891,1.387c0.375,0.395,0.816,0.702,1.323,0.926c0.506,0.223,1.047,0.335,1.624,0.335
				c0.578,0,1.118-0.112,1.625-0.335c0.507-0.224,0.948-0.531,1.323-0.926c0.375-0.393,0.672-0.855,0.891-1.387
				C222.59,141.694,222.698,141.12,222.698,140.502z"/>
			<path fill="#9D9D9C" d="M235.435,138.207c0,0.829-0.203,1.533-0.605,2.112c-0.402,0.581-0.931,1.004-1.583,1.269l2.155,4.258
				c0.043,0.106,0.011,0.175-0.099,0.207l-1.6,0.637c-0.098,0.043-0.163,0.028-0.196-0.047l-2.399-4.769h-1.96v4.466
				c0,0.042-0.02,0.076-0.057,0.104c-0.039,0.026-0.079,0.039-0.122,0.039h-1.878c-0.033,0-0.068-0.013-0.105-0.039
				c-0.039-0.027-0.059-0.062-0.059-0.104v-11.672c0-0.031,0.02-0.066,0.059-0.104c0.037-0.037,0.072-0.057,0.105-0.057h4.555
				c0.533,0,1.031,0.086,1.493,0.256c0.464,0.17,0.864,0.414,1.201,0.733c0.338,0.319,0.604,0.706,0.8,1.163
				C235.336,137.118,235.435,137.633,235.435,138.207z M233.214,138.207c0-0.658-0.2-1.132-0.597-1.419
				c-0.397-0.286-0.934-0.43-1.608-0.43h-1.861v3.682h1.861c0.675,0,1.211-0.142,1.608-0.43
				C233.014,139.323,233.214,138.856,233.214,138.207z"/>
			<path fill="#9D9D9C" d="M250.178,143.229c0,0.532-0.104,1.011-0.312,1.436c-0.207,0.426-0.491,0.789-0.856,1.092
				c-0.365,0.304-0.803,0.538-1.315,0.702c-0.511,0.164-1.072,0.247-1.681,0.247c-0.556,0-1.061-0.074-1.519-0.224
				c-0.457-0.147-0.857-0.349-1.2-0.597c-0.343-0.25-0.634-0.535-0.874-0.854c-0.238-0.317-0.425-0.653-0.554-1.004
				c-0.045-0.116-0.013-0.186,0.097-0.208l1.764-0.733c0.087,0,0.141,0.043,0.163,0.129c0.076,0.213,0.185,0.42,0.326,0.621
				c0.142,0.202,0.306,0.38,0.49,0.534s0.395,0.278,0.629,0.375c0.233,0.096,0.477,0.143,0.727,0.143
				c0.556,0,1.015-0.14,1.379-0.421c0.365-0.282,0.548-0.662,0.548-1.141c0-0.468-0.141-0.846-0.424-1.133
				c-0.285-0.286-0.638-0.533-1.063-0.74c-0.424-0.208-0.888-0.399-1.388-0.575c-0.501-0.176-0.964-0.396-1.388-0.662
				c-0.425-0.266-0.778-0.597-1.061-0.996c-0.283-0.398-0.425-0.916-0.425-1.555c0-0.53,0.105-1.007,0.318-1.428
				c0.212-0.418,0.495-0.771,0.85-1.06c0.353-0.287,0.756-0.507,1.207-0.662c0.452-0.153,0.917-0.23,1.396-0.23
				c0.413,0,0.813,0.04,1.2,0.119c0.386,0.08,0.747,0.207,1.086,0.383c0.336,0.175,0.645,0.404,0.922,0.686
				c0.278,0.281,0.515,0.624,0.71,1.029c0.022,0.031,0.027,0.074,0.017,0.127c-0.011,0.054-0.039,0.09-0.082,0.112l-1.648,0.685
				c-0.088,0.032-0.152,0-0.195-0.095c-0.065-0.139-0.159-0.279-0.278-0.423s-0.26-0.273-0.416-0.392
				c-0.157-0.116-0.335-0.21-0.531-0.279c-0.195-0.068-0.408-0.104-0.636-0.104c-0.513,0-0.926,0.149-1.241,0.446
				c-0.315,0.299-0.474,0.649-0.474,1.054c0,0.361,0.142,0.65,0.425,0.869c0.283,0.218,0.636,0.417,1.061,0.598
				c0.424,0.182,0.885,0.366,1.38,0.559c0.495,0.19,0.955,0.433,1.38,0.726c0.424,0.291,0.777,0.663,1.062,1.115
				C250.036,141.951,250.178,142.529,250.178,143.229z"/>
			<path fill="#9D9D9C" d="M260.986,144.107c-0.24,0.532-0.569,0.983-0.989,1.355c-0.418,0.371-0.911,0.662-1.478,0.869
				c-0.565,0.207-1.175,0.311-1.827,0.311c-0.654,0-1.264-0.104-1.829-0.311c-0.566-0.207-1.056-0.498-1.47-0.869
				c-0.414-0.372-0.74-0.823-0.98-1.355c-0.238-0.532-0.358-1.122-0.358-1.771v-7.669c0-0.031,0.019-0.066,0.058-0.104
				c0.037-0.037,0.073-0.057,0.105-0.057h1.878c0.044,0,0.084,0.02,0.123,0.057c0.037,0.037,0.057,0.072,0.057,0.104v7.669
				c0,0.766,0.22,1.369,0.661,1.811c0.44,0.44,1.025,0.662,1.756,0.662c0.738,0,1.333-0.222,1.778-0.662
				c0.446-0.441,0.67-1.045,0.67-1.811v-7.669c0-0.031,0.017-0.066,0.049-0.104c0.033-0.037,0.066-0.057,0.099-0.057h1.893
				c0.044,0,0.082,0.02,0.115,0.057s0.049,0.072,0.049,0.104v7.669C261.345,142.985,261.225,143.575,260.986,144.107z"/>
			<path fill="#9D9D9C" d="M266.112,146.482h-1.878c-0.099,0-0.147-0.047-0.147-0.143v-11.672c0-0.031,0.015-0.066,0.042-0.104
				c0.026-0.037,0.063-0.057,0.105-0.057h1.878c0.054,0,0.096,0.02,0.122,0.057c0.027,0.037,0.04,0.072,0.04,0.104v11.672
				C266.274,146.435,266.222,146.482,266.112,146.482z"/>
			<path fill="#9D9D9C" d="M270.604,140.502c0,0.617,0.108,1.191,0.326,1.723c0.217,0.531,0.514,0.994,0.889,1.387
				c0.375,0.395,0.816,0.702,1.322,0.926c0.507,0.223,1.049,0.335,1.625,0.335c0.664,0,1.268-0.142,1.813-0.423
				c0.544-0.282,0.975-0.625,1.29-1.028c0.087-0.117,0.168-0.139,0.244-0.063l1.307,1.083c0.032,0.022,0.049,0.063,0.049,0.12
				c0,0.059-0.011,0.104-0.033,0.136c-0.586,0.605-1.27,1.092-2.049,1.459c-0.777,0.366-1.651,0.55-2.62,0.55
				c-0.882,0-1.708-0.161-2.481-0.486c-0.772-0.324-1.447-0.768-2.025-1.332c-0.576-0.563-1.03-1.219-1.362-1.969
				c-0.332-0.749-0.498-1.555-0.498-2.416c0-0.86,0.166-1.669,0.498-2.423c0.332-0.755,0.786-1.414,1.362-1.978
				c0.578-0.563,1.253-1.008,2.025-1.331c0.773-0.324,1.6-0.486,2.481-0.486c0.969,0,1.843,0.183,2.62,0.55
				c0.779,0.366,1.463,0.853,2.049,1.459c0.022,0.032,0.033,0.078,0.033,0.136c0,0.059-0.017,0.099-0.049,0.119l-1.307,1.085
				c-0.032,0.031-0.072,0.043-0.122,0.031c-0.049-0.01-0.089-0.037-0.122-0.08c-0.315-0.403-0.746-0.743-1.29-1.02
				c-0.545-0.276-1.148-0.415-1.813-0.415c-0.576,0-1.118,0.112-1.625,0.335c-0.506,0.224-0.947,0.531-1.322,0.924
				c-0.375,0.395-0.672,0.854-0.889,1.381C270.712,139.315,270.604,139.886,270.604,140.502z"/>
			<path fill="#9D9D9C" d="M283.239,146.482h-1.877c-0.098,0-0.147-0.047-0.147-0.143v-11.672c0-0.031,0.014-0.066,0.04-0.104
				c0.028-0.037,0.063-0.057,0.107-0.057h1.877c0.055,0,0.095,0.02,0.123,0.057c0.027,0.037,0.041,0.072,0.041,0.104v11.672
				C283.403,146.435,283.348,146.482,283.239,146.482z"/>
			<path fill="#9D9D9C" d="M296.057,140.502c0,0.915-0.161,1.741-0.481,2.479c-0.321,0.739-0.762,1.366-1.322,1.882
				c-0.562,0.516-1.22,0.915-1.977,1.196c-0.756,0.282-1.565,0.422-2.425,0.422h-3.543c-0.032,0-0.067-0.013-0.105-0.039
				c-0.039-0.027-0.057-0.062-0.057-0.104v-11.672c0-0.031,0.018-0.066,0.057-0.104c0.038-0.037,0.073-0.057,0.105-0.057h3.543
				c0.859,0,1.669,0.141,2.425,0.423c0.757,0.282,1.415,0.683,1.977,1.203c0.561,0.521,1.001,1.151,1.322,1.891
				C295.896,138.763,296.057,139.589,296.057,140.502z M293.853,140.502c0-1.36-0.382-2.392-1.143-3.094
				c-0.763-0.7-1.824-1.051-3.185-1.051h-1.158v8.275h1.158c1.36,0,2.422-0.352,3.185-1.053
				C293.471,142.878,293.853,141.853,293.853,140.502z"/>
			<path fill="#9D9D9C" d="M305.575,146.443c-0.032,0.026-0.065,0.039-0.098,0.039h-7.233c-0.032,0-0.068-0.013-0.105-0.039
				c-0.038-0.027-0.058-0.062-0.058-0.104v-11.672c0-0.031,0.02-0.066,0.058-0.104c0.037-0.037,0.073-0.057,0.105-0.057h7.07
				c0.044,0,0.081,0.02,0.113,0.057c0.033,0.037,0.05,0.072,0.05,0.104v1.529c0,0.106-0.054,0.161-0.163,0.161h-5.013v3.077h4.702
				c0.032,0,0.068,0.014,0.106,0.04c0.037,0.026,0.057,0.061,0.057,0.104v1.531c0,0.041-0.02,0.078-0.057,0.11
				c-0.038,0.031-0.074,0.048-0.106,0.048h-4.702v3.365h5.176c0.032,0,0.065,0.015,0.098,0.047c0.033,0.033,0.05,0.074,0.05,0.129
				v1.53C305.625,146.381,305.608,146.416,305.575,146.443z"/>
			<g>
				<path fill="#808080" d="M319.575,135.54c-0.328-0.312-0.725-0.555-1.178-0.722c-0.456-0.167-0.952-0.252-1.475-0.252h-3.772
					c-0.009,0-0.029,0.006-0.065,0.04c-0.033,0.033-0.039,0.053-0.039,0.062v11.672c0,0.016,0.004,0.036,0.033,0.057
					c0.026,0.018,0.05,0.027,0.071,0.027h1.878c0.033,0,0.063-0.009,0.089-0.028c0.029-0.021,0.033-0.04,0.033-0.056v-4.523h1.772
					c0.524,0,1.021-0.082,1.475-0.244c0.453-0.163,0.851-0.402,1.178-0.712c0.329-0.312,0.592-0.693,0.779-1.137
					c0.187-0.443,0.281-0.953,0.281-1.517c0-0.563-0.095-1.075-0.282-1.524C320.168,136.236,319.905,135.851,319.575,135.54z
					 M317.929,139.658c-0.404,0.293-0.957,0.44-1.644,0.44h-1.135v-3.799h1.135c0.685,0,1.236,0.148,1.644,0.44
					c0.411,0.297,0.619,0.791,0.619,1.467C318.548,138.872,318.34,139.361,317.929,139.658z"/>
				<path fill="#808080" d="M330.567,136.683c-0.19-0.445-0.455-0.83-0.786-1.144c-0.329-0.312-0.726-0.555-1.181-0.722
					c-0.453-0.167-0.949-0.252-1.474-0.252h-4.555c-0.008,0-0.029,0.004-0.064,0.039c-0.037,0.036-0.041,0.056-0.041,0.063v11.672
					c0,0.016,0.004,0.035,0.034,0.057c0.024,0.018,0.05,0.027,0.071,0.027h1.878c0.033,0,0.062-0.009,0.09-0.028
					c0.026-0.02,0.03-0.04,0.03-0.056v-4.523h2.056l0.016,0.031l2.398,4.769c0.012,0.024,0.025,0.06,0.122,0.02l1.601-0.637
					c0.031-0.01,0.063-0.023,0.075-0.047s0.001-0.059-0.009-0.085l-2.183-4.31l0.06-0.024c0.64-0.26,1.164-0.68,1.557-1.247
					c0.395-0.568,0.595-1.268,0.595-2.079C330.857,137.643,330.76,137.13,330.567,136.683z M328.134,139.658
					c-0.404,0.293-0.957,0.44-1.643,0.44h-1.921v-3.799h1.921c0.684,0,1.235,0.148,1.643,0.44c0.411,0.299,0.62,0.792,0.62,1.467
					C328.754,138.871,328.545,139.359,328.134,139.658z"/>
				<path fill="#808080" d="M340.337,144.691h-5.234v-3.481h4.76c0.018,0,0.043-0.012,0.071-0.035
					c0.022-0.02,0.034-0.041,0.034-0.064v-1.531c0-0.023-0.01-0.04-0.031-0.056c-0.028-0.019-0.054-0.03-0.074-0.03h-4.76v-3.193
					h5.071c0.075,0,0.104-0.028,0.104-0.102v-1.53c0-0.011-0.007-0.032-0.035-0.064s-0.052-0.037-0.069-0.037h-7.07
					c-0.016,0-0.039,0.015-0.063,0.039c-0.038,0.036-0.042,0.056-0.042,0.063v11.672c0,0.016,0.004,0.035,0.034,0.056
					c0.025,0.019,0.05,0.028,0.071,0.028h7.233c0.02,0,0.039-0.009,0.061-0.025c0.02-0.016,0.027-0.033,0.027-0.059v-1.53
					c0-0.039-0.01-0.065-0.031-0.087C340.372,144.702,340.354,144.691,340.337,144.691z"/>
				<path fill="#808080" d="M350.112,134.34c-0.033-0.013-0.077-0.024-0.107-0.008c-0.02,0.01-0.034,0.031-0.045,0.064l-3.436,8.916
					l-0.055-0.142l-3.364-8.771c-0.014-0.035-0.035-0.06-0.063-0.069c-0.012-0.005-0.023-0.007-0.035-0.007
					c-0.016,0-0.031,0.004-0.048,0.013l-1.673,0.593c-0.066,0.029-0.085,0.072-0.062,0.149l4.244,10.967
					c0.07,0.189,0.202,0.327,0.403,0.422c0.203,0.098,0.425,0.147,0.66,0.147c0.237,0,0.454-0.048,0.661-0.146
					c0.2-0.096,0.331-0.233,0.402-0.423l0,0l4.245-10.971c0.022-0.073,0.004-0.116-0.067-0.146L350.112,134.34z"/>
				<path fill="#808080" d="M360.745,144.691h-5.233v-3.481h4.76c0.011,0,0.033-0.004,0.07-0.034
					c0.023-0.021,0.035-0.042,0.035-0.065v-1.531c0-0.017-0.004-0.036-0.032-0.056c-0.027-0.02-0.053-0.03-0.073-0.03h-4.76v-3.193
					h5.071c0.076,0,0.104-0.027,0.104-0.102v-1.53c0-0.017-0.012-0.039-0.034-0.064c-0.029-0.033-0.054-0.037-0.069-0.037h-7.07
					c-0.008,0-0.028,0.004-0.064,0.039c-0.037,0.036-0.041,0.056-0.041,0.063v11.672c0,0.016,0.004,0.035,0.034,0.057
					c0.025,0.018,0.05,0.027,0.071,0.027h7.232c0.02,0,0.04-0.009,0.061-0.025c0.02-0.016,0.029-0.035,0.029-0.059v-1.53
					c0-0.038-0.011-0.065-0.032-0.088C360.781,144.702,360.763,144.691,360.745,144.691z"/>
				<path fill="#808080" d="M372.354,134.566h-1.878c-0.018,0-0.041,0.005-0.068,0.036c-0.029,0.033-0.036,0.055-0.036,0.065v8.099
					l-5.397-7.906c-0.11-0.169-0.286-0.289-0.522-0.359c-0.24-0.072-0.485-0.098-0.729-0.07c-0.239,0.025-0.453,0.101-0.635,0.223
					c-0.175,0.117-0.261,0.268-0.261,0.461v11.226c0,0.016,0.004,0.035,0.034,0.056c0.025,0.019,0.051,0.028,0.072,0.028h1.878
					c0.032,0,0.061-0.009,0.089-0.028c0.028-0.021,0.031-0.042,0.031-0.056v-8.116l5.381,7.923c0.123,0.17,0.299,0.285,0.539,0.352
					c0.243,0.066,0.486,0.089,0.729,0.062c0.239-0.025,0.45-0.097,0.627-0.213v-0.001c0.169-0.11,0.252-0.259,0.252-0.453v-11.225
					c0-0.017-0.012-0.039-0.034-0.064C372.403,134.578,372.38,134.566,372.354,134.566z"/>
				<path fill="#808080" d="M382.641,134.566h-8.327c-0.025,0-0.042,0.01-0.06,0.033c-0.02,0.025-0.029,0.049-0.029,0.068v1.53
					c0,0.026,0.01,0.049,0.031,0.068c0.016,0.016,0.038,0.033,0.058,0.033h3.145v10.04c0,0.063,0.022,0.084,0.087,0.084h1.896
					c0.02,0,0.04-0.009,0.061-0.025c0.02-0.016,0.028-0.035,0.028-0.059v-10.04h3.111c0.076,0,0.104-0.027,0.104-0.102v-1.53
					c0-0.017-0.012-0.039-0.034-0.064C382.681,134.57,382.657,134.566,382.641,134.566z"/>
				<path fill="#808080" d="M386.574,134.566h-1.877c-0.024,0-0.042,0.01-0.06,0.033c-0.02,0.026-0.029,0.05-0.029,0.068v11.672
					c0,0.055,0.015,0.084,0.089,0.084h1.877c0.097,0,0.105-0.041,0.105-0.084v-11.672c0-0.019-0.01-0.042-0.029-0.069
					C386.639,134.583,386.62,134.566,386.574,134.566z"/>
				<path fill="#808080" d="M399.693,136.143c-0.571-0.557-1.246-1-2.006-1.317c-0.761-0.32-1.588-0.482-2.46-0.482
					c-0.871,0-1.698,0.162-2.458,0.482c-0.761,0.317-1.436,0.762-2.007,1.317c-0.568,0.555-1.022,1.215-1.351,1.96
					c-0.327,0.741-0.493,1.549-0.493,2.399c0,0.852,0.166,1.656,0.493,2.392c0.328,0.742,0.782,1.398,1.351,1.952
					c0.566,0.554,1.242,0.998,2.007,1.319c0.76,0.319,1.588,0.481,2.458,0.481c0.872,0,1.699-0.162,2.46-0.481
					c0.764-0.321,1.438-0.765,2.006-1.319c0.568-0.556,1.022-1.212,1.35-1.951c0.328-0.74,0.495-1.545,0.495-2.393
					c0-0.847-0.167-1.654-0.495-2.399C400.716,137.359,400.262,136.7,399.693,136.143z M399.12,142.247
					c-0.222,0.538-0.525,1.012-0.902,1.405c-0.38,0.397-0.83,0.714-1.342,0.939s-1.066,0.339-1.648,0.339
					c-0.581,0-1.136-0.113-1.646-0.339c-0.512-0.226-0.963-0.542-1.342-0.939c-0.38-0.397-0.684-0.87-0.903-1.405
					c-0.219-0.535-0.33-1.121-0.33-1.744c0-0.622,0.111-1.205,0.33-1.735c0.22-0.528,0.522-0.999,0.903-1.398
					c0.379-0.396,0.83-0.712,1.342-0.938c0.511-0.226,1.065-0.339,1.646-0.339c0.582,0,1.137,0.113,1.648,0.339
					s0.962,0.541,1.342,0.938c0.378,0.396,0.682,0.867,0.902,1.398c0.219,0.53,0.33,1.113,0.33,1.735
					C399.45,141.125,399.339,141.711,399.12,142.247z"/>
				<path fill="#808080" d="M413.205,134.566h-1.879c-0.017,0-0.04,0.004-0.068,0.036c-0.029,0.033-0.035,0.055-0.035,0.065v8.099
					l-5.397-7.906c-0.11-0.169-0.287-0.289-0.523-0.359c-0.24-0.072-0.486-0.098-0.728-0.07c-0.24,0.025-0.453,0.101-0.635,0.223
					c-0.176,0.116-0.261,0.268-0.261,0.461v11.226c0,0.016,0.004,0.035,0.034,0.057c0.024,0.018,0.05,0.027,0.071,0.027h1.878
					c0.032,0,0.062-0.009,0.09-0.028c0.026-0.02,0.03-0.04,0.03-0.056v-8.116l5.381,7.923c0.123,0.17,0.3,0.285,0.539,0.352
					c0.244,0.067,0.49,0.09,0.729,0.062c0.239-0.025,0.45-0.097,0.626-0.213v-0.001c0.17-0.11,0.253-0.259,0.253-0.453v-11.225
					c0-0.011-0.007-0.032-0.035-0.064C413.254,134.578,413.231,134.566,413.205,134.566z"/>
			</g>
		</g>
	</g>
	<g>
		<path fill="#3C3C3B" d="M427.044,115.827H407.1v-10.792c0-0.77-0.245-1.416-0.689-1.82c-0.368-0.333-0.854-0.478-1.415-0.428
			c-0.013,0.002-1.327,0.16-2.109,0.16s-1.996-0.158-2.016-0.161c-0.7-0.065-1.296,0.101-1.722,0.484
			c-0.452,0.41-0.682,1.021-0.682,1.818c0,1.396,0.861,2.196,2.363,2.196h0.823v9.276c0,3.747,2.338,4.252,4.625,4.252h20.817
			c1.196,0,2.569-0.292,2.569-2.575C429.665,116.661,428.759,115.827,427.044,115.827z"/>
		<path fill="#3C3C3B" d="M432.133,85.466h-4.935v-9.942c0-1.502-1.222-2.723-2.724-2.723s-2.724,1.221-2.724,2.723v15.704
			c-4.529,2.898-11.566,3.979-14.959,3.979h-5.088c-0.944,0-1.389-0.168-1.389-1.7V82.283h13.211c1.458,0,2.363-0.966,2.363-2.521
			c0-1.521-0.925-2.467-2.415-2.467h-20.2c-1.487,0-2.21,0.754-2.21,2.305c0,1.515,0.756,2.251,2.313,2.251h1.492v12.632
			c0,3.676,3.044,5.659,5.909,5.659h3.341c6.443,0,12.849-1.308,17.632-3.593v9.676c0,1.672,0.992,2.63,2.723,2.63
			c1.731,0,2.725-0.978,2.725-2.684V90.508h4.935c1.553,0,2.518-0.966,2.518-2.521C434.65,86.456,433.662,85.466,432.133,85.466z"/>
		<path fill="#3C3C3B" d="M369.77,102.972l-0.105,0.142l0.103-0.144c-5.429-3.968-7.85-9.725-7.85-18.663v-2.025l5.242-0.003
			c2.092-0.259,2.262-1.317,2.262-2.571c0-1.013-0.251-2.358-2.415-2.358h-15.729c-1.641,0-2.62,0.922-2.62,2.467
			c0,1.521,0.964,2.467,2.518,2.467h5.192v2.241c0,8.288-3.246,16.316-7.895,19.524c-0.686,0.481-1.089,1.068-1.198,1.745
			c-0.111,0.678,0.098,1.417,0.588,2.08c0.425,0.584,1.074,0.967,1.779,1.049c0.089,0.01,0.185,0.016,0.288,0.016
			c0.614,0,1.208-0.23,1.714-0.666c3.693-3.08,6.215-7.447,7.414-10.672c1.461,3.421,4.822,7.525,7.231,9.487
			c0.938,0.74,1.692,1.034,2.369,0.934c0.567-0.088,1.049-0.447,1.514-1.131C371.218,105.366,371.07,103.937,369.77,102.972z"/>
		<path fill="#3C3C3B" d="M383.634,72.801c-1.487,0-2.697,1.21-2.697,2.697v15.705h-3.343V75.498c0-1.487-1.21-2.697-2.697-2.697
			c-1.488,0-2.698,1.21-2.698,2.697v43.499c0,1.721,1.023,2.79,2.672,2.79c1.317,0,2.724-0.747,2.724-2.845V96.245h3.343v22.752
			c0,1.721,1.023,2.79,2.672,2.79c1.317,0,2.724-0.747,2.724-2.845V75.498C386.332,74.011,385.122,72.801,383.634,72.801z"/>
	</g>
</g>
</svg>
